<svg id="Capa_1" data-name="Capa 1" xmlns="http://www.w3.org/2000/svg" viewBox="0 0 408.41 369.65"><title>anagrama</title><g id="_3HAYmf" data-name="3HAYmf"><path d="M349.64,325.27c11.63-.27,22.48-1.72,31.72-8.83,12.44-9.58,15.42-22.64,13.11-37.29s-11.14-24.5-25.33-28.8c-7.69-2.32-15.67-1.53-23.38,1a6.91,6.91,0,0,1-1.77.12,5.4,5.4,0,0,1,.39-1.94c2.91-4.4,7.4-6.69,12.15-8.21A45.9,45.9,0,0,1,380,240c19.21,3.89,33.78,18,37.53,36.93,3.47,17.56-.32,33.1-14.51,44.95-8.14,6.81-17.87,10.21-28.33,11.75-13.13,1.94-26.07.24-39-1.52a4.54,4.54,0,0,0-3.37,1,152.57,152.57,0,0,1-51.16,34.29,160.8,160.8,0,0,1-39.21,10.7,168.51,168.51,0,0,1-61.65-2.5,155,155,0,0,1-65.86-32.26c-6.47-5.39-12.15-11.75-17.94-17.9-1.9-2-2.84-2.36-5.27-.58-12.14,8.89-25.62,11.49-40.39,8.22-10.34-2.29-19.9-6.14-27.44-13.65-10.83-10.8-14.89-24.05-12.28-39.15,3.57-20.66,16.35-32.87,36.11-38.09,5.78-1.52,11.92-1.66,17.86-2.61a3,3,0,0,0,2-2,122.75,122.75,0,0,1,14.8-49.71,134.67,134.67,0,0,1,35.05-41.26,162.92,162.92,0,0,1,43-24.09c3.18-1.24,6.53-2,9.69-3.28a5.17,5.17,0,0,0,2.76-2.64c5.2-14.66,10.22-29.38,15.36-44.06,3.08-8.81,6.33-17.55,9.44-26.35,3.38-9.57,6.6-19.21,10.1-28.74a12,12,0,0,1,3.81-5.6c4.87-3.33,9.69-1.48,11.75,4.14,1.5,4.1,2.86,8.25,4.24,12.39q5.61,16.85,11.16,33.72,6.55,19.85,13.06,39.71c1.44,4.38,2.86,8.77,4.48,13.07a4,4,0,0,0,2.34,1.85c9.21,3.16,18.73,5.58,27.62,9.46a148.86,148.86,0,0,1,39.27,25.72c8.56,7.61,16.55,15.78,22.11,25.84,6.05,10.94,7.16,22.27.18,33.44-1.34,2.16-3.1,3.76-5.93,3s-3.63-2.93-3.78-5.77c-.45-8.57-3.58-16.34-7.91-23.62a138,138,0,0,0-33.8-38.86,117,117,0,0,0-34.37-18.46c-.38-.13-1.08-.11-1.25.12a1.67,1.67,0,0,0,0,1.32c5.56,16.75,11.18,33.49,16.73,50.24,5.84,17.61,11.61,35.24,17.45,52.85q8.88,26.82,17.84,53.61c1.76,5.25-.53,9.85-6.91,9.56-5.05-.22-10.41.61-13.39-4.75a48.85,48.85,0,0,1-3.28-8.7c-3.6-11.16-7.11-22.35-10.68-33.52q-5-15.65-10.05-31.29-6.6-20.58-13.17-41.19c-3.18-9.92-6.41-19.82-9.59-29.74-2.29-7.18-4.47-14.39-6.9-21.51a4.52,4.52,0,0,0-2.81-2.67,127.9,127.9,0,0,0-39.59.61,163.81,163.81,0,0,0-16.41,3.94,4.41,4.41,0,0,0-2.48,2.46c-3.57,10-7,20-10.47,30-5.06,14.45-10.21,28.87-15.25,43.33-4.35,12.49-8.59,25-12.91,37.52-.9,2.59-1.81,5.2-2.9,7.72-.8,1.84-.29,2.67,1.52,3.34,12.25,4.48,24.58,8.79,36.68,13.64,12.28,4.93,24.32,10.45,36.49,15.65,18.06,7.72,36.08,15.52,54.24,23,9.72,4,19.61,7.66,29.59,11,8.09,2.71,16.41,4.76,24.66,7a2.92,2.92,0,0,0,2.4-1c7.61-10,14.46-20.49,16.41-33.32.23-1.53-.16-3.25.39-4.62.61-1.54,1.71-3.46,3.06-3.95a5.47,5.47,0,0,1,4.8,1.08c6,6.42,7,14.33,5.79,22.65-1.16,8-5.19,14.58-10.06,20.78-.34.42-.74,1.14-.59,1.5a2,2,0,0,0,1.47.74C344.82,325,347.45,325.14,349.64,325.27Zm-127,46.35c9.53.24,22.78-2.42,35.72-6.56,19.18-6.14,35.73-16.71,50.14-30.7a56.4,56.4,0,0,0,4.72-5.17,2.12,2.12,0,0,0-.6-1.89c-8.24-2.51-16.66-4.49-24.76-7.4q-22.79-8.19-45.25-17.27c-17.64-7.14-35-14.91-52.67-22.09-18.67-7.6-37.5-14.84-56.29-22.15a2.46,2.46,0,0,0-2.24.82c-2.1,5.08-4,10.25-6,15.35-4.49,11.26-9.42,22.31-16.51,32.22a3.73,3.73,0,0,0-.1,4.85c12.83,19.88,29.54,35.45,50.77,46.06C178.1,367,197.71,371.64,222.62,371.62ZM90.25,239.22c.2.16.91,1.26,1.79,1.43,3.46.64,7,.8,10.46,1.5,7.33,1.48,14.61,3.25,21.93,4.75a3.48,3.48,0,0,0,2.63-1,6.6,6.6,0,0,0,1.15-2.59c2.9-8.48,5.76-17,8.69-25.45,3.2-9.21,6.48-18.39,9.71-27.59q6.9-19.63,13.78-39.28c2.09-6,4.12-12,6.15-18a5.47,5.47,0,0,0,.05-1.52,4,4,0,0,0-1.31.13c-21.51,9.72-39.37,24-52.89,43.36A122,122,0,0,0,90.25,239.22Zm-23.43,83a40.16,40.16,0,0,0,19.28-6c2.07-1.34,1.84-2.2.7-3.88A106.36,106.36,0,0,1,71.6,279.2c-2.4-9.39-3.11-19.21-4.69-28.82-.13-.8-1.36-2.14-1.84-2-6.24,1.24-12.11,3.56-16.94,7.81-12.65,11.13-16.36,25.4-13.52,41.49C37.21,312.42,50.37,322.62,66.82,322.23ZM228.14,112.89c1.25.08,2.52.07,3.76.25,2.24.33,2.64-.47,2-2.52-3.55-10.84-7-21.72-10.51-32.58-3.3-10.18-6.65-20.35-10-30.53-.66-2-2-3.75-4.11-3.16a6.92,6.92,0,0,0-4.12,3.49c-2.85,7.4-5.27,15-7.89,22.45q-7.6,21.76-15.23,43.5a2.44,2.44,0,0,0,0,1.8c.16.29,1.1.29,1.64.18C198.36,113,213.16,111.55,228.14,112.89ZM91.25,248c-.55,1.25-1.32,2.14-1.25,3,.48,5.3,1,10.63,1.79,15.89a115.75,115.75,0,0,0,9.67,31.11,4.09,4.09,0,0,0,1.37,1.47c.11.07.85-.53,1.12-.94,8.61-12.93,13.66-27.51,19.31-41.81.14-.35-.55-1.46-1-1.57C112.13,252.71,102,250.42,91.25,248Z" transform="translate(-10.29 -10.18)"/></g></svg>