<?xml version="1.0" encoding="utf-8"?>
<!-- Generator: Adobe Illustrator 17.0.0, SVG Export Plug-In . SVG Version: 6.00 Build 0)  -->
<!DOCTYPE svg PUBLIC "-//W3C//DTD SVG 1.1//EN" "http://www.w3.org/Graphics/SVG/1.1/DTD/svg11.dtd">
<svg version="1.1" id="Capa_1" xmlns="http://www.w3.org/2000/svg" xmlns:xlink="http://www.w3.org/1999/xlink" x="0px" y="0px"
	 width="177.857px" height="172.571px" viewBox="0 0 177.857 172.571" enable-background="new 0 0 177.857 172.571"
	 xml:space="preserve">
<g>
	<circle fill="#FFFFFF" cx="86.559" cy="82.749" r="41.198"/>
	<g>
		<g>
			<linearGradient id="SVGID_1_" gradientUnits="userSpaceOnUse" x1="88.9254" y1="175.4577" x2="88.9254" y2="9.2643">
				<stop  offset="0" style="stop-color:#DF3729"/>
				<stop  offset="0.1652" style="stop-color:#E1492B"/>
				<stop  offset="0.4966" style="stop-color:#E67531"/>
				<stop  offset="0.96" style="stop-color:#EFB037"/>
				<stop  offset="1" style="stop-color:#EFB538"/>
			</linearGradient>
			<path fill="url(#SVGID_1_)" d="M89.819,167.311c-1.403,0-2.738-0.513-3.86-1.483c-1.417-1.225-2.43-3.382-1.635-6.109
				l-0.374-0.331c-1.314-1.159-2.643-2.331-3.951-3.526c-0.522-0.478-1.049-0.951-1.577-1.424c-1.699-1.524-3.456-3.101-5.063-4.841
				c-1.501-1.624-2.647-3.498-3.399-5.535c-0.733,1.092-1.918,1.928-3.364,2.275c-0.383,0.092-0.78,0.139-1.18,0.139
				c-1.878,0-3.651-1.003-4.628-2.619c-0.411-0.68-0.654-1.42-0.736-2.169c-3.074,1.25-6.22,1.476-9.069,1.476
				c-1.031,0-2.068-0.032-3.109-0.072c-1.478-0.057-2.958-0.073-4.437-0.091c-0.72-0.008-1.44-0.017-2.161-0.029
				c-0.943,2.283-2.846,3.556-5.357,3.556l-0.262-0.004c-2.759-0.095-4.976-2.041-5.514-4.842c-0.444-2.307,0.647-4.601,2.706-5.892
				l-0.119-0.979c-0.264-2.177-0.528-4.354-0.829-6.526c-0.479-3.459-0.86-6.857-0.28-10.39c0.281-1.711,0.792-3.326,1.527-4.834
				c-0.39-0.129-0.782-0.307-1.181-0.534c-1.974-1.123-3.036-3.657-2.471-5.895c0.142-0.561,0.369-1.154,0.73-1.709
				c-4.021-1.675-6.83-4.612-8.718-6.879c-1.476-1.772-2.928-3.597-4.333-5.362c-0.707-0.888-1.414-1.777-2.126-2.661
				c-0.024-0.03-0.048-0.06-0.072-0.09c-0.602,0.154-1.186,0.232-1.749,0.232c-1.784,0-3.357-0.786-4.431-2.213
				c-1.834-2.436-1.727-5.244,0.287-7.513c1.088-1.227,2.504-1.875,4.094-1.875c0.738,0,1.509,0.144,2.304,0.429
				c0.69-0.687,1.395-1.393,2.053-2.103c0.767-0.828,1.517-1.672,2.267-2.516c1.145-1.288,2.329-2.619,3.57-3.893
				c2-2.053,4.157-3.552,6.453-4.49c-0.764-1.664-0.663-3.43,0.299-5.015c0.799-1.317,2.15-2.222,3.659-2.493
				c-0.271-0.643-0.521-1.302-0.731-1.984c-1.21-3.927-0.676-7.967-0.248-11.213c0.367-2.771,0.727-5.542,1.087-8.314
				c-2.104-1.219-3.208-3.681-2.681-6.188c0.551-2.621,2.913-4.554,5.617-4.596c0,0,0.001,0,0.002,0
				c2.537,0,4.678,1.449,5.523,3.569c0.768-0.015,1.517-0.025,2.267-0.037c1.562-0.022,3.124-0.045,4.685-0.102l0.14-0.005
				c0.999-0.036,2-0.072,2.997-0.072c2.58,0,4.556,0.245,6.408,0.794c0.468,0.139,0.927,0.296,1.379,0.464
				c-0.002-0.81,0.19-1.632,0.585-2.418c0.889-1.769,2.82-2.958,4.805-2.958c0.285,0,0.57,0.024,0.847,0.073
				c1.753,0.308,3.15,1.299,3.906,2.649c1.78-4.254,4.94-7.347,7.949-9.872c1.629-1.368,3.253-2.832,4.824-4.248
				c0.439-0.396,0.878-0.792,1.318-1.186c-0.724-2.343,0.014-4.823,1.985-6.33c1.069-0.816,2.307-1.248,3.581-1.248
				c1.409,0,2.748,0.518,3.871,1.498c1.806,1.577,2.397,3.969,1.639,6.245c0.727,0.665,1.464,1.336,2.219,1.987
				c0.838,0.722,1.689,1.429,2.54,2.136c1.484,1.234,3.019,2.51,4.483,3.861c2.091,1.93,3.612,4.048,4.548,6.33
				c0.683-0.645,1.544-1.078,2.557-1.259c0.355-0.063,0.714-0.096,1.067-0.096c2.252,0,4.167,1.261,4.998,3.292
				c0.137,0.334,0.292,0.811,0.368,1.377c2.787-0.914,5.541-1.079,7.875-1.079c1.17,0,2.313,0.043,3.375,0.09
				c1.392,0.061,2.887,0.09,4.706,0.09c0.566,0,1.133-0.003,1.699-0.007c0.956-2.244,2.893-3.547,5.361-3.547l0.118,0.001
				c2.75,0.046,5.126,2.042,5.649,4.745c0.464,2.396-0.644,4.758-2.695,6.005l0.111,0.951c0.243,2.102,0.495,4.275,0.793,6.39
				c0.519,3.67,1.163,8.232-0.212,12.763c0.337,0.042,0.679,0.116,1.021,0.219c2.496,0.752,3.984,3.083,3.703,5.798
				c-0.128,1.24-0.727,2.379-1.603,3.222c4.132,1.68,6.877,4.774,9.535,7.768l0.253,0.286c1.294,1.456,2.609,2.893,3.912,4.315
				l0.503,0.551c0.819-0.293,1.592-0.438,2.337-0.438c1.518,0,2.895,0.613,3.982,1.773c1.953,2.083,2.15,5.076,0.491,7.448
				c-1.051,1.502-2.663,2.33-4.537,2.33c-0.549,0-1.116-0.067-1.71-0.203l-0.44,0.539c-1.122,1.374-2.259,2.768-3.409,4.151
				c-0.431,0.518-0.855,1.041-1.28,1.564c-1.208,1.49-2.457,3.029-3.857,4.458c-1.86,1.896-3.93,3.321-6.188,4.266
				c0.904,0.749,1.582,1.831,1.877,3.11c0.509,2.203-0.596,4.633-2.627,5.781c-0.676,0.382-1.415,0.619-2.161,0.697
				c0.956,2.59,1.289,5.413,0.993,8.438c-0.261,2.662-0.615,5.338-0.958,7.926c-0.173,1.309-0.346,2.618-0.508,3.929
				c-0.03,0.24-0.04,0.483-0.051,0.727c2.223,1.275,3.275,3.625,2.727,6.236c-0.538,2.566-2.973,4.528-5.664,4.563
				c0,0-0.001,0-0.001,0c-2.477,0-4.584-1.464-5.492-3.669l-1.345-0.002c-0.672,0-1.345,0.002-2.017,0.011
				c-1.021,0.013-2.043,0.04-3.064,0.066c-1.471,0.038-2.942,0.076-4.413,0.076c-0.396,0-0.791-0.003-1.187-0.009
				c-2.301-0.036-4.441-0.442-6.406-1.214c-0.067,0.249-0.153,0.498-0.259,0.749c-0.825,1.949-2.868,3.31-4.969,3.31
				c-0.223,0-0.444-0.015-0.663-0.046c-0.859-0.121-1.65-0.428-2.33-0.88c-0.851,2.244-2.229,4.298-4.124,6.141
				c-1.53,1.488-3.164,2.854-4.743,4.174c-0.733,0.613-1.466,1.225-2.188,1.849c-0.999,0.863-1.991,1.732-2.968,2.588
				c0.958,3.379-0.42,5.354-1.88,6.451C92.321,166.885,91.086,167.311,89.819,167.311z M83.538,137.353
				c0.162,0.32,0.324,0.597,0.496,0.791c1.672,1.88,3.456,3.73,5.182,5.518c0.122,0.127,0.244,0.253,0.366,0.38
				c1.022-0.929,2.039-1.856,3.031-2.811c1.125-1.082,2.104-2.047,3.009-3.014c-2.23-0.607-4.805-1.713-6.455-4.156
				C87.676,135.598,85.819,136.686,83.538,137.353z M65.653,125.549c0.266,1.888,1.176,3.66,2.137,5.531
				c0.345,0.67,0.695,1.352,1.024,2.055c0.088-0.038,0.176-0.076,0.264-0.114c2.112-0.918,4.106-1.785,6.096-2.718
				c0.3-0.141,0.567-0.292,0.793-0.446c-0.619-1.03-1.255-2.096-1.751-3.259c-0.316-0.742-0.564-1.482-0.783-2.212
				c-0.439,0.197-0.894,0.383-1.37,0.548c-1.376,0.474-2.854,0.705-4.518,0.705C66.95,125.638,66.335,125.61,65.653,125.549z
				 M101.92,129.369c1.263,0.856,2.738,1.437,4.354,2.072c0.727,0.286,1.465,0.577,2.201,0.901l0.039-0.081
				c0.885-1.87,1.751-3.699,2.584-5.542c0.053-0.116,0.102-0.229,0.147-0.338c-0.52,0.06-1.049,0.096-1.576,0.096
				c-1.749,0-3.289-0.39-4.615-1.164C104.289,126.986,103.141,128.309,101.92,129.369z M47.825,127.336
				c0.94,0.006,1.876,0.013,2.808,0.013c1.599,0,2.897-0.021,4.085-0.064c0.667-0.024,1.42-0.212,2.219-0.43
				c-0.514-2.295-0.624-4.645-0.334-7.118c-0.231,0.014-0.463,0.021-0.696,0.021c-1.382,0-2.816-0.254-4.26-0.756
				c-1.454-0.505-2.832-1.101-4.284-1.733c-0.066,0.18-0.11,0.34-0.116,0.464c-0.124,2.27-0.076,4.529-0.025,6.921
				c0.017,0.823,0.035,1.646,0.045,2.469c0,0.069,0.002,0.139,0.003,0.208C47.456,127.333,47.64,127.334,47.825,127.336z
				 M121.272,127.094c1.111,0.199,2.291,0.254,3.599,0.254c0.554,0,1.108-0.01,1.663-0.019c0.583-0.01,1.166-0.02,1.749-0.02
				c0.5,0,1.064,0.007,1.67,0.035c0.002-0.112,0.005-0.224,0.008-0.336c0.028-0.895,0.069-1.791,0.11-2.686
				c0.084-1.846,0.165-3.589,0.132-5.341c-0.005-0.269-0.053-0.568-0.126-0.896c-1.967,0.492-3.874,0.734-5.773,0.734
				c-0.547,0-1.09-0.02-1.632-0.059C123.081,121.866,122.269,124.681,121.272,127.094z M74.041,115.183
				c0.446,0,0.865,0.07,1.246,0.208c1.599,0.581,2.902,1.125,4.1,1.716c1.077,0.53,2.198,1.896,2.153,3.384
				c-0.091,2.897,2.523,5.69,5.829,6.229c0.469,0.076,0.94,0.136,1.48,0.205l0.638,0.083c0.321-0.146,0.682-0.251,1.079-0.317
				c2.215-0.364,5.725-2.421,5.706-6.393c-0.007-1.418,1.046-2.659,2.09-3.152c0.722-0.34,1.458-0.646,2.195-0.951
				c0.623-0.258,1.245-0.515,1.855-0.798c0.534-0.248,1.047-0.369,1.567-0.369c1.012,0,1.906,0.451,2.657,1.339
				c0.826,0.977,1.746,1.544,2.812,1.735c0.515,0.092,1.022,0.139,1.506,0.139c2.101,0,3.994-0.88,5.789-2.69
				c0.18-0.182,0.354-0.371,0.551-0.584l0.259-0.28l0.451-0.892c1.301-2.578,1.518-6.067-0.863-8.187
				c-1.104-0.983-1.222-2.724-0.771-3.863c0.375-0.949,0.784-1.886,1.193-2.822c0.286-0.655,0.573-1.31,0.846-1.971
				c0.769-1.855,2.23-2.287,3.322-2.322c1.175-0.039,2.154-0.415,2.992-1.149c2.607-2.287,3.463-5.165,2.616-8.798
				c-0.759-3.254-2.521-5.014-5.543-5.538c-1.324-0.23-2.311-1.308-2.702-2.274c-0.224-0.553-0.388-1.083-0.546-1.596
				c-0.167-0.542-0.326-1.054-0.522-1.465c-1.486-3.117-0.298-4.919,1.114-5.918c0.04-0.06,0.072-0.105,0.104-0.15
				c1.607-2.242,1.483-5.571-0.31-8.28c-1.509-2.279-4.12-3.752-6.651-3.752c-1.012,0-2.479,0.25-3.718,1.439
				c-0.547,0.525-1.286,0.803-2.137,0.803c-0.537,0-1.083-0.112-1.537-0.317c-1.8-0.809-4.174-1.89-6.557-3.072
				c-1.159-0.575-1.859-1.813-2.041-2.785c-0.272-1.455-0.673-2.441-1.298-3.196c-1.592-1.922-3.562-2.817-6.199-2.817
				c-0.249,0-0.5,0.008-0.756,0.024c-3.324,0.207-5.995,2.653-6.496,5.949c-0.207,1.354-1.265,2.431-2.221,2.897
				c-0.673,0.328-1.366,0.619-2.059,0.909c-0.899,0.375-1.748,0.73-2.497,1.159c-0.695,0.398-1.638,0.854-2.773,0.854
				c-1.14,0-2.177-0.452-3.086-1.344c-0.083-0.04-0.171-0.072-0.255-0.107c-0.906-0.376-1.68-0.542-2.452-0.542
				c-1.496,0-3.024,0.645-4.672,1.972c-1.646,1.326-2.838,3.652-3.036,5.926c-0.115,1.32,0.044,3.231,1.452,4.838
				c0.919,1.049,0.886,2.521,0.579,3.463c-0.24,0.733-0.504,1.459-0.768,2.184c-0.295,0.812-0.592,1.623-0.848,2.447
				c-0.539,1.741-1.776,2.75-3.578,2.918c-1.207,0.112-2.218,0.681-3.184,1.792c-1.647,1.893-2.256,4.186-1.86,7.011
				c0.428,3.051,2.483,6.264,6.11,6.566c1.174,0.098,2.338,0.919,2.832,1.997c0.668,1.459,1.304,2.934,1.935,4.397l1.218,2.815
				l-1.073,1.177c-2.794,3.066-3.368,4.065-0.389,10.404l0.515,0.395c0.302,0.23,0.568,0.434,0.828,0.645
				c1.365,1.105,3.118,1.74,4.81,1.74c1.25,0,3.022-0.341,4.369-1.964C72.237,115.327,73.412,115.183,74.041,115.183z
				 M127.448,101.302c1.151,2.166,1.49,4.477,1.519,6.724c1.296-0.329,2.575-0.88,3.899-1.451c0.845-0.365,1.705-0.735,2.6-1.064
				c-0.022-0.06-0.044-0.12-0.067-0.18c-0.831-2.238-1.616-4.352-2.494-6.449c-0.042-0.101-0.1-0.208-0.169-0.321
				C131.152,99.698,129.41,100.602,127.448,101.302z M41.512,104.592c1.367,0.628,2.752,1.264,4.15,1.874
				c1.287,0.562,2.654,1.11,3.984,1.11h0c0.047-1.931,0.266-4.057,1.113-6.194c-2.415-0.984-4.279-2.627-5.954-4.236
				c-0.287,0.367-0.546,0.829-0.798,1.407c-0.833,1.917-1.631,3.897-2.403,5.811C41.573,104.439,41.542,104.516,41.512,104.592z
				 M31.214,85.693c1.637,1.701,3.33,3.459,5.063,5.179c0.698,0.692,1.509,1.207,2.42,1.535c1.038-2.235,2.214-4.619,4.152-6.525
				c-0.455-0.426-0.892-0.903-1.263-1.459c-1.23-1.845-2.259-3.809-3.26-5.831c-0.833,0.435-1.605,0.856-2.132,1.354
				c-1.661,1.573-3.211,3.239-4.852,5.003c-0.138,0.148-0.276,0.297-0.415,0.446C31.022,85.494,31.118,85.593,31.214,85.693z
				 M140.374,91.946c1.67-1.064,3.056-2.636,4.502-4.277c0.638-0.724,1.287-1.46,1.976-2.169c-0.034-0.037-0.068-0.074-0.102-0.111
				c-1.392-1.508-2.707-2.933-4.102-4.286c-0.642-0.623-1.403-1.188-2.215-1.769c-1.428,2.293-2.974,4.369-4.618,6.201
				L140.374,91.946z M132.319,73.01c0.898-1.376,1.481-3.034,2.087-4.76c0.251-0.715,0.506-1.442,0.791-2.169
				c-0.029-0.012-0.058-0.025-0.087-0.038c-1.916-0.834-3.725-1.623-5.578-2.335c-0.31-0.119-0.654-0.214-1.015-0.296l-1.59,6.19
				L132.319,73.01z M42.904,68.297c0.513,1.453,1.043,2.956,1.621,4.379c0.02,0.049,0.04,0.097,0.06,0.144
				c1.299-1.555,2.853-2.844,4.684-3.888c-0.597-1.604-0.685-3.23-0.625-4.792c-1.239,0.316-2.461,0.845-3.728,1.394
				c-0.85,0.368-1.713,0.741-2.615,1.069C42.504,67.166,42.704,67.731,42.904,68.297z M48.231,45.35
				c-0.046,0.773-0.086,1.519-0.105,2.265l-0.025,0.931c-0.051,1.803-0.098,3.512-0.022,5.212c2.245-1.243,4.622-1.998,7.173-2.278
				c0.011-2.181,0.739-4.118,1.614-5.899c-1.102-0.186-2.216-0.224-3.295-0.224c-0.558,0-1.116,0.011-1.674,0.021
				c-0.588,0.011-1.175,0.021-1.762,0.021C49.569,45.399,48.923,45.39,48.231,45.35z M123.568,50.901
				c1.265,0.175,2.564,0.379,3.865,0.848c0.968,0.348,1.899,0.764,2.805,1.194c0.096-1.55-0.042-3.175-0.184-4.857
				c-0.076-0.896-0.153-1.807-0.199-2.735c-0.176,0.009-0.353,0.015-0.533,0.018c-0.539,0.009-1.077,0.012-1.615,0.012l-2.523-0.007
				c-0.811,0-1.622,0.006-2.432,0.032c-0.437,0.014-0.831,0.041-1.188,0.082C122.502,47.229,123.166,49.023,123.568,50.901z
				 M102.076,42.045c0.322,0.279,0.639,0.57,0.944,0.881c0.625,0.637,1.137,1.302,1.632,1.944c0.137,0.178,0.274,0.356,0.413,0.533
				c0.37-0.056,0.767-0.121,1.164-0.186c1.048-0.171,2.132-0.348,3.267-0.418c0.263-0.017,0.526-0.024,0.791-0.024
				c0.121,0,0.242,0.001,0.362,0.004c-0.42-1.111-0.978-2.211-1.554-3.346c-0.329-0.649-0.664-1.308-0.982-1.987
				c-0.886,0.41-1.776,0.759-2.65,1.103C104.229,41.035,103.089,41.483,102.076,42.045z M69.764,44.643
				c0.912,0,1.777,0.093,2.605,0.283c0.916-1.51,2.066-2.738,3.23-3.771c-1.17-0.537-2.864-1.201-5.311-1.988
				c-0.25,0.627-0.511,1.241-0.768,1.845c-0.536,1.262-1.055,2.485-1.441,3.726C68.633,44.679,69.194,44.643,69.764,44.643z
				 M84.591,34.087c1.72,0.468,3.448,1.13,5.011,2.284c1.682-1.292,3.522-2.136,5.359-2.748c-1.697-1.673-3.405-3.346-5.134-5.041
				c-0.591,0.618-1.192,1.212-1.783,1.796C86.807,31.604,85.611,32.786,84.591,34.087z"/>
			<path fill="#FFFFFF" d="M90.029,7.724c0.788,0,1.572,0.298,2.251,0.891c1.24,1.082,1.465,2.823,0.569,4.397
				c-0.072,0.127-0.137,0.258-0.312,0.588c1.176,1.064,2.371,2.188,3.613,3.257c2.311,1.991,4.72,3.874,6.96,5.941
				c2.63,2.426,4.473,5.344,4.82,9.026c0.017,0.175,0.108,0.344,0.201,0.628c0.647-0.131,1.271-0.258,1.875-0.38
				c0.028-2.094,0.844-3.326,2.313-3.589c0.215-0.038,0.427-0.057,0.633-0.057c1.224,0,2.267,0.657,2.719,1.762
				c0.596,1.456,0.081,2.73-1.63,3.866c0.166,0.398,0.341,0.816,0.549,1.314c3.542-2.788,7.512-3.351,11.603-3.351
				c1.083,0,2.174,0.039,3.268,0.088c1.604,0.071,3.211,0.092,4.818,0.092c0.967,0,1.934-0.008,2.901-0.017
				c0.281-0.003,0.731-0.425,0.807-0.726c0.451-1.791,1.619-2.811,3.35-2.811c0.025,0,0.05,0,0.076,0.001
				c1.591,0.027,2.971,1.186,3.274,2.751c0.299,1.547-0.585,3.156-2.206,3.743c-0.626,0.227-0.694,0.579-0.636,1.071
				c0.331,2.804,0.634,5.613,1.029,8.409c0.557,3.944,1.053,7.888-0.157,11.788c-0.42,1.354-1.09,2.63-1.689,4.044
				c0.212,0.133,0.505,0.318,0.853,0.537c0.671-1.003,1.513-1.532,2.525-1.532c0.317,0,0.652,0.052,1.003,0.158
				c1.365,0.412,2.12,1.691,1.965,3.187c-0.124,1.194-1.172,2.293-2.344,2.44c-0.106,0.013-0.224,0.017-0.345,0.017
				c-0.135,0-0.275-0.004-0.408-0.004c-0.301,0-0.57,0.022-0.684,0.169c-0.397,0.512-0.494,1.255-0.698,1.853
				c1.449,0.404,2.809,0.676,4.089,1.161c3.893,1.475,6.518,4.529,9.183,7.53c1.875,2.11,3.795,4.18,5.657,6.225
				c1.14-0.651,2.105-0.969,2.936-0.969c0.856,0,1.569,0.337,2.186,0.995c1.153,1.23,1.259,2.938,0.27,4.352
				c-0.59,0.843-1.426,1.279-2.52,1.279c-0.734,0-1.585-0.196-2.556-0.596c-1.599,1.952-3.234,3.973-4.897,5.971
				c-1.645,1.977-3.206,4.041-5.002,5.872c-2.579,2.63-5.717,4.344-9.496,4.789c0.099,0.471,0.182,0.858,0.262,1.245
				c0.166,0.798,0.444,1.312,1.365,1.312c0.07,0,0.144-0.003,0.222-0.009c0.058-0.005,0.116-0.007,0.173-0.007
				c1.226,0,2.222,1.026,2.523,2.325c0.267,1.154-0.345,2.464-1.439,3.082c-0.481,0.272-0.989,0.406-1.487,0.406
				c-0.714,0-1.406-0.276-1.964-0.817c-0.207-0.201-0.395-0.422-0.633-0.678c-0.429,0.241-0.835,0.47-1.294,0.728
				c0.12,0.241,0.192,0.445,0.311,0.616c2.273,3.253,3.038,6.91,2.658,10.783c-0.387,3.941-0.973,7.861-1.459,11.792
				c-0.076,0.618-0.061,1.247-0.128,1.866c-0.063,0.574,0.18,0.813,0.716,1.021c1.726,0.669,2.489,2.125,2.122,3.872
				c-0.306,1.458-1.729,2.586-3.286,2.606c-0.015,0-0.03,0-0.046,0c-1.622,0-2.967-1.111-3.333-2.766
				c-0.047-0.211-0.059-0.429-0.121-0.899c-1.104,0-2.21-0.007-3.317-0.007c-0.68,0-1.359,0.003-2.039,0.011
				c-2.481,0.032-4.963,0.142-7.443,0.142c-0.384,0-0.767-0.003-1.151-0.009c-3.629-0.057-6.934-1.13-9.794-3.663
				c-0.194,0.357-0.357,0.656-0.513,0.944c1.476,1.35,1.873,2.488,1.336,3.757c-0.445,1.053-1.602,1.806-2.701,1.806
				c-0.108,0-0.215-0.007-0.32-0.022c-1.379-0.193-2.427-1.234-2.622-2.603c-0.156-1.094-0.156-1.094-1.489-1.253
				c-0.087,3.877-1.68,7.144-4.401,9.791c-2.156,2.097-4.545,3.955-6.825,5.926c-1.44,1.245-2.869,2.503-4.257,3.716
				c1.157,2.504,0.98,4.135-0.46,5.217c-0.654,0.492-1.376,0.737-2.093,0.737c-0.788,0-1.57-0.296-2.25-0.883
				c-1.287-1.112-1.446-2.869-0.294-4.924c-1.844-1.638-3.751-3.295-5.615-4.999c-2.196-2.007-4.479-3.939-6.493-6.118
				c-2.022-2.187-3.283-4.855-3.667-7.872c-0.027-0.209-0.143-0.406-0.254-0.707c-0.558,0.152-1.072,0.323-1.6,0.429
				c-0.861,0.174-1.424,0.426-1.343,1.552c0.089,1.244-0.979,2.301-2.282,2.614c-0.199,0.048-0.402,0.071-0.605,0.071
				c-0.99,0-1.986-0.544-2.521-1.43c-0.648-1.072-0.524-2.421,0.327-3.37c0.219-0.245,0.481-0.451,0.775-0.722
				c-0.264-0.498-0.533-1.007-0.841-1.588c-3.637,3.202-7.836,3.798-12.174,3.798c-0.999,0-2.006-0.032-3.015-0.07
				c-2.57-0.099-5.145-0.08-7.717-0.145c-0.016,0-0.032-0.001-0.048-0.001c-0.621,0-0.833,0.317-0.98,0.88
				c-0.469,1.801-1.596,2.699-3.305,2.699c-0.058,0-0.116-0.001-0.175-0.003c-1.599-0.055-2.862-1.185-3.182-2.846
				c-0.278-1.446,0.589-2.98,2.209-3.657c0.649-0.272,0.694-0.68,0.629-1.21c-0.344-2.802-0.671-5.606-1.058-8.402
				c-0.444-3.21-0.82-6.419-0.289-9.654c0.463-2.824,1.638-5.317,3.529-7.469c0.237-0.269,0.462-0.549,0.713-0.849
				c-0.154-0.145-0.245-0.262-0.363-0.333c-0.184-0.111-0.387-0.191-0.566-0.277c-0.928,1.013-1.75,1.498-2.614,1.498
				c-0.499,0-1.011-0.162-1.566-0.477c-1.016-0.578-1.595-1.981-1.3-3.151c0.379-1.5,1.449-2.19,3.51-2.19
				c0.089,0,0.18,0.001,0.272,0.004c0.124-0.321,0.262-0.676,0.464-1.199c-0.753-0.119-1.386-0.204-2.012-0.321
				c-4.56-0.852-7.865-3.636-10.718-7.061c-2.188-2.627-4.288-5.327-6.432-7.99c-0.413-0.513-0.849-1.009-1.221-1.45
				c-0.935,0.453-1.778,0.673-2.519,0.673c-1.024,0-1.853-0.421-2.463-1.231c-1.119-1.487-1.063-3.019,0.16-4.398
				c0.615-0.693,1.367-1.047,2.253-1.047c0.824,0,1.765,0.306,2.821,0.93c1.091-1.104,2.252-2.217,3.343-3.394
				c1.949-2.105,3.793-4.31,5.794-6.363c2.886-2.962,6.308-4.893,10.601-4.913c0.024-0.121,0.048-0.241,0.072-0.362
				c-0.299-0.064-0.596-0.169-0.897-0.184c-1.179-0.058-2.15-0.473-2.735-1.551c-0.532-0.981-0.529-1.976,0.053-2.935
				c0.551-0.908,1.526-1.394,2.509-1.394c0.674,0,1.353,0.228,1.903,0.705c0.245,0.212,0.439,0.482,0.687,0.759
				c0.381-0.195,0.699-0.358,0.781-0.399c-0.939-2.093-2.056-4.05-2.704-6.151c-1.026-3.329-0.609-6.766-0.159-10.165
				c0.404-3.053,0.8-6.107,1.197-9.162c0.089-0.682-0.076-1.094-0.843-1.381c-1.529-0.573-2.308-2.216-1.98-3.775
				c0.314-1.493,1.696-2.617,3.246-2.641c0.02,0,0.039,0,0.059,0c1.607,0,3.025,1.015,3.305,2.598
				c0.142,0.802,0.471,0.993,1.132,0.993c0.031,0,0.062,0,0.094-0.001c2.646-0.064,5.293-0.065,7.937-0.16
				c1.016-0.037,2.034-0.075,3.049-0.075c1.926,0,3.84,0.139,5.707,0.693c1.807,0.536,3.517,1.396,5.421,2.172
				c0.16-0.28,0.459-0.803,0.787-1.377c-0.231-0.202-0.413-0.363-0.597-0.523c-1.074-0.935-1.359-2.261-0.746-3.48
				c0.483-0.96,1.559-1.602,2.604-1.602c0.142,0,0.283,0.012,0.422,0.036c1.429,0.251,2.513,1.293,2.488,2.664
				c-0.017,0.883,0.334,1.173,1.083,1.3c0.672,0.114,1.337,0.271,2.072,0.423c0.999-5.329,4.351-8.901,8.22-12.149
				c2.364-1.984,4.629-4.087,6.935-6.14c0.375-0.334,0.578-0.625,0.266-1.213c-0.843-1.592-0.453-3.353,0.839-4.34
				C88.592,7.97,89.313,7.724,90.029,7.724 M78.453,33.775c0.389,0,0.672-0.201,0.917-0.691c0.356-0.714,0.884-1.349,1.375-1.99
				c2.523-3.289,6.157-5.598,8.197-9.33c0.168-0.307,0.496-0.452,0.836-0.452c0.41,0,0.838,0.211,1.023,0.606
				c1.189,2.537,3.485,4.026,5.376,5.904c1.662,1.65,3.245,3.379,4.843,5.092c0.188,0.202,0.739,0.301,1.311,0.301
				c0.705,0,1.441-0.151,1.569-0.446c0.077-0.177-0.001-0.426-0.021-0.64c-0.18-1.898-0.936-3.596-2.225-4.935
				c-1.701-1.766-3.551-3.394-5.4-5.009c-2.092-1.828-4.254-3.576-6.355-5.333c-1.377,1.214-2.774,2.405-4.125,3.647
				c-2.538,2.336-5.13,4.621-7.539,7.084c-1.419,1.451-2.253,3.325-2.481,5.549c0.806,0.203,1.517,0.363,2.216,0.564
				C78.148,33.747,78.308,33.775,78.453,33.775 M89.59,39.699c2.626-2.824,6.042-3.872,9.762-4.703
				c-0.321-0.546-0.461-0.95-0.733-1.219c-2.933-2.906-5.886-5.79-8.916-8.761c-2.901,3.593-6.867,6.219-9.049,10.707
				C84.021,36.425,87.24,36.977,89.59,39.699 M104.559,47.939c0.076,0,0.149-0.004,0.216-0.013c1.628-0.204,3.243-0.568,4.875-0.669
				c0.212-0.013,0.424-0.019,0.638-0.019c1.124,0,2.274,0.159,3.513,0.233c-0.353-4.282-3.143-7.542-4.45-11.514
				c-3.629,2.44-8.177,2.783-11.236,6.046c1.143,0.947,2.232,1.713,3.148,2.647c0.919,0.937,1.639,2.067,2.513,3.053
				C103.924,47.872,104.262,47.939,104.559,47.939 M117.723,41.453c0.722-0.205,1.446-0.548,2.189-0.596
				c2.889-0.19,5.788-0.227,8.675-0.44c1.592-0.117,3.184-0.39,4.742-0.74c0.227-0.051,0.435-0.076,0.622-0.076
				c0.915,0,1.344,0.602,1.162,1.755c-0.176,1.116-0.322,2.255-0.307,3.381c0.053,3.977,0.959,7.957-0.194,11.906
				c0.692,0.397,1.323,0.702,1.891,1.098c0.272,0.19,0.496,0.278,0.69,0.278c0.337,0,0.582-0.268,0.834-0.738
				c1.186-2.215,1.564-4.603,1.339-7.039c-0.307-3.316-0.83-6.612-1.246-9.919c-0.167-1.331-0.296-2.666-0.468-4.238
				c-2.549,0-5.079-0.046-7.596-0.046c-1.825,0-3.645,0.024-5.461,0.109c-1.965,0.091-4.002,0.606-5.823,1.368
				C116.275,38.56,116.259,39.085,117.723,41.453 M42.669,36.347c-0.681,0-1.359-0.009-2.029-0.009
				c-0.236,1.87-0.444,3.649-0.689,5.422c-0.511,3.701-1.316,7.375-0.971,11.152c0.224,2.452,1.093,4.611,2.898,6.506
				c0.559-0.376,1.028-0.733,1.536-1.021c0.542-0.308,0.657-0.656,0.443-1.263c-0.835-2.366-0.819-4.812-0.677-7.286
				c0.168-2.915,0.718-5.833-0.048-8.76c-0.251-0.959,0.314-1.512,1.203-1.512c0.165,0,0.341,0.019,0.525,0.058
				c1.635,0.347,3.292,0.666,4.955,0.788c3.458,0.254,6.969-0.2,10.398,0.853c0.158-0.294,0.304-0.544,0.428-0.804
				c0.883-1.847,0.839-1.958-1.014-2.958c-2.037-1.099-4.258-1.411-6.512-1.411c-0.029,0-0.057,0-0.086,0
				c-3.047,0.011-6.094,0.159-9.141,0.231C43.481,36.344,43.075,36.347,42.669,36.347 M65.003,47.741
				c1.62-0.303,3.192-0.637,4.76-0.637c1.279,0,2.555,0.221,3.854,0.861c1.199-3.207,3.686-5.149,6.222-7.03
				c-1.378-1.448-5.074-3.037-11.073-4.816C67.588,39.95,65.28,43.418,65.003,47.741 M46.489,57.795
				c3.387-2.727,6.985-3.979,11.09-3.979c0.162,0,0.324,0.002,0.487,0.006c-1.128-3.693,0.707-6.62,2.365-9.719
				c-2.248-1.037-4.55-1.209-6.86-1.209c-1.145,0-2.293,0.042-3.436,0.042c-1.41,0-2.814-0.064-4.202-0.351
				c-0.102,1.821-0.227,3.392-0.268,4.966c-0.057,2.198-0.147,4.403-0.032,6.595C45.693,55.307,46.158,56.447,46.489,57.795
				 M132.303,42.671c-1.132,0.092-2.075,0.219-3.021,0.235c-0.529,0.009-1.058,0.011-1.587,0.011c-0.836,0-1.672-0.007-2.508-0.007
				c-0.838,0-1.676,0.007-2.513,0.033c-1.678,0.053-3.345,0.281-4.839,1.244c1.836,2.522,3.046,5.234,3.515,8.253
				c0.092,0.591,0.409,0.696,0.964,0.774c1.443,0.202,2.929,0.363,4.285,0.851c1.844,0.664,3.584,1.616,5.46,2.488
				C133.553,52.05,132.066,47.427,132.303,42.671 M71.994,55.095c-0.484,0-0.946-0.207-1.43-0.708
				c-0.268-0.277-0.681-0.435-1.052-0.589c-1.148-0.477-2.251-0.695-3.312-0.695c-2.239,0-4.296,0.97-6.216,2.516
				c-3.888,3.13-5.679,9.982-1.891,14.306c0.194,0.222,0.195,0.752,0.09,1.074c-0.512,1.566-1.14,3.095-1.627,4.668
				c-0.243,0.785-0.661,1.121-1.455,1.195c-1.971,0.183-3.536,1.161-4.812,2.627c-2.257,2.592-2.903,5.674-2.441,8.969
				c0.59,4.208,3.564,8.28,8.344,8.678c0.286,0.024,0.677,0.305,0.797,0.569c0.869,1.895,1.68,3.817,2.499,5.705
				c-3.83,4.202-3.941,6.485-0.668,13.384c-0.973,0.346-1.946,0.502-2.912,0.502c-1.166,0-2.322-0.227-3.453-0.62
				c-2.059-0.715-4.037-1.659-6.33-2.62c-0.449,1.132-1.269,2.317-1.336,3.543c-0.173,3.175-0.023,6.369,0.016,9.555
				c0.012,0.98,0.081,1.958,0.111,2.631c1.929,0,3.827,0.027,5.711,0.027c1.4,0,2.792-0.015,4.183-0.066
				c1.327-0.049,2.648-0.497,3.953-0.834c0.827-0.214,1.087-0.706,0.821-1.638c-0.912-3.198-0.858-6.427-0.092-9.792
				c0.481,0.372,0.857,0.65,1.22,0.945c1.817,1.472,4.115,2.289,6.36,2.289c2.345,0,4.634-0.89,6.264-2.854
				c0.119-0.143,0.421-0.215,0.705-0.215c0.15,0,0.296,0.02,0.406,0.06c1.307,0.474,2.604,0.995,3.85,1.609
				c0.365,0.18,0.792,0.732,0.78,1.101c-0.128,4.086,3.351,7.994,7.894,8.734c0.743,0.121,1.492,0.204,2.482,0.337
				c-0.597,0.887-1.037,1.686-1.615,2.37c-1.743,2.066-4.092,3.067-6.683,3.521c-0.889,0.156-1.077,0.498-0.691,1.241
				c0.554,1.068,0.95,2.284,1.727,3.158c2.364,2.66,4.879,5.186,7.273,7.698c1.628-1.494,3.273-2.95,4.854-4.472
				c1.426-1.373,2.84-2.768,4.142-4.255c0.528-0.604,0.746-1.479,1.144-2.314c-1.039-0.157-1.772-0.221-2.483-0.383
				c-3.227-0.736-6.003-2.025-6.897-5.642c-0.183-0.742-0.164-1.141,0.739-1.289c3.664-0.601,7.793-3.781,7.77-8.835
				c-0.001-0.312,0.368-0.767,0.679-0.914c1.324-0.625,2.708-1.125,4.036-1.742c0.203-0.094,0.375-0.14,0.53-0.14
				c0.293,0,0.522,0.164,0.777,0.466c1.124,1.329,2.526,2.258,4.257,2.569c0.667,0.12,1.314,0.178,1.941,0.178
				c2.898,0,5.381-1.244,7.538-3.42c0.297-0.3,0.579-0.616,0.952-1.015c1.935,4.489,0.311,8.387-1.562,12.353
				c2.295,1.021,4.637,1.188,6.99,1.188c1.136,0,2.275-0.039,3.413-0.039c1.383,0,2.763,0.057,4.134,0.311
				c0-1.106-0.025-2.053,0.005-2.999c0.084-2.717,0.293-5.435,0.242-8.149c-0.024-1.271-0.532-2.532-0.853-3.941
				c-2.572,0.898-5.037,1.362-7.508,1.362c-1.512,0-3.025-0.174-4.568-0.528c0.206-0.408,0.352-0.696,0.498-0.985
				c1.865-3.695,1.709-8.256-1.454-11.074c-0.213-0.19-0.246-0.799-0.12-1.118c0.634-1.602,1.365-3.164,2.025-4.756
				c0.222-0.536,0.498-0.784,1.127-0.804c1.701-0.056,3.244-0.627,4.535-1.759c3.452-3.028,4.39-6.92,3.39-11.208
				c-0.918-3.935-3.288-6.672-7.521-7.405c-0.323-0.056-0.708-0.447-0.84-0.773c-0.424-1.046-0.644-2.182-1.127-3.196
				c-0.561-1.176-0.815-2.166,0.509-2.977c0.206-0.126,0.335-0.386,0.485-0.595c2.229-3.111,2.104-7.511-0.256-11.076
				c-2.013-3.041-5.435-4.856-8.704-4.856c-1.979,0-3.902,0.665-5.423,2.126c-0.085,0.082-0.252,0.116-0.431,0.116
				c-0.187,0-0.387-0.038-0.525-0.1c-2.174-0.977-4.339-1.974-6.474-3.033c-0.334-0.166-0.643-0.647-0.714-1.03
				c-0.296-1.58-0.783-3.061-1.823-4.315c-2.145-2.589-4.881-3.708-8.094-3.708c-0.299,0-0.602,0.01-0.91,0.029
				c-4.485,0.279-8.103,3.6-8.777,8.037c-0.06,0.394-0.487,0.869-0.866,1.054c-1.548,0.755-3.212,1.292-4.699,2.144
				C72.976,54.891,72.474,55.095,71.994,55.095 M132.824,76.242c3.238-3.075,3.648-7.672,5.641-11.431
				c-2.74-1.171-5.363-2.37-8.049-3.403c-1.221-0.47-2.569-0.609-3.704-0.864c-0.941,3.661-1.8,7.007-2.615,10.179
				C126.929,72.515,129.827,74.347,132.824,76.242 M44.773,76.913c1.795-3.294,4.444-5.501,7.925-6.907
				c-2.125-2.596-1.607-5.578-1.392-8.618c-0.153-0.007-0.305-0.01-0.455-0.01c-4.386,0-7.741,2.834-11.79,3.581
				c0.315,0.839,0.564,1.487,0.801,2.14c0.789,2.17,1.513,4.366,2.381,6.504C42.761,74.875,43.474,76.079,44.773,76.913
				 M35.467,71.393c-0.042,0-0.086,0-0.13-0.001c-0.027,0-0.054,0-0.081,0c-2.416,0-4.489,1.037-6.128,2.69
				c-3.435,3.461-6.723,7.068-10.076,10.62c0.743,0.858,1.51,1.697,2.227,2.577c2.136,2.618,4.191,5.306,6.398,7.864
				c1.828,2.118,4.04,3.854,6.875,4.303c1.111,0.176,1.743,0.336,2.14,0.336c0.704,0,0.671-0.502,1.27-2.306
				c0.011-0.032-0.006-0.072-0.011-0.109c-0.06,0.083-0.12,0.166-0.179,0.249c-1.813-1.273-3.688-2.467-5.416-3.846
				c-1.111-0.886-1.965-2.085-3.008-3.065c-1.65-1.55-3.334-3.069-5.061-4.534c-0.92-0.781-0.874-1.615,0.131-2.289
				c1.329-0.891,2.633-1.837,3.851-2.873c0.975-0.83,1.823-1.813,2.698-2.756c1.887-2.032,3.885-3.908,6.611-4.85
				c-0.448-1.822-0.398-2.028-1.18-2.028C36.169,71.375,35.87,71.393,35.467,71.393 M142.436,99.723
				c0.319,0,0.715-0.053,0.993-0.111c3.15-0.647,5.489-2.591,7.471-4.964c2.683-3.211,5.255-6.516,7.885-9.793
				c-0.514-0.546-1.073-1.127-1.617-1.721c-2.457-2.682-4.849-5.427-7.387-8.031c-1.73-1.775-3.761-3.141-6.335-3.514
				c-0.175-0.025-0.337-0.039-0.487-0.039c-0.836,0-1.27,0.412-1.314,1.388c-0.019,0.412-0.049,1.087,0.166,1.205
				c2.871,1.576,4.925,4.045,7.128,6.356c1.318,1.383,2.629,2.758,4.433,3.563c1.298,0.579,1.264,1.533,0.102,2.39
				c-1.145,0.844-2.258,1.747-3.29,2.725c-1.065,1.01-2.003,2.151-3.017,3.216c-1.625,1.708-3.301,3.356-5.466,4.397
				c-0.185,0.089-0.483,0.301-0.462,0.402c0.166,0.817,0.289,1.678,0.67,2.395C141.962,99.687,142.173,99.723,142.436,99.723
				 M39.493,95.119c0.479,0,0.774-0.243,1.046-0.831c1.495-3.23,2.929-6.53,6.281-8.296c-1.128-1.01-2.425-1.794-3.186-2.936
				c-1.374-2.061-2.493-4.305-3.584-6.538c-0.292-0.598-0.6-0.937-1.031-0.937c-0.185,0-0.392,0.062-0.63,0.193
				c-1.335,0.733-2.808,1.359-3.889,2.383c-2.421,2.292-4.637,4.801-6.974,7.262c2.194,2.261,4.565,4.77,7.014,7.2
				c1.239,1.23,2.751,2.058,4.491,2.441C39.204,95.099,39.356,95.119,39.493,95.119 M139.585,95.085
				c4.78-1.791,7.153-6.557,10.75-9.455c-2.024-2.151-3.92-4.304-5.972-6.295c-1.197-1.16-2.635-2.074-3.984-3.073
				c-0.178-0.132-0.344-0.197-0.498-0.197c-0.248,0-0.467,0.169-0.659,0.503c-1.878,3.258-4.095,6.265-6.587,8.743
				C134.989,88.622,137.254,91.807,139.585,95.085 M49.645,110.038c0.18,0,0.361-0.006,0.543-0.02
				c1.735-0.129,1.892-0.227,1.912-1.951c0.035-2.911,0.435-5.702,2.342-8.288c-4.2-0.415-6.729-3.275-9.42-5.852
				c-1.681,0.742-2.609,2.114-3.273,3.644c-1.194,2.749-2.286,5.543-3.404,8.277c2.065,0.941,4.185,1.937,6.332,2.874
				C46.266,109.416,47.887,110.038,49.645,110.038 M126.67,110.795c4.457,0,7.895-2.822,12.028-3.672
				c-1.187-3.138-2.268-6.202-3.522-9.193c-0.432-1.032-1.294-1.885-2.018-2.901c-2.891,2.713-6.153,4.096-9.871,4.884
				c3.284,3.037,3.396,6.867,3.123,10.88C126.497,110.794,126.584,110.795,126.67,110.795 M39.574,136.36
				c0.809,0,1.587-0.002,2.355-0.002c0.454,0,0.903,0.001,1.353,0.003c2.555,0.012,5.111,0.074,7.665,0.074
				c1.189,0,2.377-0.013,3.565-0.051c2.241-0.072,4.307-0.909,5.918-2.577c0.201-0.208,0.362-0.654,0.278-0.899
				c-0.209-0.61-0.57-1.167-0.803-1.617c-1.589,0.292-3.042,0.696-4.517,0.798c-2.381,0.164-4.781,0.057-7.164,0.206
				c-1.409,0.088-2.823,0.363-4.195,0.71c-0.286,0.072-0.537,0.109-0.756,0.109c-0.841,0-1.195-0.541-1.133-1.662
				c0.123-2.225,0.085-4.459,0.125-6.689c0.047-2.6-0.009-5.209,0.208-7.795c0.1-1.187,0.744-2.327,1.16-3.543
				c-0.561-0.374-1.134-0.757-1.717-1.145c-2.606,2.144-3.847,4.9-4.03,8.178c-0.217,3.889,0.701,7.66,1.195,11.475
				C39.274,133.41,39.412,134.893,39.574,136.36 M134.19,133.121c-0.144,0-0.294-0.028-0.443-0.089
				c-2.091-0.855-4.249-0.915-6.415-0.915c-0.356,0-0.712,0.002-1.068,0.002c-0.517,0-1.035-0.003-1.551-0.02
				c-1.717-0.056-3.451-0.141-5.137-0.437c-0.686-0.12-1.14-0.212-1.479-0.212c-0.673,0-0.894,0.361-1.574,1.572
				c-0.032,0.058-0.021,0.141-0.035,0.256c1.768,2.167,4.227,3.031,6.887,3.104c1.954,0.054,3.909,0.07,5.864,0.07
				c2.809,0,5.617-0.033,8.425-0.033c0.312-2.343,0.619-4.591,0.909-6.84c0.434-3.376,1.222-6.724,0.764-10.169
				c-0.281-2.113-0.967-4.035-2.44-5.69c-0.863,0.467-1.661,0.898-2.256,1.22c0.211,2.079,0.533,3.995,0.574,5.918
				c0.077,3.653-0.886,7.299-0.006,10.971C135.376,132.54,134.844,133.121,134.19,133.121 M109.615,135.698
				c1.283-2.73,2.537-5.333,3.728-7.964c0.622-1.375,1.068-2.812,0.733-4.425c-1.518,0.398-3.009,0.706-4.406,0.706
				c-2.471,0-4.649-0.961-6.164-4.079c0.365,4.422-2.056,7.07-5.428,9.2C101.152,133.034,105.93,133.418,109.615,135.698
				 M67.547,123.176c-1.084,0-2.175-0.113-3.26-0.262c-0.126-0.017-0.241-0.028-0.345-0.028c-0.386,0-0.617,0.146-0.667,0.638
				c-0.066,0.65-0.175,1.313-0.11,1.955c0.41,4.067,3.109,7.209,4.318,10.925c2.994-1.317,5.892-2.538,8.736-3.871
				c1.182-0.554,2.251-1.349,2.748-2.438c-0.898-1.584-1.844-2.96-2.485-4.464c-0.655-1.536-1.013-3.2-1.48-4.74
				c-1.231,0.574-2.443,1.267-3.74,1.714C70.044,123.025,68.799,123.176,67.547,123.176 M89.707,155.681
				c2.901-2.393,5.817-4.742,8.668-7.166c2.455-2.088,4.703-4.343,5.264-7.746c0.351-2.132,0.247-2.314-1.868-2.553
				c-0.004,0-0.009-0.001-0.013-0.001c-0.061,0-0.128,0.045-0.191,0.067c0.078,0.068,0.157,0.136,0.235,0.205
				c-1.374,1.601-2.672,3.276-4.14,4.786c-2.362,2.431-5.451,4.144-7.058,7.333c-0.195,0.388-0.542,0.562-0.916,0.562
				c-0.424,0-0.884-0.224-1.201-0.616c-1.352-1.677-2.68-3.378-4.123-4.974c-2.16-2.389-4.696-4.467-5.979-7.555
				c-0.07-0.17-0.404-0.358-0.608-0.358c-0.02,0-0.04,0.002-0.057,0.006c-0.774,0.176-1.526,0.448-2.283,0.683
				c0.067,2.414,0.816,4.525,2.303,6.261c1.45,1.693,3.062,3.262,4.713,4.765C84.857,151.568,87.359,153.65,89.707,155.681
				 M90.029,2.799c-1.819,0-3.573,0.606-5.075,1.753c-2.321,1.773-3.449,4.58-3.167,7.382c-0.094,0.085-0.188,0.17-0.282,0.255
				c-1.629,1.469-3.168,2.856-4.767,4.198c-2.495,2.094-5.087,4.558-7.045,7.711c-0.835-0.494-1.779-0.848-2.8-1.027
				c-0.417-0.073-0.845-0.11-1.273-0.11c-2.937,0-5.686,1.693-7.004,4.314c-0.067,0.133-0.13,0.267-0.188,0.401
				c-1.762-0.411-3.658-0.598-5.984-0.598c-1.058,0-2.092,0.037-3.091,0.073l-0.135,0.005c-1.526,0.055-3.107,0.078-4.635,0.1
				c-0.261,0.004-0.523,0.008-0.784,0.012c-1.495-2.162-4.032-3.545-6.872-3.545l-0.138,0.001c-3.84,0.059-7.201,2.814-7.987,6.552
				c-0.625,2.974,0.374,5.908,2.463,7.81c-0.298,2.292-0.597,4.584-0.9,6.875c-0.455,3.446-1.021,7.724,0.291,12.115
				c-1.065,0.643-1.977,1.536-2.636,2.621c-0.939,1.548-1.309,3.261-1.106,4.953c-1.866,1.028-3.637,2.399-5.305,4.111
				c-1.281,1.314-2.484,2.668-3.648,3.976c-0.766,0.861-1.489,1.674-2.233,2.478c-0.32,0.346-0.649,0.687-0.986,1.031
				c-0.527-0.097-1.048-0.146-1.564-0.146c-2.281,0-4.39,0.96-5.936,2.703c-2.765,3.115-2.927,7.287-0.412,10.628
				c1.55,2.06,3.823,3.195,6.398,3.195c0.241,0,0.484-0.01,0.729-0.03c0.43,0.538,0.859,1.077,1.288,1.617
				c1.414,1.776,2.875,3.613,4.37,5.408c1.717,2.061,4.133,4.628,7.468,6.509c-0.717,3.012,0.496,6.256,2.934,8.062
				c-0.365,1.063-0.641,2.165-0.828,3.306c-0.635,3.872-0.234,7.472,0.271,11.125c0.278,2.008,0.53,4.07,0.774,6.076
				c-2.053,1.896-3.048,4.66-2.511,7.45c0.749,3.892,3.976,6.704,7.847,6.838c0.117,0.004,0.232,0.006,0.345,0.006
				c2.884,0,5.311-1.302,6.81-3.535c0.225,0.003,0.45,0.005,0.675,0.008c1.512,0.018,2.941,0.034,4.377,0.089
				c0.953,0.037,2.08,0.074,3.203,0.074c2.259,0,4.847-0.142,7.502-0.84c0.062,0.115,0.127,0.23,0.196,0.343
				c1.419,2.349,4,3.809,6.736,3.809c0.593,0,1.184-0.07,1.755-0.207c0.693-0.166,1.345-0.413,1.946-0.727
				c0.687,1.162,1.501,2.256,2.434,3.265c1.688,1.826,3.49,3.443,5.232,5.006c0.52,0.467,1.04,0.933,1.555,1.403
				c1.101,1.007,2.217,1.997,3.309,2.961c-0.303,2.705,0.622,5.254,2.703,7.052c1.554,1.343,3.496,2.082,5.47,2.082
				c1.805,0,3.552-0.597,5.053-1.726c1.262-0.949,3.642-3.332,3.098-7.508c0.623-0.545,1.25-1.092,1.88-1.636
				c0.711-0.614,1.432-1.217,2.154-1.82c1.616-1.35,3.286-2.747,4.884-4.3c1.482-1.442,2.697-3.029,3.63-4.731
				c0.25,0.059,0.505,0.107,0.764,0.144c0.33,0.046,0.668,0.07,1.004,0.07c2.615,0,5.086-1.366,6.531-3.51
				c1.602,0.415,3.293,0.638,5.065,0.665c0.41,0.006,0.819,0.009,1.228,0.009c1.511,0,3.016-0.039,4.471-0.077
				c1.012-0.026,2.023-0.053,3.035-0.065c0.622-0.008,1.243-0.011,1.865-0.011c1.515,2.255,4.047,3.673,6.882,3.673h0.03
				l0.076-0.001c3.881-0.05,7.263-2.791,8.045-6.519c0.649-3.093-0.348-6.003-2.548-7.915c0.133-1.054,0.273-2.107,0.412-3.16
				c0.345-2.608,0.702-5.305,0.967-8.007c0.243-2.472,0.11-4.829-0.396-7.057c0.109-0.055,0.218-0.113,0.325-0.174
				c3.008-1.699,4.577-5.186,3.815-8.479c-0.137-0.594-0.333-1.158-0.58-1.686c1.509-0.925,2.927-2.062,4.249-3.411
				c1.482-1.511,2.768-3.097,4.012-4.63c0.418-0.516,0.836-1.031,1.26-1.541c1.004-1.207,1.998-2.422,2.98-3.625
				c0.23,0.017,0.459,0.025,0.686,0.025c2.702,0,5.03-1.2,6.555-3.38c2.308-3.299,2.015-7.634-0.712-10.544
				c-1.565-1.669-3.563-2.551-5.779-2.551c-0.504,0-1.012,0.046-1.526,0.138c-1.125-1.229-2.274-2.488-3.385-3.739l-0.253-0.285
				c-2.171-2.447-4.567-5.147-7.825-7.101c0.257-0.635,0.429-1.307,0.5-2.001c0.354-3.417-1.354-6.516-4.245-7.939
				c0.748-4.184,0.188-8.147-0.277-11.439c-0.274-1.938-0.509-3.94-0.735-5.889c2.051-1.886,3.06-4.715,2.505-7.581
				c-0.743-3.839-4.118-6.673-8.026-6.74l-0.159-0.001c-2.889,0-5.317,1.308-6.824,3.554c-0.078,0-0.156,0-0.234,0
				c-1.785,0-3.247-0.028-4.601-0.087c-1.09-0.048-2.267-0.092-3.484-0.092c-1.891,0-4.035,0.101-6.273,0.565
				c-1.336-2.547-3.996-4.156-6.967-4.156c-0.498,0-1.003,0.045-1.5,0.134c-0.36,0.064-0.724,0.156-1.085,0.277
				c-1.01-1.676-2.317-3.257-3.917-4.734c-1.511-1.394-3.07-2.69-4.578-3.944c-0.84-0.698-1.68-1.397-2.508-2.109
				c-0.372-0.32-0.747-0.653-1.12-0.989c0.338-2.689-0.614-5.389-2.725-7.232C93.964,3.547,92.014,2.799,90.029,2.799L90.029,2.799z
				 M88.855,33.046c0.299-0.3,0.606-0.604,0.92-0.915c0.025-0.025,0.051-0.05,0.076-0.075c0.252,0.247,0.505,0.495,0.756,0.742
				c-0.356,0.191-0.71,0.395-1.06,0.613C89.318,33.281,89.087,33.16,88.855,33.046L88.855,33.046z M50.583,47.859
				c0.453-0.004,0.906-0.012,1.36-0.02c0.467-0.009,0.933-0.017,1.4-0.02c-0.142,0.492-0.262,0.998-0.353,1.52
				c-0.838,0.17-1.658,0.389-2.463,0.656c0.011-0.458,0.024-0.922,0.037-1.393L50.583,47.859L50.583,47.859z M125.546,48.719
				c-0.088-0.296-0.183-0.59-0.283-0.883l1.158,0.003c0.38,0.002,0.761,0.003,1.141,0.003c0.013,0.151,0.025,0.301,0.038,0.45
				c0.027,0.319,0.054,0.633,0.078,0.942C126.952,49.008,126.238,48.846,125.546,48.719L125.546,48.719z M71.994,60.02
				c1.735,0,3.111-0.673,3.996-1.18c0.616-0.353,1.397-0.679,2.223-1.024c0.703-0.294,1.43-0.598,2.189-0.968
				c1.874-0.914,3.277-2.775,3.576-4.74c0.325-2.139,2.058-3.727,4.214-3.861c0.204-0.013,0.405-0.019,0.604-0.019
				c1.897,0,3.184,0.576,4.302,1.925c0.344,0.415,0.583,1.057,0.774,2.08c0.364,1.948,1.654,3.686,3.367,4.536
				c2.409,1.195,4.815,2.291,6.643,3.113c0.98,0.44,1.925,0.533,2.545,0.533c1.478,0,2.843-0.529,3.843-1.49
				c0.527-0.506,1.185-0.753,2.011-0.753c1.701,0,3.549,1.065,4.598,2.649c1.2,1.814,1.369,3.952,0.438,5.375
				c-1.538,1.272-3.715,4.06-1.514,8.675c0.119,0.249,0.251,0.678,0.392,1.132c0.166,0.536,0.353,1.143,0.616,1.792
				c0.6,1.482,2.156,3.36,4.564,3.777c1.695,0.293,2.95,1.03,3.566,3.671c0.639,2.74,0.071,4.709-1.841,6.387
				c-0.403,0.353-0.85,0.52-1.449,0.539c-2.527,0.083-4.537,1.483-5.515,3.84c-0.268,0.645-0.547,1.285-0.827,1.925
				c-0.408,0.934-0.83,1.901-1.228,2.905c-0.752,1.902-0.628,4.78,1.423,6.608c1.404,1.251,1.179,3.501,0.333,5.177l-0.302,0.598
				l-0.022,0.044l-0.034,0.037c-0.173,0.187-0.325,0.354-0.484,0.514c-1.743,1.759-3.14,1.962-4.04,1.962
				c-0.339,0-0.699-0.034-1.071-0.101c-0.332-0.06-0.787-0.216-1.367-0.902c-1.545-1.828-3.321-2.211-4.538-2.211
				c-0.874,0-1.75,0.201-2.605,0.598c-0.546,0.254-1.135,0.497-1.759,0.755c-0.743,0.307-1.511,0.625-2.304,0.999
				c-1.695,0.8-3.514,2.828-3.502,5.39c0.013,2.736-2.694,3.797-3.643,3.953c-0.345,0.057-0.666,0.133-0.964,0.226
				c-0.015-0.002-0.03-0.004-0.046-0.006c-0.507-0.065-0.95-0.121-1.391-0.192c-2.276-0.371-3.81-2.258-3.764-3.719
				c0.083-2.663-1.769-4.807-3.526-5.673c-1.282-0.632-2.664-1.211-4.348-1.821c-0.649-0.236-1.352-0.355-2.086-0.355
				c-1.804,0-3.442,0.727-4.495,1.995c-0.592,0.713-1.424,1.075-2.474,1.075c-1.138,0-2.326-0.434-3.26-1.191
				c-0.277-0.224-0.559-0.441-0.88-0.686l-0.039-0.03c-2.13-4.562-1.858-4.86,0.235-7.156l2.146-2.354l-1.267-2.923l-0.585-1.355
				c-0.625-1.451-1.271-2.951-1.955-4.442c-0.86-1.877-2.816-3.254-4.865-3.424c-2.597-0.216-3.658-2.902-3.876-4.454
				c-0.388-2.766,0.544-4.208,1.279-5.052c0.769-0.884,1.299-0.933,1.554-0.957c2.791-0.26,4.87-1.951,5.703-4.641
				c0.232-0.748,0.512-1.519,0.81-2.335c0.264-0.725,0.537-1.475,0.794-2.259c0.509-1.557,0.536-4.023-1.066-5.852
				c-0.671-0.766-0.958-1.777-0.851-3.003c0.14-1.613,0.995-3.309,2.127-4.221c1.193-0.96,2.216-1.427,3.128-1.427
				c0.425,0,0.872,0.096,1.363,0.294C69.17,59.711,70.832,60.02,71.994,60.02L71.994,60.02z M129.759,68.478l0.473-1.842
				c0.615,0.252,1.232,0.513,1.857,0.781c-0.002,0.006-0.004,0.011-0.006,0.016c-0.252,0.718-0.493,1.404-0.746,2.042
				L129.759,68.478L129.759,68.478z M45.411,68.001c0.163-0.07,0.325-0.14,0.484-0.209c0.163-0.071,0.325-0.14,0.484-0.209
				c0.014,0.083,0.029,0.166,0.045,0.249c-0.289,0.204-0.572,0.414-0.849,0.631C45.52,68.31,45.465,68.156,45.411,68.001
				L45.411,68.001z M34.319,85.367c1.033-1.103,2.046-2.162,3.087-3.171c0.655,1.223,1.352,2.423,2.132,3.593
				c0.018,0.027,0.036,0.054,0.054,0.08c-0.73,0.96-1.341,1.964-1.877,2.961C36.567,87.684,35.432,86.519,34.319,85.367
				L34.319,85.367z M138.936,85.674c0.71-0.869,1.4-1.782,2.068-2.736c0.842,0.82,1.664,1.677,2.497,2.568
				c-0.159,0.179-0.316,0.357-0.472,0.535c-0.749,0.85-1.455,1.651-2.164,2.345L138.936,85.674L138.936,85.674z M44.678,103.332
				c0.299-0.735,0.602-1.472,0.909-2.204c0.68,0.538,1.408,1.054,2.197,1.519c-0.158,0.641-0.276,1.272-0.364,1.888
				c-0.244-0.098-0.501-0.208-0.773-0.326C45.993,103.923,45.334,103.629,44.678,103.332L44.678,103.332z M130.659,102.637
				c0.311-0.148,0.618-0.303,0.919-0.463c0.249,0.641,0.497,1.292,0.745,1.953c-0.145,0.062-0.289,0.124-0.431,0.186
				c-0.253,0.109-0.502,0.217-0.747,0.321C131.027,103.978,130.869,103.31,130.659,102.637L130.659,102.637z M49.69,124.885
				c-0.002-0.095-0.004-0.19-0.006-0.286c-0.027-1.271-0.053-2.504-0.052-3.713c0.397,0.153,0.798,0.301,1.208,0.443
				c1.051,0.365,2.102,0.619,3.143,0.76c-0.012,0.93,0.031,1.847,0.128,2.752c-1.021,0.031-2.143,0.045-3.484,0.045
				C50.315,124.887,50.002,124.886,49.69,124.885L49.69,124.885z M125.223,121.264c0.834-0.031,1.669-0.103,2.509-0.218
				c-0.024,1.03-0.072,2.08-0.122,3.168c-0.01,0.213-0.02,0.425-0.029,0.638c-0.363,0.004-0.726,0.01-1.089,0.016
				c-0.541,0.009-1.082,0.019-1.622,0.019c-0.08,0-0.16,0-0.239-0.001C124.936,123.746,125.155,122.535,125.223,121.264
				L125.223,121.264z M69.029,128.044c1.02-0.08,1.986-0.245,2.915-0.499c0.003,0.006,0.005,0.012,0.007,0.018
				c0.184,0.432,0.381,0.845,0.586,1.243c-0.843,0.382-1.695,0.758-2.563,1.138C69.634,129.281,69.311,128.651,69.029,128.044
				L69.029,128.044z M105.937,128.654c0.052-0.072,0.105-0.145,0.156-0.219c0.438,0.132,0.889,0.239,1.353,0.319
				c-0.066,0.141-0.133,0.282-0.199,0.424c-0.024-0.009-0.048-0.019-0.072-0.028C106.736,128.977,106.324,128.813,105.937,128.654
				L105.937,128.654z M87.548,138.344c0.474-0.261,0.928-0.543,1.363-0.848c0.746,0.671,1.54,1.209,2.325,1.641
				c-0.109,0.106-0.22,0.212-0.332,0.32c-0.401,0.386-0.805,0.766-1.215,1.147C88.973,139.858,88.254,139.103,87.548,138.344
				L87.548,138.344z"/>
		</g>
		<g>
			<linearGradient id="SVGID_2_" gradientUnits="userSpaceOnUse" x1="51.8465" y1="213.0458" x2="51.8465" y2="-78.9278">
				<stop  offset="0" style="stop-color:#DF3729"/>
				<stop  offset="0.1652" style="stop-color:#E1492B"/>
				<stop  offset="0.4966" style="stop-color:#E67531"/>
				<stop  offset="0.96" style="stop-color:#EFB037"/>
				<stop  offset="1" style="stop-color:#EFB538"/>
			</linearGradient>
			<path fill="url(#SVGID_2_)" d="M51.841,128.607c-1.484,0-2.876-0.588-3.92-1.657c-1.045-1.069-1.602-2.477-1.568-3.963
				c0.069-2.961,2.529-5.37,5.485-5.37c3.04,0.048,5.521,2.58,5.503,5.53c-0.018,3-2.477,5.45-5.48,5.46H51.841z"/>
			<path fill="#FFFFFF" d="M51.839,120.08c0.016,0,0.031,0,0.047,0c1.628,0.026,3.003,1.429,2.994,3.052
				c-0.01,1.636-1.387,3.007-3.027,3.013c-0.004,0-0.008,0-0.011,0c-1.687,0-3.065-1.411-3.026-3.101
				C48.853,121.421,50.226,120.08,51.839,120.08 M51.839,115.155L51.839,115.155c-4.283,0-7.848,3.488-7.947,7.775
				c-0.049,2.124,0.777,4.216,2.268,5.742c1.489,1.524,3.56,2.398,5.681,2.398c4.378-0.016,7.937-3.563,7.963-7.908
				c0.026-4.345-3.49-7.937-7.84-8.007l-0.039-0.001L51.839,115.155L51.839,115.155z"/>
		</g>
		<g>
			<linearGradient id="SVGID_3_" gradientUnits="userSpaceOnUse" x1="89.5865" y1="201.141" x2="89.5865" y2="-94.2974">
				<stop  offset="0" style="stop-color:#DF3729"/>
				<stop  offset="0.1652" style="stop-color:#E1492B"/>
				<stop  offset="0.4966" style="stop-color:#E67531"/>
				<stop  offset="0.96" style="stop-color:#EFB037"/>
				<stop  offset="1" style="stop-color:#EFB538"/>
			</linearGradient>
			<path fill="url(#SVGID_3_)" d="M89.488,144.095c-2.995-0.018-5.363-2.373-5.391-5.362c-0.014-1.47,0.533-2.839,1.541-3.857
				c1.032-1.042,2.444-1.616,3.977-1.616c3.061,0.036,5.428,2.389,5.461,5.357c0.016,1.458-0.531,2.822-1.541,3.842
				c-1.043,1.055-2.468,1.636-4.011,1.636H89.488z"/>
			<path fill="#FFFFFF" d="M89.615,135.723c0.015,0,0.029,0,0.043,0c1.642,0.02,2.937,1.3,2.955,2.922
				c0.019,1.693-1.322,2.988-3.089,2.988c-0.007,0-0.014,0-0.021,0c-1.649-0.01-2.928-1.279-2.943-2.923
				C86.543,137.001,87.855,135.723,89.615,135.723 M89.615,130.798L89.615,130.798c-2.195,0-4.229,0.833-5.726,2.345
				c-1.474,1.488-2.274,3.481-2.254,5.613c0.041,4.349,3.485,7.775,7.839,7.801l0.015,0l0.036,0c2.206,0,4.252-0.84,5.762-2.366
				c1.476-1.492,2.275-3.481,2.252-5.601c-0.048-4.318-3.483-7.74-7.821-7.792l-0.029,0L89.615,130.798L89.615,130.798z"/>
		</g>
		<g>
			<linearGradient id="SVGID_4_" gradientUnits="userSpaceOnUse" x1="125.357" y1="214.6458" x2="125.357" y2="-81.0278">
				<stop  offset="0" style="stop-color:#DF3729"/>
				<stop  offset="0.1652" style="stop-color:#E1492B"/>
				<stop  offset="0.4966" style="stop-color:#E67531"/>
				<stop  offset="0.96" style="stop-color:#EFB037"/>
				<stop  offset="1" style="stop-color:#EFB538"/>
			</linearGradient>
			<path fill="url(#SVGID_4_)" d="M125.347,127.974c-3.059-0.003-5.467-2.359-5.484-5.363c-0.008-1.46,0.546-2.825,1.56-3.844
				c1.037-1.042,2.443-1.616,3.96-1.616c1.519,0.014,2.885,0.586,3.902,1.611c1.024,1.032,1.58,2.407,1.566,3.871
				c-0.029,2.996-2.444,5.342-5.5,5.342H125.347z"/>
			<path fill="#FFFFFF" d="M125.383,119.612c0.011,0,0.022,0,0.033,0c1.674,0.016,2.988,1.34,2.973,2.996
				c-0.016,1.638-1.339,2.902-3.036,2.902c-0.001,0-0.002,0-0.003,0c-1.721-0.002-3.015-1.248-3.024-2.915
				C122.316,120.908,123.648,119.612,125.383,119.612 M125.383,114.687L125.383,114.687c-2.178,0-4.204,0.832-5.707,2.342
				c-1.479,1.487-2.288,3.474-2.276,5.594c0.024,4.376,3.513,7.808,7.943,7.813c4.431,0,7.928-3.418,7.969-7.781
				c0.041-4.352-3.481-7.926-7.851-7.968l-0.023,0L125.383,114.687L125.383,114.687z"/>
		</g>
		<g>
			<linearGradient id="SVGID_5_" gradientUnits="userSpaceOnUse" x1="37.6963" y1="244.0225" x2="37.6963" y2="-49.1477">
				<stop  offset="0" style="stop-color:#DF3729"/>
				<stop  offset="0.1652" style="stop-color:#E1492B"/>
				<stop  offset="0.4966" style="stop-color:#E67531"/>
				<stop  offset="0.96" style="stop-color:#EFB037"/>
				<stop  offset="1" style="stop-color:#EFB538"/>
			</linearGradient>
			<path fill="url(#SVGID_5_)" d="M37.648,91.223c-2.985-0.018-5.423-2.475-5.436-5.477c-0.006-1.487,0.548-2.866,1.559-3.883
				c1.009-1.014,2.38-1.574,3.86-1.576c1.541,0,2.963,0.588,4.011,1.656c1.018,1.037,1.563,2.41,1.536,3.867
				c-0.055,2.934-2.574,5.413-5.501,5.413H37.648z"/>
			<path fill="#FFFFFF" d="M37.64,82.749c1.745,0,3.109,1.336,3.077,3.015c-0.03,1.608-1.44,2.996-3.039,2.996
				c-0.005,0-0.011,0-0.016,0c-1.625-0.009-2.98-1.382-2.987-3.024c-0.007-1.708,1.258-2.984,2.96-2.987
				C37.637,82.749,37.639,82.749,37.64,82.749 M37.64,77.824h-0.005c-2.146,0.003-4.136,0.821-5.61,2.303
				c-1.476,1.484-2.284,3.483-2.275,5.629c0.018,4.347,3.554,7.904,7.883,7.929c4.355,0,7.927-3.512,8.008-7.829
				c0.04-2.123-0.756-4.125-2.241-5.638C41.885,78.675,39.84,77.824,37.64,77.824L37.64,77.824z"/>
		</g>
		<g>
			<linearGradient id="SVGID_6_" gradientUnits="userSpaceOnUse" x1="141.4745" y1="243.8772" x2="141.4745" y2="-48.4138">
				<stop  offset="0" style="stop-color:#DF3729"/>
				<stop  offset="0.1652" style="stop-color:#E1492B"/>
				<stop  offset="0.4966" style="stop-color:#E67531"/>
				<stop  offset="0.96" style="stop-color:#EFB037"/>
				<stop  offset="1" style="stop-color:#EFB538"/>
			</linearGradient>
			<path fill="url(#SVGID_6_)" d="M141.485,90.838c-2.935,0-5.456-2.479-5.505-5.414c-0.025-1.462,0.533-2.848,1.572-3.904
				c1.036-1.054,2.473-1.658,3.942-1.658c3.053,0.028,5.486,2.493,5.476,5.494c-0.01,3.003-2.455,5.462-5.45,5.482H141.485z"/>
			<path fill="#FFFFFF" d="M141.494,82.325c0.01,0,0.019,0,0.029,0c1.661,0.016,2.99,1.362,2.984,3.024
				c-0.005,1.65-1.361,3.017-3.004,3.027c-0.006,0-0.012,0-0.018,0c-1.61,0-3.016-1.38-3.043-2.992
				C138.414,83.717,139.807,82.325,141.494,82.325 M141.494,77.4c-2.125,0-4.202,0.872-5.697,2.394
				c-1.505,1.531-2.314,3.546-2.278,5.673c0.073,4.32,3.647,7.834,7.968,7.834h0.017l0.035,0c4.339-0.028,7.882-3.588,7.895-7.936
				c0.014-4.35-3.513-7.922-7.862-7.964l-0.023,0L141.494,77.4L141.494,77.4z"/>
		</g>
		<g>
			<linearGradient id="SVGID_7_" gradientUnits="userSpaceOnUse" x1="52.1063" y1="274.7881" x2="52.1063" y2="-18.7609">
				<stop  offset="0" style="stop-color:#DF3729"/>
				<stop  offset="0.1652" style="stop-color:#E1492B"/>
				<stop  offset="0.4966" style="stop-color:#E67531"/>
				<stop  offset="0.96" style="stop-color:#EFB037"/>
				<stop  offset="1" style="stop-color:#EFB538"/>
			</linearGradient>
			<path fill="url(#SVGID_7_)" d="M51.967,54.019c-1.489-0.036-2.867-0.649-3.881-1.728c-0.994-1.057-1.512-2.43-1.459-3.868
				c0.108-2.935,2.575-5.322,5.499-5.322l0.103,0.001c1.474,0.029,2.838,0.625,3.842,1.679c1.021,1.073,1.56,2.5,1.516,4.018
				c-0.087,2.977-2.439,5.221-5.472,5.221L51.967,54.019z"/>
			<path fill="#FFFFFF" d="M52.126,45.564c0.018,0,0.037,0,0.055,0.001c1.704,0.033,2.994,1.42,2.943,3.163
				c-0.048,1.66-1.301,2.831-3.01,2.831c-0.03,0-0.06,0-0.09-0.001c-1.673-0.04-2.997-1.411-2.937-3.042
				C49.148,46.903,50.533,45.564,52.126,45.564 M52.126,40.639L52.126,40.639c-4.232,0-7.803,3.452-7.96,7.694
				c-0.078,2.101,0.678,4.107,2.127,5.647c1.469,1.561,3.464,2.45,5.615,2.501l0.206,0.002c4.396,0,7.807-3.272,7.933-7.612
				c0.064-2.18-0.716-4.236-2.194-5.788c-1.461-1.533-3.441-2.401-5.576-2.442L52.126,40.639L52.126,40.639z"/>
		</g>
		<g>
			<linearGradient id="SVGID_8_" gradientUnits="userSpaceOnUse" x1="126.896" y1="276.7411" x2="126.896" y2="-18.693">
				<stop  offset="0" style="stop-color:#DF3729"/>
				<stop  offset="0.1652" style="stop-color:#E1492B"/>
				<stop  offset="0.4966" style="stop-color:#E67531"/>
				<stop  offset="0.96" style="stop-color:#EFB037"/>
				<stop  offset="1" style="stop-color:#EFB538"/>
			</linearGradient>
			<path fill="url(#SVGID_8_)" d="M126.854,53.378c-3.058-0.006-5.452-2.383-5.45-5.412c0.001-3.036,2.403-5.418,5.469-5.423
				c3.053,0,5.471,2.352,5.514,5.354c0.021,1.475-0.519,2.847-1.52,3.862c-1.029,1.043-2.45,1.618-4,1.618H126.854z"/>
			<path fill="#FFFFFF" d="M126.882,45.006c1.701,0,3.02,1.267,3.043,2.926c0.025,1.721-1.271,2.983-3.058,2.983
				c-0.003,0-0.005,0-0.007,0c-1.716-0.003-2.993-1.261-2.993-2.948c0.001-1.655,1.326-2.96,3.01-2.962
				C126.878,45.006,126.88,45.006,126.882,45.006 M126.882,40.081h-0.005c-4.377,0.006-7.933,3.543-7.935,7.885
				c-0.002,4.407,3.472,7.866,7.908,7.875c2.232,0,4.276-0.835,5.771-2.352c1.467-1.488,2.259-3.487,2.228-5.626
				C134.787,43.499,131.287,40.081,126.882,40.081L126.882,40.081z"/>
		</g>
		<g>
			<linearGradient id="SVGID_9_" gradientUnits="userSpaceOnUse" x1="89.5864" y1="289.7538" x2="89.5864" y2="-6.0354">
				<stop  offset="0" style="stop-color:#DF3729"/>
				<stop  offset="0.1652" style="stop-color:#E1492B"/>
				<stop  offset="0.4966" style="stop-color:#E67531"/>
				<stop  offset="0.96" style="stop-color:#EFB037"/>
				<stop  offset="1" style="stop-color:#EFB538"/>
			</linearGradient>
			<path fill="url(#SVGID_9_)" d="M89.56,38.125c-1.499,0-2.886-0.563-3.906-1.585c-1.006-1.008-1.559-2.37-1.556-3.833
				c0.005-3.028,2.414-5.4,5.483-5.4c1.484,0.003,2.859,0.555,3.884,1.555c1.043,1.019,1.616,2.393,1.612,3.868
				c-0.009,3.014-2.422,5.383-5.493,5.395H89.56z"/>
			<path fill="#FFFFFF" d="M89.58,29.77c0.002,0,0.004,0,0.007,0c1.711,0.003,3.031,1.292,3.026,2.955
				c-0.005,1.662-1.318,2.932-3.04,2.939c-0.005,0-0.009,0-0.014,0c-1.715,0-3.003-1.266-3-2.951
				C86.562,31.039,87.865,29.77,89.58,29.77 M89.592,24.845h-0.009h-0.014l-0.017,0c-4.419,0-7.909,3.452-7.917,7.859
				c-0.004,2.122,0.805,4.102,2.277,5.577c1.486,1.488,3.492,2.308,5.649,2.308c4.476-0.018,7.966-3.466,7.978-7.85
				c0.006-2.147-0.83-4.149-2.354-5.637c-1.486-1.451-3.47-2.252-5.587-2.256L89.592,24.845L89.592,24.845z"/>
		</g>
	</g>
	<g>
		<g>
			<linearGradient id="SVGID_10_" gradientUnits="userSpaceOnUse" x1="114.6015" y1="223.4602" x2="114.6015" y2="-34.5823">
				<stop  offset="0" style="stop-color:#DF3729"/>
				<stop  offset="0.1652" style="stop-color:#E1492B"/>
				<stop  offset="0.4966" style="stop-color:#E67531"/>
				<stop  offset="0.96" style="stop-color:#EFB037"/>
				<stop  offset="1" style="stop-color:#EFB538"/>
			</linearGradient>
			<path fill="url(#SVGID_10_)" d="M111.522,115.45c-3.953,0-7.802-1.422-11.132-4.114c-8.005-6.472-10.089-15.797-5.717-25.585
				c1.607-3.597,4.11-6.375,6.53-9.063l0.894-0.996c6.623-7.43,8.906-20.355,1.264-29.123c-1.04-1.193-2.304-2.266-3.643-3.402
				c-0.651-0.553-1.3-1.104-1.924-1.668l-6.929-6.269l9.177,1.76c13.398,2.57,25.055,11.118,31.982,23.451
				c7.049,12.55,8.259,27.321,3.321,40.527l-3.542,9.472l-1.496-10c-0.065-0.435-0.127-0.824-0.185-1.182
				c-0.121-0.757-0.221-1.391-0.288-2.028c-0.591-5.656-5.087-11.155-10.236-12.517c-1.463-0.387-2.844-0.583-4.104-0.583
				c-2.786,0-5.065,0.94-6.968,2.875c-3.323,3.377-4.188,7.004-2.643,11.088c1.133,2.996,3.614,4.784,6.638,4.784
				c0.266,0,0.535-0.014,0.806-0.042c1.354-0.139,2.343-0.808,3.199-2.167c-0.014-0.042-0.047-0.101-0.097-0.136
				c-0.023-0.017-0.044-0.03-0.063-0.042c-0.071,0.052-0.171,0.135-0.299,0.265c-0.711,0.716-1.901,1.916-3.657,1.916
				c-1.257,0-2.26-0.595-3.18-1.205c-2.15-1.425-3.408-3.934-3.365-6.712c0.048-3.108,1.694-6.041,4.296-7.652
				c1.741-1.078,3.59-1.625,5.496-1.625c1.765,0,3.543,0.471,5.285,1.401c3.349,1.789,5.778,4.75,6.841,8.339
				c1.125,3.801,0.633,7.908-1.386,11.565C123.486,112.047,117.648,115.45,111.522,115.45z"/>
			<path fill="#FFFFFF" d="M99.548,39.56c26.64,5.109,43.094,34.421,33.346,60.493c-0.195-1.299-0.364-2.193-0.458-3.094
				c-0.693-6.629-5.901-13.117-12.169-14.775c-1.623-0.429-3.223-0.67-4.773-0.67c-3.249,0-6.277,1.058-8.833,3.656
				c-3.897,3.96-5.199,8.627-3.225,13.849c1.546,4.088,5.045,6.474,9.085,6.474c0.354,0,0.711-0.018,1.072-0.055
				c2.407-0.247,4.034-1.573,5.196-3.457c0.737-1.194,0.281-2.79-0.86-3.59c-0.545-0.383-1.069-0.575-1.586-0.575
				c-0.711,0-1.409,0.364-2.136,1.096c-0.768,0.774-1.253,1.142-1.801,1.142c-0.463,0-0.972-0.264-1.734-0.769
				c-3.262-2.163-2.82-7.679,0.863-9.96c1.346-0.834,2.728-1.233,4.118-1.233c1.35,0,2.709,0.376,4.052,1.093
				c5.868,3.134,7.734,10.291,4.398,16.332c-2.308,4.18-7.18,7.318-12.583,7.318c-3.116,0-6.408-1.044-9.488-3.533
				c-7.063-5.709-8.856-13.792-4.973-22.483c1.624-3.636,4.372-6.45,6.988-9.384c7.889-8.851,9.463-23.197,1.283-32.582
				C103.626,42.894,101.466,41.294,99.548,39.56 M82.173,30.901l13.865,12.54c0.664,0.6,1.334,1.169,1.982,1.719
				c1.263,1.072,2.456,2.084,3.367,3.13c6.694,7.68,4.624,19.08-1.245,25.664c-0.294,0.329-0.589,0.657-0.884,0.985
				c-2.437,2.706-5.2,5.773-6.975,9.747c-4.822,10.794-2.407,21.518,6.461,28.686c3.8,3.072,8.219,4.696,12.777,4.696
				c7.064,0,13.801-3.933,17.163-10.021c0.031-0.055,0.061-0.111,0.091-0.166l1.938,12.943l7.08-18.936
				c5.208-13.93,3.936-29.503-3.491-42.726c-7.305-13.007-19.614-22.024-33.77-24.738L82.173,30.901L82.173,30.901z"/>
		</g>
		<g>
			<linearGradient id="SVGID_11_" gradientUnits="userSpaceOnUse" x1="73.4334" y1="234.523" x2="73.4334" y2="-36.7975">
				<stop  offset="0" style="stop-color:#DF3729"/>
				<stop  offset="0.1652" style="stop-color:#E1492B"/>
				<stop  offset="0.4966" style="stop-color:#E67531"/>
				<stop  offset="0.96" style="stop-color:#EFB037"/>
				<stop  offset="1" style="stop-color:#EFB538"/>
			</linearGradient>
			<path fill="url(#SVGID_11_)" d="M44.458,101.348c-5.207-5.342-4.384-25.966,0.101-35.912
				c6.828-15.141,18.287-24.73,34.058-28.503l1.759-0.421l2.638,3.9l-2.323,1.833c-0.295,0.232-0.59,0.464-0.888,0.692
				c-3.246,2.482-5.396,6.277-5.899,10.413c-0.481,3.948,0.543,7.731,2.885,10.653c1.888,2.356,4.713,3.707,7.751,3.707
				c3.221,0,6.104-1.55,7.711-4.146c1.422-2.296,1.667-4.58,0.747-6.981c-0.637-1.664-1.766-2.635-3.553-3.055
				c-0.142-0.034-0.239-0.041-0.295-0.041c-0.004,0-0.007,0-0.009-0.001c-0.019,0.033-0.044,0.086-0.071,0.165
				c-0.045,0.131,0.262,0.254,0.265,0.255c3.435,1.337,4.667,3.969,3.467,7.412c-1.139,3.27-4.201,5.383-7.8,5.383
				c-2.065,0-4.054-0.69-5.75-1.997c-2.574-1.982-5.311-5.714-3.734-12.233c1.557-6.437,6.996-10.761,13.533-10.761
				c3.33,0,6.636,1.106,9.56,3.199c6.787,4.858,9.155,13.537,6.034,22.109c-2.487,6.832-6.726,10.749-12.958,11.975
				c-1.622,0.319-3.339,0.48-5.104,0.48c-2.484,0-5.084-0.301-8.184-0.946c-2.244-0.467-5.194-1.002-8.118-1.002
				c-2.245,0-4.275,0.305-6.208,0.934c-9.268,3.015-14.747,10.055-15.033,19.315c-0.013,0.418-0.037,0.836-0.062,1.276l-0.345,6.58
				L44.458,101.348z"/>
			<path fill="#FFFFFF" d="M79.226,39.476c0.087,0.129,0.175,0.258,0.262,0.388c-0.425,0.332-0.846,0.668-1.274,0.996
				c-7.773,5.945-9.377,17.402-3.466,24.779c2.513,3.136,6.184,4.688,9.793,4.688c3.896,0,7.72-1.809,9.935-5.384
				c1.803-2.911,2.205-6.058,0.966-9.294c-0.935-2.443-2.739-4.041-5.396-4.666c-0.314-0.074-0.613-0.11-0.894-0.11
				c-1.234,0-2.13,0.695-2.555,1.929c-0.496,1.442,0.266,2.951,1.79,3.544c2.127,0.828,2.682,2.001,1.946,4.114
				c-0.808,2.32-2.977,3.627-5.33,3.627c-1.402,0-2.868-0.464-4.153-1.453c-3.279-2.525-3.644-6.008-2.788-9.546
				c1.349-5.577,5.898-8.761,10.99-8.761c2.657,0,5.461,0.866,8.037,2.71c5.812,4.161,7.793,11.688,5.099,19.087
				c-1.889,5.188-5.041,9.13-11.005,10.303c-1.534,0.302-3.068,0.431-4.599,0.431c-2.564,0-5.118-0.364-7.651-0.891
				c-2.891-0.602-5.77-1.058-8.652-1.058c-2.334,0-4.67,0.299-7.016,1.062c-10.253,3.335-16.519,11.373-16.839,21.722
				c-0.018,0.587-0.059,1.172-0.094,1.828c-4.025-4.129-3.778-23.275,0.612-33.011C53.2,52.636,63.642,43.204,79.226,39.476
				 M81.531,33.545l-3.522,0.843c-16.6,3.971-28.656,14.056-35.834,29.972c-4.46,9.889-6.113,32.122,0.411,38.814l8.348,8.564
				l0.623-11.943l0.033-0.59c0.027-0.465,0.052-0.907,0.065-1.349c0.25-8.092,5.071-14.255,13.228-16.908
				c1.667-0.542,3.433-0.806,5.398-0.806c2.686,0,5.465,0.507,7.586,0.948c3.279,0.682,6.049,1,8.716,1
				c1.934,0,3.821-0.178,5.608-0.529c7.107-1.397,12.124-5.989,14.912-13.647c3.534-9.706,0.798-19.571-6.97-25.131
				c-3.37-2.413-7.203-3.688-11.083-3.688c-1.21,0-2.388,0.124-3.522,0.363l-1.707-2.524l-0.262-0.388L81.531,33.545L81.531,33.545z
				"/>
		</g>
		<g>
			<linearGradient id="SVGID_12_" gradientUnits="userSpaceOnUse" x1="90.3401" y1="222.9621" x2="90.3401" y2="-38.4777">
				<stop  offset="0" style="stop-color:#DF3729"/>
				<stop  offset="0.1652" style="stop-color:#E1492B"/>
				<stop  offset="0.4966" style="stop-color:#E67531"/>
				<stop  offset="0.96" style="stop-color:#EFB037"/>
				<stop  offset="1" style="stop-color:#EFB538"/>
			</linearGradient>
			<path fill="url(#SVGID_12_)" d="M89.499,133.035c-12.584,0-24.332-4.655-33.082-13.107l-6.392-6.174l8.718,1.727
				c0.624,0.124,1.219,0.248,1.797,0.368c1.151,0.24,2.238,0.466,3.296,0.633c0.565,0.089,1.15,0.134,1.739,0.134
				c6.16,0,12.442-4.946,13.444-10.584c0.836-4.707-0.395-8.285-3.875-11.261c-1.35-1.155-3.141-1.79-5.043-1.79
				c-1.313,0-2.606,0.31-3.74,0.897c-2.549,1.321-3.868,3.788-3.44,6.439c0.073,0.451,0.236,0.962,0.472,1.479
				c0.042,0.092,0.081,0.158,0.112,0.204c0.073-0.032,0.13-0.065,0.172-0.096c-0.554-1.352-1.693-4.665,1.845-6.936
				c1.259-0.809,2.695-1.236,4.154-1.236c1.464,0,2.921,0.433,4.211,1.25c2.262,1.434,3.768,3.699,4.238,6.378
				c0.512,2.916-0.289,6.003-2.196,8.471c-2.469,3.193-6.269,5.024-10.424,5.025c-4.392,0-8.545-2.095-11.108-5.605
				c-3.748-5.131-4.547-11.674-2.137-17.503c2.542-6.148,8.12-10.457,14.92-11.525c1.396-0.219,2.759-0.33,4.05-0.33
				c4.767,0,8.851,1.493,12.139,4.436c1.7,1.522,3.172,3.736,4.145,6.236c0.817,2.1,1.498,4.244,2.156,6.317
				c0.829,2.612,1.612,5.08,2.644,7.461c2.886,6.662,7.819,10.969,14.662,12.802c1.42,0.38,2.871,0.573,4.311,0.573h0
				c1.957,0,3.956-0.356,5.942-1.058l13.429-4.689l-8.74,8.345c-8.59,8.202-20.102,12.72-32.414,12.72
				C89.501,133.035,89.5,133.035,89.499,133.035z"/>
			<path fill="#FFFFFF" d="M71.229,82.507c3.835,0,7.396,1.085,10.394,3.77c1.533,1.373,2.711,3.332,3.452,5.236
				c1.777,4.566,2.891,9.378,4.837,13.869c3.076,7.101,8.429,12.158,16.386,14.288c1.664,0.446,3.329,0.662,4.988,0.662
				c2.29,0,4.567-0.413,6.814-1.207c0.669-0.237,1.341-0.469,2.011-0.703c-8.42,8.04-19.516,11.997-30.607,11.997
				c-11.39,0-22.776-4.17-31.267-12.373c1.898,0.376,3.535,0.757,5.194,1.019c0.711,0.112,1.429,0.166,2.146,0.166
				c7.384,0,14.773-5.726,16.02-12.743c0.962-5.416-0.428-10.01-4.75-13.707c-1.869-1.598-4.294-2.417-6.743-2.418
				c-1.696,0-3.402,0.392-4.944,1.191c-3.528,1.827-5.428,5.404-4.82,9.178c0.118,0.733,0.363,1.467,0.675,2.149
				c0.529,1.16,1.401,1.771,2.391,1.771c0.263,0,0.533-0.043,0.808-0.13c1.571-0.498,2.569-1.981,1.968-3.413
				c-0.655-1.561-0.949-2.848,0.755-3.942c0.847-0.544,1.788-0.821,2.741-0.821c0.953,0,1.918,0.278,2.812,0.844
				c3.613,2.29,4.241,7.331,1.373,11.039c-2.075,2.683-5.2,4.009-8.355,4.009c-3.382,0-6.798-1.523-8.996-4.532
				c-7.036-9.633-1.101-22.987,11.077-24.9C68.819,82.612,70.038,82.507,71.229,82.507 M71.229,77.275
				c-1.427,0-2.926,0.122-4.456,0.362c-7.709,1.211-14.038,6.112-16.932,13.109c-2.761,6.678-1.848,14.172,2.442,20.045
				c0.22,0.302,0.45,0.594,0.69,0.878l-11.155-2.209l12.782,12.348c9.24,8.926,21.635,13.842,34.902,13.842
				c12.987,0,25.14-4.775,34.22-13.444l17.486-16.695l-22.824,7.972l-0.631,0.22c-0.466,0.162-0.933,0.325-1.399,0.489
				c-1.705,0.603-3.411,0.908-5.07,0.908c-1.211,0-2.434-0.163-3.634-0.484c-6.118-1.638-10.35-5.339-12.938-11.314
				c-0.979-2.259-1.742-4.665-2.55-7.212c-0.67-2.113-1.364-4.298-2.211-6.475c-1.119-2.875-2.837-5.445-4.838-7.236
				C81.329,78.992,76.658,77.275,71.229,77.275L71.229,77.275z"/>
		</g>
		<g>
			<linearGradient id="SVGID_13_" gradientUnits="userSpaceOnUse" x1="125.4897" y1="239.214" x2="125.4897" y2="-70.7822">
				<stop  offset="0" style="stop-color:#DF3729"/>
				<stop  offset="0.1652" style="stop-color:#E1492B"/>
				<stop  offset="0.4966" style="stop-color:#E67531"/>
				<stop  offset="0.96" style="stop-color:#EFB037"/>
				<stop  offset="1" style="stop-color:#EFB538"/>
			</linearGradient>
			<path fill="url(#SVGID_13_)" d="M123.316,134.463c-3.684,0-6.976-1.634-9.03-4.481l-1.646-2.282l2.395-1.476
				c6.179-3.808,11.313-8.641,15.26-14.364l1.194-1.731l1.947,0.793c4.046,1.648,5.321,6.607,4.791,10.79
				c-0.708,5.572-5.715,10.879-11.647,12.345C125.486,134.326,124.389,134.463,123.316,134.463z"/>
			<path fill="#FFFFFF" d="M132.448,113.345c2.606,1.062,3.606,4.694,3.182,8.037c-0.575,4.527-4.736,8.913-9.679,10.135
				c-0.895,0.221-1.779,0.33-2.635,0.33c-2.804,0-5.303-1.171-6.909-3.396C122.921,124.436,128.26,119.418,132.448,113.345
				 M130.528,106.913l-2.387,3.462c-3.792,5.499-8.528,9.955-14.479,13.622l-4.79,2.952l3.292,4.563
				c2.552,3.538,6.617,5.567,11.152,5.567c1.284,0,2.593-0.162,3.89-0.483c7.039-1.739,12.765-7.861,13.615-14.555
				c0.789-6.219-1.782-11.66-6.398-13.541L130.528,106.913L130.528,106.913z"/>
		</g>
		<g>
			<linearGradient id="SVGID_14_" gradientUnits="userSpaceOnUse" x1="53.5669" y1="241.0751" x2="53.5669" y2="-74.4929">
				<stop  offset="0" style="stop-color:#DF3729"/>
				<stop  offset="0.1652" style="stop-color:#E1492B"/>
				<stop  offset="0.4966" style="stop-color:#E67531"/>
				<stop  offset="0.96" style="stop-color:#EFB037"/>
				<stop  offset="1" style="stop-color:#EFB538"/>
			</linearGradient>
			<path fill="url(#SVGID_14_)" d="M56.02,134.528c-0.294,0-0.586-0.013-0.876-0.038c-6.243-0.549-11.832-4.973-13.591-10.759
				c-1.553-5.105-0.233-9.781,3.53-12.51l2.15-1.559l1.526,2.173c4.199,5.979,9.212,10.686,15.327,14.392l2.134,1.293l-1.192,2.193
				C63.487,132.548,59.783,134.528,56.02,134.528z"/>
			<path fill="#FFFFFF" d="M46.618,113.339c4.328,6.163,9.652,11.211,16.111,15.125c-1.092,2.01-3.992,3.448-6.71,3.448
				c-0.217,0-0.433-0.009-0.647-0.028c-5.221-0.459-9.856-4.11-11.318-8.914C42.838,118.969,43.734,115.43,46.618,113.339
				 M47.847,105.986l-4.3,3.117c-4.709,3.414-6.39,9.167-4.498,15.389c2.095,6.889,8.471,11.954,15.865,12.604
				c0.363,0.032,0.734,0.048,1.105,0.048c4.679,0,9.329-2.542,11.307-6.181l2.383-4.386l-4.269-2.587
				c-5.798-3.514-10.555-7.982-14.542-13.658L47.847,105.986L47.847,105.986z"/>
		</g>
		<g>
			<linearGradient id="SVGID_15_" gradientUnits="userSpaceOnUse" x1="89.386" y1="253.62" x2="89.386" y2="-121.1355">
				<stop  offset="0" style="stop-color:#DF3729"/>
				<stop  offset="0.1652" style="stop-color:#E1492B"/>
				<stop  offset="0.4966" style="stop-color:#E67531"/>
				<stop  offset="0.96" style="stop-color:#EFB037"/>
				<stop  offset="1" style="stop-color:#EFB538"/>
			</linearGradient>
			<path fill="url(#SVGID_15_)" d="M89.717,147.137c-2.283,0-4.613-0.547-6.924-1.625c-4.548-2.122-6.974-5.731-7.211-10.726
				l-0.158-3.325l3.268,0.632c3.764,0.729,7.339,1.083,10.929,1.083c3.564,0,7.018-0.349,10.559-1.066l2.874-0.582l0.251,2.922
				c0.339,3.943-1.288,7.227-4.836,9.76C95.749,146.152,92.804,147.137,89.717,147.137z"/>
			<path fill="#FFFFFF" d="M78.194,134.661c3.855,0.746,7.647,1.13,11.425,1.13c3.689,0,7.365-0.366,11.079-1.118
				c0.287,3.337-1.291,5.652-3.75,7.407c-2.302,1.644-4.736,2.44-7.231,2.44c-1.913,0-3.863-0.468-5.818-1.38
				C80.441,141.527,78.393,138.85,78.194,134.661 M72.652,128.259l0.316,6.65c0.283,5.957,3.298,10.443,8.718,12.972
				c2.66,1.241,5.362,1.871,8.03,1.871c3.643,0,7.099-1.148,10.272-3.414c5.423-3.872,6.214-8.725,5.923-12.114l-0.503-5.843
				l-5.748,1.164c-3.369,0.682-6.653,1.014-10.04,1.014c-3.421,0-6.833-0.339-10.431-1.035L72.652,128.259L72.652,128.259z"/>
		</g>
		<g>
			<linearGradient id="SVGID_16_" gradientUnits="userSpaceOnUse" x1="128.2605" y1="268.8417" x2="128.2605" y2="-49.4149">
				<stop  offset="0" style="stop-color:#DF3729"/>
				<stop  offset="0.1652" style="stop-color:#E1492B"/>
				<stop  offset="0.4966" style="stop-color:#E67531"/>
				<stop  offset="0.96" style="stop-color:#EFB037"/>
				<stop  offset="1" style="stop-color:#EFB538"/>
			</linearGradient>
			<path fill="url(#SVGID_16_)" d="M132.49,60.486c-3.59-6.302-8.216-11.456-14.143-15.753l-2.354-1.708l1.947-2.161
				c1.854-2.059,4.586-3.192,7.69-3.192c3.648,0,7.352,1.536,10.162,4.214c3.14,2.995,4.863,6.968,4.728,10.903
				c-0.115,3.334-1.566,6.323-4.086,8.415l-2.4,1.992L132.49,60.486z"/>
			<path fill="#FFFFFF" d="M125.631,40.288c2.841,0,5.956,1.204,8.356,3.492c4.841,4.615,5.323,11.636,0.776,15.411
				c-3.769-6.617-8.721-12.109-14.88-16.576C121.3,41.044,123.379,40.288,125.631,40.288 M125.631,35.056L125.631,35.056
				c-3.856,0-7.277,1.441-9.635,4.058l-3.894,4.322l4.709,3.415c5.618,4.075,10.003,8.958,13.405,14.93l3.088,5.42l4.8-3.984
				c3.103-2.576,4.889-6.247,5.03-10.339c0.161-4.68-1.857-9.377-5.537-12.885C134.307,36.856,129.945,35.056,125.631,35.056
				L125.631,35.056z"/>
		</g>
		<g>
			<linearGradient id="SVGID_17_" gradientUnits="userSpaceOnUse" x1="144.5023" y1="243.1969" x2="144.5023" y2="-52.4368">
				<stop  offset="0" style="stop-color:#DF3729"/>
				<stop  offset="0.1652" style="stop-color:#E1492B"/>
				<stop  offset="0.4966" style="stop-color:#E67531"/>
				<stop  offset="0.96" style="stop-color:#EFB037"/>
				<stop  offset="1" style="stop-color:#EFB538"/>
			</linearGradient>
			<path fill="url(#SVGID_17_)" d="M140.077,99.705l-2.81-0.097l0.299-2.796c0.122-1.141,0.265-2.282,0.407-3.422
				c0.323-2.579,0.627-5.015,0.705-7.469c0.077-2.423-0.075-4.861-0.235-7.442c-0.072-1.16-0.145-2.327-0.197-3.503l-0.141-3.154
				l3.125,0.448c6.344,0.91,11.125,7.643,10.442,14.704c-0.703,7.261-5.554,12.736-11.284,12.736
				C140.285,99.71,140.181,99.709,140.077,99.705z"/>
			<path fill="#FFFFFF" d="M140.86,74.86c4.924,0.706,8.754,6.232,8.209,11.862c-0.574,5.931-4.333,10.372-8.681,10.372
				c-0.073,0-0.147-0.001-0.22-0.004c0.396-3.694,1.008-7.383,1.126-11.087C141.41,82.333,141.028,78.648,140.86,74.86
				 M135.352,68.785l0.28,6.307c0.053,1.193,0.126,2.376,0.2,3.552c0.157,2.517,0.305,4.894,0.232,7.194
				c-0.074,2.333-0.372,4.711-0.686,7.229c-0.144,1.155-0.289,2.311-0.412,3.466l-0.599,5.593l5.621,0.194
				c0.134,0.005,0.267,0.007,0.4,0.007c7.084,0,13.055-6.492,13.888-15.1c0.814-8.409-4.99-16.443-12.674-17.545L135.352,68.785
				L135.352,68.785z"/>
		</g>
		<g>
			<linearGradient id="SVGID_18_" gradientUnits="userSpaceOnUse" x1="34.9787" y1="243.938" x2="34.9787" y2="-52.9482">
				<stop  offset="0" style="stop-color:#DF3729"/>
				<stop  offset="0.1652" style="stop-color:#E1492B"/>
				<stop  offset="0.4966" style="stop-color:#E67531"/>
				<stop  offset="0.96" style="stop-color:#EFB037"/>
				<stop  offset="1" style="stop-color:#EFB538"/>
			</linearGradient>
			<path fill="url(#SVGID_18_)" d="M39.141,99.745c-3.515-0.146-6.398-1.741-8.57-4.739c-3.9-5.385-4.285-11.29-1.112-17.074
				c1.833-3.343,4.775-5.306,8.744-5.836l3.55-0.475l-0.627,3.526c-1.3,7.301-1.083,14.287,0.664,21.357l0.836,3.386L39.141,99.745z
				"/>
			<path fill="#FFFFFF" d="M38.549,74.688c-1.354,7.61-1.151,14.95,0.7,22.443c-3.066-0.127-5.072-1.605-6.56-3.66
				c-3.291-4.543-3.626-9.38-0.938-14.282C33.106,76.722,35.253,75.129,38.549,74.688 M44.955,68.553l-7.1,0.949
				c-4.77,0.638-8.467,3.118-10.691,7.171c-3.641,6.638-3.184,13.694,1.288,19.867c2.665,3.679,6.225,5.637,10.579,5.818l6.97,0.29
				l-1.673-6.772c-1.657-6.707-1.863-13.338-0.628-20.271L44.955,68.553L44.955,68.553z"/>
		</g>
		<g>
			<linearGradient id="SVGID_19_" gradientUnits="userSpaceOnUse" x1="52.064" y1="271.544" x2="52.064" y2="-50.3559">
				<stop  offset="0" style="stop-color:#DF3729"/>
				<stop  offset="0.1652" style="stop-color:#E1492B"/>
				<stop  offset="0.4966" style="stop-color:#E67531"/>
				<stop  offset="0.96" style="stop-color:#EFB037"/>
				<stop  offset="1" style="stop-color:#EFB538"/>
			</linearGradient>
			<path fill="url(#SVGID_19_)" d="M43.247,60.083c-1.803-1.5-2.883-3.909-3.041-6.781c-0.219-3.995,1.426-8.22,4.399-11.302
				c2.706-2.805,6.577-4.48,10.354-4.48c2.865,0,5.341,0.978,6.971,2.753l2.012,2.191l-2.43,1.715
				c-5.856,4.135-10.688,9.27-14.362,15.261l-1.58,2.576L43.247,60.083z"/>
			<path fill="#FFFFFF" d="M54.959,40.135c2.034,0,3.87,0.628,5.044,1.907c-6.167,4.354-11.202,9.702-15.083,16.03
				c-3.014-2.507-3.082-9.437,1.568-14.256C48.834,41.383,52.092,40.135,54.959,40.135 M54.959,34.903L54.959,34.903
				c-4.473,0-9.048,1.974-12.237,5.28c-3.521,3.65-5.39,8.483-5.128,13.261c0.197,3.607,1.611,6.678,3.98,8.649l4.647,3.866
				l3.16-5.153c3.488-5.687,8.077-10.563,13.64-14.491l4.859-3.431l-4.023-4.381C61.725,36.182,58.565,34.903,54.959,34.903
				L54.959,34.903z"/>
		</g>
		<g>
			<linearGradient id="SVGID_20_" gradientUnits="userSpaceOnUse" x1="89.8078" y1="337.7019" x2="89.8078" y2="-61.3589">
				<stop  offset="0" style="stop-color:#DF3729"/>
				<stop  offset="0.1652" style="stop-color:#E1492B"/>
				<stop  offset="0.4966" style="stop-color:#E67531"/>
				<stop  offset="0.96" style="stop-color:#EFB037"/>
				<stop  offset="1" style="stop-color:#EFB538"/>
			</linearGradient>
			<path fill="url(#SVGID_20_)" d="M100.112,36.641c-3.608-0.714-7.193-1.077-10.656-1.077c-3.419,0-6.842,0.353-10.173,1.049
				l-2.645,0.553l-0.467-2.661c-0.345-1.965,0.221-4.003,1.638-5.894c2.211-2.952,6.111-5.068,10.176-5.521
				c0.524-0.059,1.06-0.088,1.593-0.088c6.981,0,13.104,4.861,13.647,10.835l0.317,3.483L100.112,36.641z"/>
			<path fill="#FFFFFF" d="M89.578,25.618c5.444,0,10.612,3.72,11.043,8.457c-3.753-0.743-7.47-1.127-11.164-1.127
				c-3.586,0-7.15,0.361-10.708,1.105c-0.639-3.639,4.172-7.766,9.528-8.363C88.71,25.642,89.145,25.618,89.578,25.618
				 M89.578,20.386L89.578,20.386c-0.629,0-1.263,0.035-1.882,0.104c-4.759,0.531-9.35,3.042-11.98,6.553
				c-1.834,2.448-2.587,5.259-2.121,7.915l0.935,5.322l5.289-1.106c3.156-0.66,6.398-0.994,9.637-0.994
				c3.293,0,6.707,0.346,10.148,1.027l6.861,1.359l-0.634-6.966C105.168,26.315,97.877,20.386,89.578,20.386L89.578,20.386z"/>
		</g>
	</g>
</g>
</svg>
