<?xml version="1.0" encoding="utf-8"?>
<!-- Generator: Adobe Illustrator 17.0.0, SVG Export Plug-In . SVG Version: 6.00 Build 0)  -->
<!DOCTYPE svg PUBLIC "-//W3C//DTD SVG 1.1//EN" "http://www.w3.org/Graphics/SVG/1.1/DTD/svg11.dtd">
<svg version="1.1" id="Capa_1" xmlns="http://www.w3.org/2000/svg" xmlns:xlink="http://www.w3.org/1999/xlink" x="0px" y="0px"
	 width="274.136px" height="273.333px" viewBox="0 0 274.136 273.333" enable-background="new 0 0 274.136 273.333"
	 xml:space="preserve">
<g>
	<linearGradient id="SVGID_1_" gradientUnits="userSpaceOnUse" x1="137.0678" y1="265.8572" x2="137.0678" y2="7.4761">
		<stop  offset="0" style="stop-color:#DF3729"/>
		<stop  offset="1" style="stop-color:#EFB538"/>
	</linearGradient>
	<path fill="url(#SVGID_1_)" d="M266.434,131.81c-1.406-2.326-4.787-2.356-6.266-0.058c-0.133,0.206-0.25,0.424-0.411,0.699
		c-0.306-0.193-0.583-0.355-0.848-0.536c-2.33-1.591-4.309-3.571-6.174-5.663c-2.501-2.804-4.934-5.669-7.438-8.472
		c-2.223-2.488-4.619-4.796-7.374-6.703c-2.578-1.786-5.368-3.086-8.482-3.602c-0.817-0.136-1.65-0.194-2.479-0.24
		c-0.701-0.039-1.407-0.008-2.107-0.008c-0.154-1.527,1.751-7.548,2.708-8.6c1.458,1.178,2.778,1.347,3.986,0.509
		c1.092-0.757,1.54-2.17,1.083-3.418c-0.432-1.18-1.649-1.992-2.888-1.925c-1.567,0.084-2.471,1.057-2.92,3.213
		c-2.146-0.606-3.948-1.843-5.847-3.012c0.102-0.169,0.172-0.321,0.273-0.448c2.783-3.523,4.276-7.555,4.757-11.993
		c0.339-3.126,0.277-6.251-0.132-9.358c-0.489-3.722-1.082-7.43-1.636-11.143c-0.383-2.569-0.716-5.144-0.8-7.743
		c-0.04-1.234,0.011-2.462,0.169-3.686c2.261,0.183,3.713-0.549,4.404-2.193c0.618-1.469,0.228-3.144-0.979-4.203
		c-1.198-1.052-2.916-1.213-4.295-0.403c-1.59,0.933-2.053,2.396-1.52,4.851c-1.152,0.379-2.349,0.546-3.547,0.659
		c-2.716,0.256-5.436,0.2-8.161,0.08c-3.979-0.175-7.956-0.466-11.944-0.367c-3.365,0.083-6.684,0.455-9.889,1.542
		c-3.062,1.039-5.737,2.694-7.935,5.087c-0.085,0.093-0.141,0.212-0.294,0.45c-1.211-2.507-2.48-4.79-2.893-7.516
		c1.096,0.095,2.068-0.051,2.827-0.841c0.434-0.451,0.703-0.976,0.772-1.603c0.143-1.298-0.547-2.474-1.748-2.969
		c-1.225-0.505-2.685-0.134-3.488,0.886c-0.871,1.106-0.768,2.402,0.362,3.933c-2.585,1.383-5.409,1.649-8.25,2.016
		c-0.03-0.212-0.073-0.357-0.067-0.501c0.216-5.06-1.56-9.428-4.628-13.348c-2.112-2.697-4.613-5.005-7.254-7.163
		c-2.811-2.298-5.673-4.535-8.48-6.838c-2.05-1.682-3.975-3.501-5.585-5.626c-0.167-0.221-0.327-0.448-0.486-0.675
		c-0.042-0.061-0.066-0.135-0.116-0.241c0.137-0.097,0.271-0.202,0.415-0.293c1.37-0.873,1.998-2.12,1.763-3.727
		c-0.225-1.543-1.152-2.528-2.637-2.993c-0.088-0.027-0.162-0.097-0.243-0.147c-0.454,0-0.908,0-1.362,0
		c-0.114,0.048-0.225,0.11-0.344,0.143c-1.447,0.406-2.359,1.356-2.651,2.809c-0.298,1.483,0.187,2.736,1.391,3.683
		c0.176,0.139,0.366,0.261,0.639,0.454c-0.703,0.858-1.356,1.718-2.074,2.52c-2.076,2.318-4.446,4.32-6.819,6.321
		c-2.737,2.308-5.488,4.602-8.168,6.976c-2.328,2.062-4.396,4.376-6.147,6.958c-2.054,3.029-3.424,6.327-3.922,9.968
		c-0.038,0.274-0.051,0.552-0.081,0.828c-0.027,0.246-0.063,0.491-0.105,0.819c-3.372-0.724-6.761-1.178-9.868-2.751
		c1.158-1.615,1.253-2.87,0.343-3.989c-0.857-1.054-2.307-1.391-3.555-0.825c-1.193,0.541-1.832,1.721-1.638,3.025
		c0.212,1.426,1.265,2.218,3.366,2.462c-0.693,2.767-2.289,5.065-3.66,7.548c-0.138-0.105-0.237-0.165-0.316-0.244
		c-2.867-2.88-6.375-4.533-10.304-5.369c-2.398-0.51-4.827-0.73-7.277-0.769c-4.114-0.066-8.214,0.248-12.319,0.411
		c-3.426,0.136-6.857,0.192-10.241-0.546c-0.197-0.043-0.392-0.092-0.586-0.144c-0.094-0.025-0.184-0.065-0.337-0.12
		c0.439-1.088,0.508-2.17-0.007-3.233c-0.351-0.725-0.884-1.283-1.598-1.661c-1.439-0.763-3.173-0.51-4.33,0.631
		c-1.141,1.125-1.419,2.816-0.717,4.254c0.63,1.291,2.205,2.384,4.276,1.947c0.052,0.367,0.135,0.729,0.151,1.095
		c0.091,2.094,0.083,4.191-0.21,6.268c-0.53,3.767-1.12,7.526-1.68,11.289c-0.538,3.62-0.937,7.251-0.808,10.921
		c0.222,6.343,2.23,11.947,6.819,16.483c0.103,0.102,0.192,0.217,0.287,0.325c-1.319,1.219-4.892,3.103-6.219,3.27
		c-0.036-0.213-0.074-0.428-0.109-0.644c-0.232-1.425-1.389-2.425-2.834-2.45c-1.437-0.026-2.69,0.975-2.934,2.341
		c-0.261,1.464,0.501,2.836,1.887,3.311c0.99,0.339,1.939,0.213,2.791-0.429c0.18-0.136,0.341-0.297,0.583-0.511
		c1.181,1.913,1.67,4.038,2.26,6.219c-0.323,0-0.59,0.029-0.848-0.004c-4.307-0.551-8.311,0.361-12.063,2.49
		c-2.608,1.481-4.932,3.346-6.985,5.511c-2.393,2.524-4.688,5.143-6.991,7.751c-2.087,2.363-4.12,4.775-6.491,6.869
		c-1.021,0.902-2.088,1.742-3.298,2.466c-0.143-0.239-0.261-0.455-0.395-0.659c-0.84-1.276-2.028-1.859-3.544-1.708
		c-1.429,0.142-2.41,0.93-3.007,2.22c-0.126,0.272-0.264,0.537-0.397,0.806c0,0.454,0,0.908,0,1.362
		c0.1,0.134,0.237,0.254,0.293,0.405c0.507,1.366,1.452,2.234,2.899,2.464c1.534,0.243,2.77-0.301,3.684-1.562
		c0.058-0.08,0.123-0.155,0.24-0.302c0.283,0.22,0.56,0.424,0.825,0.644c2.269,1.875,4.187,4.083,6.001,6.383
		c2.327,2.95,4.593,5.949,6.933,8.888c2.252,2.828,4.711,5.462,7.589,7.677c3.043,2.342,6.401,3.997,10.2,4.686
		c1.541,0.28,3.096,0.408,4.665,0.363c0.273-0.008,0.546-0.001,0.941-0.001c-0.654,2.473-1.163,4.896-2.461,7.073
		c-1.702-1.287-2.924-1.425-4.163-0.51c-1.021,0.754-1.437,2.107-1.018,3.31c0.44,1.264,1.619,2.03,3.003,1.951
		c1.481-0.085,2.276-0.968,2.819-3.166c2.338,0.678,4.302,2.04,6.387,3.383c-0.277,0.241-0.496,0.436-0.719,0.624
		c-4.097,3.457-6.72,7.791-7.78,13.058c-0.49,2.436-0.614,4.898-0.556,7.375c0.083,3.564,0.624,7.077,1.157,10.591
		c0.484,3.189,0.984,6.376,1.384,9.576c0.269,2.152,0.35,4.324,0.077,6.492c-0.012,0.096-0.034,0.192-0.06,0.332
		c-1.363-0.259-2.572,0.004-3.563,0.978c-0.779,0.765-1.13,1.704-1.09,2.8c0.075,2.068,1.934,3.696,4.043,3.482
		c1.259-0.128,2.227-0.765,2.861-1.868c0.635-1.105,0.584-2.261,0.104-3.506c0.883-0.175,1.684-0.379,2.497-0.488
		c2.985-0.399,5.98-0.369,8.983-0.231c4.558,0.21,9.117,0.554,13.683,0.328c3.412-0.169,6.759-0.709,9.932-2.063
		c2.64-1.127,4.92-2.748,6.81-4.912c0.131-0.15,0.269-0.293,0.404-0.44c1.088,1.029,3.613,5.712,3.927,7.303
		c-1.012,0.037-1.939,0.297-2.616,1.112c-0.4,0.481-0.621,1.038-0.656,1.659c-0.071,1.241,0.781,2.423,2.006,2.805
		c1.277,0.399,2.676-0.083,3.399-1.171c0.778-1.171,0.597-2.44-0.589-3.772c0.278-0.168,0.536-0.347,0.813-0.487
		c1.56-0.789,3.227-1.277,4.908-1.72c1.241-0.327,2.487-0.635,3.731-0.946c0.143-0.036,0.294-0.038,0.483-0.061
		c0.024,0.194,0.061,0.36,0.062,0.527c0.02,4.059,1.159,7.8,3.21,11.28c1.719,2.915,3.886,5.477,6.382,7.735
		c2.804,2.536,5.706,4.965,8.59,7.413c2.424,2.057,4.878,4.08,7,6.46c0.72,0.808,1.385,1.664,2.117,2.549
		c-0.206,0.161-0.352,0.281-0.505,0.392c-1.153,0.843-1.703,1.976-1.567,3.399c0.14,1.463,0.958,2.452,2.272,3.059
		c0.222,0.103,0.436,0.223,0.654,0.336c0.454,0,0.908,0,1.362,0c0.203-0.097,0.402-0.207,0.611-0.289
		c1.417-0.557,2.269-1.574,2.419-3.097c0.153-1.553-0.49-2.74-1.81-3.563c-0.127-0.08-0.259-0.151-0.442-0.257
		c0.241-0.347,0.456-0.683,0.696-0.999c1.503-1.981,3.285-3.696,5.196-5.269c2.823-2.324,5.7-4.582,8.534-6.893
		c2.821-2.299,5.507-4.74,7.729-7.646c1.954-2.555,3.412-5.348,4.073-8.522c0.388-1.866,0.491-3.746,0.301-5.642
		c-0.025-0.245-0.033-0.492-0.055-0.838c2.621,0.487,5.196,0.848,7.6,1.985c-1.146,1.621-1.22,2.864-0.281,3.983
		c0.84,1,2.305,1.333,3.511,0.799c1.155-0.511,1.876-1.772,1.682-2.939c-0.25-1.503-1.285-2.307-3.279-2.501
		c0.026-0.186,0.016-0.386,0.085-0.553c0.414-0.999,0.802-2.013,1.287-2.977c0.463-0.921,1.032-1.789,1.559-2.679
		c0.048-0.081,0.121-0.148,0.213-0.258c0.109,0.102,0.207,0.176,0.283,0.268c2.971,3.546,6.816,5.584,11.282,6.568
		c3.174,0.699,6.391,0.872,9.622,0.785c3.73-0.101,7.457-0.303,11.186-0.44c3.028-0.111,6.049-0.045,9.035,0.556
		c0.336,0.068,0.667,0.162,1.063,0.26c-0.533,1.403-0.498,2.691,0.372,3.867c0.613,0.829,1.443,1.339,2.469,1.46
		c2.257,0.266,4.189-1.416,4.2-3.628c0.012-2.363-1.845-3.834-4.685-3.639c-0.046-0.383-0.121-0.772-0.137-1.164
		c-0.107-2.526,0.008-5.045,0.378-7.545c0.546-3.689,1.149-7.37,1.686-11.061c0.491-3.373,0.799-6.766,0.63-10.179
		c-0.285-5.742-2.033-10.922-6.001-15.22c-0.051-0.055-0.093-0.119-0.134-0.182c-0.013-0.019-0.011-0.049-0.03-0.15
		c2.093-1.312,4.135-2.771,6.589-3.498c0.39,2.115,1.254,3.081,2.805,3.188c1.374,0.095,2.558-0.672,3-1.943
		c0.44-1.265-0.027-2.646-1.147-3.392c-1.203-0.801-2.579-0.609-3.993,0.611c-0.21-0.381-0.433-0.736-0.609-1.112
		c-0.783-1.677-1.232-3.462-1.665-5.25c-0.213-0.879-0.401-1.764-0.609-2.684c0.647-0.057,1.245-0.115,1.844-0.161
		c4.374-0.332,8.244-1.968,11.755-4.537c2.623-1.919,4.923-4.186,6.966-6.695c2.453-3.01,4.808-6.1,7.206-9.154
		c1.917-2.442,3.875-4.848,6.21-6.915c0.378-0.334,0.771-0.65,1.16-0.971c0.096-0.079,0.202-0.146,0.339-0.244
		c0.124,0.142,0.242,0.262,0.343,0.395c0.934,1.218,2.183,1.703,3.667,1.433c1.39-0.253,2.364-1.066,2.787-2.46
		c0.012-0.038,0.071-0.061,0.109-0.092c0-0.706,0-1.413,0-2.119C266.721,132.373,266.597,132.08,266.434,131.81z M181.54,56.876
		c2.274-2.58,5.141-4.175,8.436-5.048c2.078-0.551,4.198-0.837,6.343-0.918c3.784-0.143,7.561,0.043,11.34,0.247
		c3.247,0.175,6.501,0.335,9.751,0.027c1.048-0.099,2.091-0.265,3.242-0.414c0,0.246,0.005,0.419-0.001,0.592
		c-0.116,3.216,0.252,6.395,0.725,9.565c0.561,3.764,1.19,7.518,1.679,11.291c0.461,3.562,0.56,7.14-0.083,10.702
		c-0.597,3.31-1.88,6.315-3.992,8.949c-0.14,0.175-0.298,0.336-0.409,0.461c-2.52-1.404-5.002-2.786-7.545-4.202
		c0.02-0.078,0.049-0.245,0.107-0.401c0.799-2.151,1.122-4.393,1.214-6.668c0.117-2.878-0.133-5.745-0.348-8.613
		c-0.149-1.986-0.27-3.975-0.347-5.965c-0.069-1.773,0.173-3.521,0.619-5.24c0.05-0.192,0.079-0.388,0.136-0.677
		c-0.242,0.064-0.43,0.089-0.597,0.162c-2.374,1.042-4.88,1.394-7.445,1.407c-2.926,0.014-5.852-0.015-8.778-0.008
		c-2.627,0.006-5.247,0.163-7.778,0.921c-1.221,0.365-2.389,0.905-3.642,1.39c-1.067-2.155-2.179-4.402-3.32-6.709
		C181.069,57.454,181.294,57.155,181.54,56.876z M185.528,67.873c-0.154-0.425-0.319-0.846-0.507-1.341
		c0.254-0.162,0.494-0.334,0.75-0.477c1.518-0.847,3.17-1.268,4.873-1.527c1.774-0.271,3.561-0.343,5.352-0.332
		c1.942,0.012,3.884,0.018,5.826,0.032c2.597,0.018,5.19-0.03,7.829-0.607c0,0.312,0.013,0.578-0.002,0.842
		c-0.145,2.5,0.028,4.99,0.236,7.479c0.261,3.117,0.513,6.235,0.374,9.366c-0.084,1.896-0.363,3.761-1.023,5.554
		c-0.06,0.162-0.134,0.319-0.232,0.549c-7.831-3.028-15.75-2.945-23.907-0.64c0.244-0.451,0.401-0.735,0.553-1.022
		c1.212-2.291,1.82-4.736,1.896-7.324C187.656,74.756,186.764,71.282,185.528,67.873z M113.145,47.139
		c0.599-3.759,2.308-7.008,4.646-9.96c1.982-2.503,4.278-4.698,6.7-6.762c2.745-2.339,5.534-4.627,8.28-6.964
		c2.058-1.751,4.003-3.621,5.704-5.73c0.093-0.115,0.151-0.258,0.24-0.411c0.192,0.176,0.273,0.232,0.332,0.306
		c2.047,2.591,4.515,4.746,7.065,6.815c2.86,2.319,5.75,4.601,8.582,6.954c2.138,1.776,4.1,3.739,5.767,5.977
		c1.631,2.189,2.863,4.566,3.396,7.267c0.304,1.542,0.405,3.095,0.213,4.705c-2.453,0.376-4.905,0.752-7.353,1.128
		c-0.045-0.033-0.104-0.054-0.122-0.093c-1.186-2.623-3.015-4.767-5.094-6.702c-1.642-1.528-3.373-2.962-5.04-4.464
		c-1.592-1.434-3.182-2.872-4.718-4.365c-1.071-1.041-1.918-2.27-2.577-3.62c-0.165-0.338-0.351-0.666-0.566-1.073
		c-0.138,0.177-0.261,0.288-0.326,0.427c-1.151,2.433-2.883,4.428-4.763,6.308c-1.427,1.427-2.885,2.822-4.323,4.238
		c-1.763,1.736-3.468,3.524-4.941,5.519c-1.022,1.384-1.917,2.841-2.56,4.443c-0.055,0.137-0.124,0.269-0.178,0.386
		c-2.89-0.679-5.681-1.335-8.569-2.013C112.858,48.713,113.02,47.922,113.145,47.139z M154.645,51.035
		c-7.13,1.88-12.751,5.684-16.385,12.241c-0.134-0.2-0.21-0.295-0.266-0.399c-1.701-3.177-4.214-5.56-7.258-7.423
		c-2.049-1.254-4.232-2.218-6.491-3.021c-0.232-0.082-0.459-0.177-0.756-0.292c0.866-2.236,2.139-4.11,3.65-5.813
		c1.337-1.507,2.755-2.944,4.161-4.388c1.881-1.932,3.799-3.828,5.674-5.766c0.557-0.575,1.023-1.237,1.57-1.906
		c0.145,0.174,0.272,0.317,0.388,0.467c1.587,2.045,3.524,3.736,5.464,5.426c1.882,1.638,3.777,3.263,5.623,4.941
		c1.401,1.274,2.668,2.68,3.688,4.289C154.027,49.895,154.302,50.43,154.645,51.035z M55.434,91.162
		c-2.12-2.901-3.259-6.176-3.669-9.72c-0.399-3.456-0.218-6.903,0.271-10.333c0.515-3.617,1.109-7.223,1.637-10.839
		c0.423-2.896,0.73-5.805,0.657-8.74c-0.006-0.224-0.001-0.448-0.001-0.725c0.171,0,0.314-0.023,0.448,0.004
		c1.736,0.351,3.498,0.469,5.26,0.515c3.608,0.094,7.206-0.202,10.808-0.357c3.376-0.145,6.759-0.251,10.128,0.124
		c2.64,0.294,5.211,0.88,7.608,2.083c1.684,0.846,3.183,1.939,4.474,3.315c0.171,0.182,0.329,0.375,0.434,0.497
		c-1.105,2.447-2.182,4.83-3.272,7.244c-0.06-0.024-0.178-0.062-0.286-0.117c-2.285-1.167-4.742-1.718-7.274-1.817
		c-3.198-0.124-6.402-0.108-9.604-0.135c-2.017-0.017-4.032,0-6.036-0.309c-1.229-0.19-2.403-0.541-3.55-1.005
		c-0.272-0.11-0.553-0.2-0.928-0.335c0.064,0.346,0.091,0.589,0.156,0.821c0.734,2.619,0.673,5.288,0.499,7.963
		c-0.199,3.07-0.456,6.137-0.588,9.209c-0.123,2.857,0.062,5.703,0.968,8.447c0.33,1.001,0.777,1.963,1.203,3.024
		c-2.096,1.424-4.254,2.89-6.44,4.375C57.241,93.39,56.284,92.325,55.434,91.162z M65.292,64.343
		c-0.008-0.221-0.001-0.442-0.001-0.635c1.326,0.145,2.62,0.306,3.918,0.42c0.802,0.07,1.61,0.09,2.416,0.093
		c3.252,0.013,6.506-0.039,9.757,0.033c2.219,0.049,4.418,0.361,6.503,1.196c0.601,0.241,1.173,0.556,1.816,0.865
		c-1.754,6.431-1.413,12.761,0.513,19.14c-0.241-0.088-0.355-0.119-0.461-0.169c-4.147-1.987-8.44-2.113-12.824-0.987
		c-3.343,0.859-6.423,2.341-9.403,4.048c-0.218,0.125-0.435,0.254-0.654,0.377c-0.042,0.024-0.095,0.03-0.235,0.072
		c-0.121-0.208-0.266-0.43-0.384-0.666c-0.88-1.762-1.275-3.653-1.472-5.594c-0.282-2.773-0.092-5.538,0.113-8.306
		c0.19-2.563,0.341-5.13,0.473-7.697C65.406,65.806,65.318,65.073,65.292,64.343z M54.632,153.924
		c-0.708,2.099-1.428,4.194-2.126,6.295c-0.233,0.702-0.211,0.694-0.998,0.746c-5.741,0.379-10.684-1.529-15.022-5.204
		c-2.709-2.295-5.016-4.962-7.199-7.742c-2.257-2.875-4.474-5.783-6.745-8.647c-1.49-1.879-3.121-3.635-4.935-5.212
		c-0.113-0.099-0.259-0.16-0.443-0.27c0.51-0.39,0.888-0.673,1.26-0.965c2.411-1.895,4.485-4.132,6.502-6.424
		c2.315-2.631,4.599-5.29,6.943-7.896c1.621-1.801,3.39-3.457,5.335-4.912c2.325-1.739,4.836-3.088,7.714-3.661
		c2.256-0.45,4.506-0.381,6.755,0.063c0.281,0.056,0.451,0.179,0.532,0.454c0.596,2.001,1.196,4.001,1.809,6.046
		c-0.09,0.037-0.219,0.125-0.357,0.141c-1.812,0.215-3.446,0.907-4.992,1.839c-2.047,1.233-3.814,2.812-5.469,4.513
		c-1.653,1.698-3.237,3.464-4.883,5.169c-1.068,1.106-2.169,2.181-3.298,3.224c-1.154,1.065-2.456,1.928-3.903,2.559
		c-0.343,0.15-0.676,0.325-1.119,0.54c0.315,0.196,0.499,0.325,0.696,0.43c1.869,0.994,3.479,2.326,4.92,3.856
		c1.834,1.944,3.618,3.935,5.43,5.9c1.918,2.079,3.914,4.075,6.239,5.709c1.981,1.392,4.118,2.427,6.528,2.832
		c0.297,0.05,0.596,0.086,0.948,0.136C54.711,153.609,54.684,153.771,54.632,153.924z M55.787,151.407
		c-0.938,0.038-1.824-0.133-2.697-0.363c-2.264-0.598-4.189-1.824-5.983-3.281c-2.023-1.643-3.786-3.551-5.542-5.467
		c-1.618-1.766-3.231-3.537-4.888-5.267c-0.762-0.795-1.622-1.496-2.483-2.281c0.168-0.129,0.316-0.252,0.472-0.363
		c2.216-1.573,4.049-3.555,5.908-5.512c1.788-1.883,3.571-3.772,5.407-5.608c1.232-1.232,2.614-2.294,4.136-3.159
		c1.148-0.652,2.363-1.126,3.673-1.324c0.37-0.056,0.748-0.057,1.181-0.088c3.327,7.604,8.821,13.18,16.097,17.199
		C64.399,139.597,59.178,144.592,55.787,151.407z M92.39,215.802c-2.343,3.027-5.435,4.894-9.104,5.863
		c-2.078,0.549-4.196,0.822-6.339,0.921c-3.834,0.177-7.658-0.062-11.485-0.254c-3.197-0.161-6.399-0.318-9.597-0.023
		c-0.901,0.083-1.795,0.244-2.692,0.364c-0.167,0.022-0.336,0.021-0.546,0.032c-0.01-0.164-0.028-0.285-0.022-0.405
		c0.136-2.986-0.178-5.943-0.61-8.888c-0.54-3.689-1.162-7.366-1.673-11.059c-0.429-3.1-0.621-6.22-0.363-9.353
		c0.501-6.098,3.053-11.107,7.899-14.901c0.119-0.093,0.241-0.182,0.366-0.268c0.103-0.071,0.212-0.134,0.381-0.24
		c1.987,1.351,3.943,2.68,5.922,4.026c-0.084,0.126-0.144,0.234-0.221,0.329c-1.83,2.235-2.719,4.855-3.136,7.667
		c-0.447,3.014-0.31,6.036-0.095,9.057c0.159,2.238,0.345,4.474,0.492,6.712c0.156,2.379,0.01,4.736-0.626,7.047
		c-0.038,0.14-0.048,0.288-0.089,0.544c0.349-0.12,0.629-0.193,0.89-0.309c2.112-0.934,4.354-1.255,6.63-1.289
		c3.706-0.056,7.414,0.017,11.119-0.059c2.344-0.048,4.679-0.33,6.896-1.161c1.032-0.387,2.017-0.897,3.034-1.356
		c1.052,2.102,2.142,4.276,3.278,6.545C92.636,215.437,92.524,215.628,92.39,215.802z M88.722,206.59
		c-0.752,0.662-1.602,1.09-2.489,1.446c-1.507,0.604-3.083,0.952-4.695,1.057c-1.884,0.123-3.775,0.165-5.663,0.199
		c-1.487,0.026-2.975-0.014-4.463-0.025c-2.596-0.02-5.187,0.042-7.818,0.607c0-0.287-0.016-0.528,0.002-0.766
		c0.155-1.968,0.03-3.93-0.104-5.892c-0.234-3.444-0.634-6.88-0.53-10.341c0.068-2.28,0.356-4.521,1.21-6.657
		c0.509-1.273,1.201-2.433,2.18-3.466c0.253,0.141,0.492,0.268,0.725,0.404c2.989,1.741,6.072,3.271,9.424,4.198
		c1.951,0.54,3.932,0.859,5.962,0.839c1.75-0.017,3.457-0.296,5.123-0.829c0.238-0.076,0.477-0.15,0.874-0.275
		C86.71,193.701,86.629,200.16,88.722,206.59z M160.301,235.675c-1.817,2.478-3.994,4.614-6.349,6.564
		c-2.738,2.267-5.536,4.462-8.298,6.7c-2.531,2.052-4.962,4.209-6.994,6.778c-0.043,0.055-0.114,0.088-0.181,0.139
		c-0.068-0.05-0.137-0.082-0.18-0.136c-2.351-2.928-5.174-5.368-8.034-7.772c-2.625-2.206-5.264-4.398-7.843-6.657
		c-2.147-1.881-4.101-3.957-5.774-6.282c-1.895-2.634-3.256-5.501-3.809-8.721c-0.244-1.42-0.32-2.848-0.228-4.286
		c2.672-0.759,5.302-1.507,7.955-2.261c0.158,0.527,0.301,1.059,0.476,1.582c0.862,2.578,2.323,4.811,4.098,6.829
		c1.448,1.645,2.994,3.205,4.526,4.774c1.603,1.642,3.26,3.232,4.856,4.88c1.322,1.365,2.438,2.889,3.268,4.609
		c0.087,0.181,0.192,0.355,0.294,0.528c0.023,0.039,0.074,0.063,0.167,0.138c0.09-0.142,0.193-0.27,0.259-0.414
		c1.09-2.388,2.775-4.318,4.71-6.041c1.882-1.677,3.805-3.309,5.708-4.965c1.58-1.375,3.116-2.796,4.48-4.392
		c1.572-1.839,2.868-3.832,3.469-6.214c0.017-0.069,0.072-0.129,0.121-0.212c2.188,0.501,4.319,0.989,6.566,1.504
		c0.073,0.611,0.179,1.275,0.228,1.943C164.105,228.537,162.787,232.285,160.301,235.675z M162.139,190.775
		c-0.039,0.035-0.078,0.069-0.117,0.104c2.671,6.89,5.341,13.78,8.012,20.67c-0.052,0.029-0.104,0.057-0.155,0.086
		c-0.858-1.261-1.63-2.58-2.447-3.869c-0.837-1.32-1.655-2.652-2.483-3.978c-0.841-1.347-1.685-2.693-2.527-4.04
		c-0.828-1.326-1.654-2.653-2.482-3.978c-0.825-1.319-1.652-2.637-2.627-3.928c-0.416,6.927-0.832,13.854-1.248,20.781
		c-0.041,0.005-0.081,0.01-0.122,0.015c-0.059-0.442-0.133-0.883-0.174-1.328c-0.347-3.791-0.702-7.581-1.026-11.374
		c-0.292-3.417-0.548-6.836-0.821-10.254c-0.026-0.327-0.064-0.653-0.1-0.979c-0.067-0.589-0.206-0.756-0.81-0.759
		c-0.448-0.002-0.912,0.048-1.343,0.169c-2.342,0.659-4.488,1.763-6.676,2.961c0.137,0.423,0.246,0.829,0.398,1.22
		c1.894,4.861-0.869,10.12-5.944,11.298c-0.389,0.09-0.787,0.142-1.27,0.228c2.841,8.307,8.593,13.535,16.811,16.321
		c-0.187,0.597-0.322,1.13-0.519,1.638c-0.657,1.694-1.718,3.132-2.914,4.476c-1.732,1.948-3.711,3.632-5.686,5.322
		c-1.169,1-2.344,1.994-3.491,3.019c-1.487,1.328-2.903,2.729-4.111,4.385c-0.121-0.101-0.23-0.162-0.298-0.254
		c-1.273-1.737-2.791-3.25-4.306-4.769c-2.137-2.142-4.288-4.273-6.375-6.464c-1.342-1.409-2.517-2.971-3.369-4.729
		c-0.502-1.036-0.846-2.15-1.249-3.233c-0.059-0.159-0.052-0.342-0.084-0.569c0.258-0.116,0.502-0.232,0.752-0.335
		c2.761-1.138,5.39-2.511,7.736-4.382c3.299-2.631,5.568-5.936,6.579-10.063c0.024-0.096,0.038-0.195,0.06-0.31
		c-0.661-0.096-1.313-0.143-1.942-0.29c-4.217-0.984-6.926-4.782-6.469-9.111c0.061-0.58-0.072-1-0.474-1.34
		c-0.46-0.388-0.93-0.785-1.455-1.068c-1.685-0.908-3.53-1.299-5.498-1.588c-0.215,2.641-0.175,5.253-0.29,7.858
		c-0.116,2.646-0.146,5.295-0.223,7.942c-0.076,2.615-0.164,5.23-0.388,7.861c-1.664-6.836-3.327-13.672-4.991-20.509
		c-0.05-0.006-0.099-0.013-0.149-0.019c-3.452,6.614-6.903,13.227-10.355,19.841c-0.056-0.023-0.111-0.046-0.167-0.069
		c2.235-7.444,4.469-14.887,6.704-22.33c-0.039-0.032-0.078-0.065-0.117-0.098c-5.507,4.383-11.014,8.766-16.646,13.249
		c0.078-0.394,0.279-0.534,0.426-0.691c3.072-3.274,6.141-6.552,9.228-9.813c2.289-2.418,4.603-4.813,6.904-7.219
		c0.509-0.532,0.523-0.8,0.029-1.343c-0.219-0.241-0.473-0.454-0.732-0.653c-1.122-0.859-3.913-2.313-5.407-2.82
		c-1.882,2.854-4.533,4.362-8.011,4.104c-2.363-0.175-4.317-1.248-5.824-3.105c-3.049-3.759-2.407-10.045,2.903-12.831
		c0.091-0.632-0.067-1.239-0.265-1.839c-0.531-1.616-2.025-4.039-3.336-5.373c-5.965,5.524-11.933,11.051-17.901,16.577
		c-0.04-0.029-0.08-0.057-0.12-0.086c1.924-3.075,3.878-6.131,5.816-9.197c1.947-3.079,3.896-6.158,5.75-9.346
		c-7.295,2.32-14.59,4.64-21.885,6.96c-0.024-0.056-0.047-0.112-0.071-0.168c7.057-3.793,14.115-7.586,21.172-11.378
		c-0.01-0.053-0.019-0.106-0.029-0.159c-7.095-0.771-14.189-1.542-21.284-2.313c-0.005-0.026-0.011-0.051-0.016-0.077
		c0.163-0.039,0.324-0.087,0.489-0.114c0.174-0.029,0.35-0.048,0.526-0.055c1.512-0.06,3.023-0.126,4.536-0.173
		c3.831-0.119,7.663-0.226,11.495-0.344c2.521-0.078,5.041-0.167,7.562-0.249c0.746-0.024,0.919-0.172,0.944-0.934
		c0.013-0.401-0.004-0.813-0.086-1.204c-0.517-2.456-1.494-4.745-2.529-7.027c-4.231,1.498-7.859,0.785-10.564-2.907
		c-2.019-2.756-1.967-6.555-0.05-9.386c1.147-1.694,2.713-2.822,4.679-3.384c1.936-0.554,3.834-0.363,5.749,0.409
		c1.116-2.31,2.248-4.557,2.727-7.059c0.07-0.364,0.042-0.754,0.013-1.129c-0.028-0.374-0.253-0.591-0.645-0.605
		c-0.176-0.007-0.352-0.026-0.529-0.031c-2.975-0.07-5.951-0.121-8.926-0.213c-4.487-0.138-8.973-0.301-13.459-0.463
		c-0.753-0.027-1.504-0.107-2.26-0.254c7.193-0.782,14.386-1.564,21.579-2.346c-1.074-0.809-2.252-1.392-3.403-2.021
		c-1.172-0.641-2.353-1.262-3.53-1.894c-1.176-0.632-2.351-1.266-3.528-1.898c-1.176-0.632-2.354-1.26-3.531-1.892
		c-1.176-0.632-2.35-1.268-3.526-1.901c-1.167-0.629-2.335-1.256-3.503-1.884c0.025-0.061,0.051-0.122,0.076-0.184
		c7.247,2.304,14.494,4.608,21.742,6.913c0.038-0.043,0.076-0.085,0.113-0.128c-3.879-6.128-7.757-12.256-11.636-18.384
		c0.04-0.033,0.08-0.066,0.12-0.099c5.962,5.521,11.925,11.042,17.941,16.612c1.613-2.393,3.091-4.744,3.633-7.591
		c-2.139-0.922-3.714-2.34-4.652-4.412c-0.741-1.638-0.909-3.341-0.57-5.1c0.665-3.447,3.491-6.139,7.089-6.631
		c3.205-0.438,7.096,0.938,9.029,5.367c0.08-0.019,0.173-0.029,0.257-0.063c1.965-0.791,3.904-1.641,5.721-2.735
		c0.644-0.388,1.265-0.835,1.823-1.337c0.651-0.585,0.614-0.861-0.012-1.478c-5.01-4.943-10.022-9.884-15.029-14.83
		c-0.694-0.685-1.365-1.394-1.991-2.159c5.707,4.123,11.338,8.342,17.057,12.497c-1.147-3.769-2.432-7.48-3.674-11.205
		c-1.242-3.723-2.503-7.439-3.756-11.157c0.045-0.021,0.09-0.043,0.135-0.064c3.701,6.564,7.402,13.127,11.103,19.691
		c0.05-0.007,0.1-0.015,0.151-0.022c1.424-6.861,2.848-13.722,4.272-20.583c0.054,0.005,0.108,0.01,0.163,0.015
		c0.235,8.173,0.47,16.346,0.709,24.639c2.549-0.769,4.935-1.651,7.011-3.265c-0.556-3.993,0.699-7.19,4.276-9.152
		c2.968-1.628,6.021-1.447,8.779,0.533c3.264,2.343,4.127,5.618,3.169,9.523c1.381,0.801,2.768,1.597,4.365,1.94
		c0.122,0.026,0.251,0.024,0.377,0.021c0.578-0.01,0.705-0.095,0.813-0.671c0.241-1.288,0.453-2.581,0.689-3.87
		c1.164-6.345,2.331-12.689,3.5-19.033c0.044-0.24,0.121-0.473,0.311-0.694c-0.243,6.925-0.485,13.85-0.728,20.775
		c0.048,0.02,0.096,0.04,0.144,0.06c4.781-6.263,9.562-12.525,14.343-18.788c0.043,0.025,0.087,0.049,0.13,0.074
		c-1.628,3.349-3.324,6.665-4.983,9.998c-1.67,3.355-3.351,6.704-5.027,10.056c0.035,0.042,0.069,0.085,0.104,0.127
		c6.638-2.869,13.275-5.737,19.913-8.606c0.027,0.041,0.055,0.081,0.083,0.122c-6.327,4.951-12.653,9.901-19.044,14.903
		c1.717,1.563,3.43,2.995,5.658,3.61c0.999,0.276,1.925,0.154,2.892-0.389c1.115-0.625,2.004-1.409,2.868-2.341
		c2.417-2.606,6.229-3.28,9.455-1.816c3.213,1.459,5.217,4.814,4.878,8.326c-0.286,2.968-1.773,5.199-4.382,6.666
		c-0.218,0.123-0.443,0.234-0.664,0.353c-0.02,0.011-0.031,0.038-0.078,0.098c0.04,0.135,0.07,0.306,0.139,0.46
		c0.857,1.907,1.69,3.825,2.596,5.708c0.358,0.743,0.866,1.418,1.34,2.099c0.289,0.415,0.655,0.77,1.268,0.9
		c5.963-5.432,11.96-10.896,17.945-16.349c0.101,0.092,0.125,0.105,0.136,0.126c0.009,0.018,0.01,0.047,0.001,0.066
		c-0.02,0.045-0.042,0.092-0.074,0.129c-4.578,5.278-9.156,10.556-13.733,15.834c-0.013,0.016-0.008,0.047-0.03,0.191
		c7.827-2.03,15.609-4.048,23.391-6.066c0.019,0.055,0.038,0.109,0.057,0.163c-6.939,3.259-13.879,6.517-20.818,9.776
		c0,0.05,0,0.1,0,0.15c7.01,1.856,14.02,3.712,21.031,5.568c-0.006,0.045-0.013,0.091-0.019,0.136
		c-7.605-0.402-15.209-0.803-22.933-1.211c0.053,0.571,0.09,1.084,0.15,1.594c0.224,1.906,0.559,3.789,1.211,5.602
		c0.3,0.834,0.665,1.634,1.239,2.323c0.235,0.282,0.498,0.439,0.891,0.48c1.391,0.146,2.692,0.641,3.955,1.206
		c1.041,0.466,1.858,1.246,2.357,2.269c1.093,2.24,1.519,4.596,0.865,7.046c-1.024,3.837-4.561,6.231-8.116,6.149
		c-0.101-0.002-0.208,0.019-0.302-0.007c-0.931-0.252-1.461,0.27-1.922,0.964c-0.926,1.394-1.367,2.965-1.685,4.581
		c-0.106,0.539-0.168,1.086-0.268,1.752c8.208,0.002,16.335,0,24.462,0.001c0.01,0.053,0.019,0.107,0.028,0.16
		c-7.026,1.86-14.052,3.721-21.079,5.581c-0.01,0.048-0.02,0.097-0.03,0.145c6.96,3.268,13.919,6.536,20.879,9.805
		c-0.017,0.052-0.034,0.104-0.051,0.156c-7.804-2.024-15.607-4.048-23.411-6.072c-0.025,0.039-0.049,0.079-0.074,0.118
		c4.699,5.411,9.398,10.821,14.097,16.232c-0.037,0.037-0.075,0.074-0.112,0.111c-0.996-0.837-2.004-1.66-2.986-2.513
		c-5.16-4.484-10.314-8.974-15.468-13.465c-0.775-0.675-1.097-0.679-1.69,0.146c-0.379,0.528-0.738,1.099-0.963,1.704
		c-0.684,1.839-1.3,3.704-1.938,5.561c-0.031,0.091-0.02,0.197-0.032,0.331c4.063,1.952,5.517,5.728,4.977,9.123
		c-0.542,3.404-3.258,6.198-6.724,6.839c-3.317,0.614-7.331-0.703-9.363-5.055c-1.328,0.085-5.045,1.887-6.941,3.392
		c5.839,5.521,11.666,11.032,17.494,16.543c-0.028,0.04-0.056,0.08-0.085,0.12C174.817,197.727,168.478,194.251,162.139,190.775z
		 M209.774,209.405c0.007,0.071-0.013,0.145-0.026,0.277c-0.146,0-0.291,0.026-0.423-0.004c-1.856-0.422-3.747-0.502-5.635-0.527
		c-2.067-0.027-4.135,0.058-6.203,0.068c-2.345,0.011-4.689-0.048-7.012-0.413c-1.5-0.236-2.954-0.624-4.312-1.323
		c-0.241-0.124-0.471-0.27-0.685-0.394c0.683-1.468,1.379-2.867,1.992-4.302c0.943-2.208,1.639-4.494,1.941-6.888
		c0.413-3.277,0.041-6.436-1.394-9.439c-0.076-0.159-0.149-0.32-0.217-0.482c-0.018-0.044-0.012-0.098-0.027-0.251
		c6.985,1.548,13.86,1.325,20.603-1.182c0.622,0.937,0.978,1.929,1.268,2.944c0.551,1.93,0.784,3.913,0.742,5.908
		c-0.05,2.418-0.204,4.836-0.356,7.251C209.845,203.563,209.483,206.474,209.774,209.405z M223.126,190.865
		c0.529,3.314,0.476,6.643,0.043,9.952c-0.536,4.096-1.209,8.174-1.799,12.264c-0.411,2.846-0.725,5.703-0.658,8.587
		c0.006,0.274,0.001,0.549,0.001,0.923c-0.549-0.067-1.06-0.114-1.566-0.195c-2.075-0.33-4.169-0.375-6.259-0.345
		c-2.344,0.033-4.687,0.16-7.029,0.257c-1.511,0.063-3.021,0.163-4.532,0.215c-3.409,0.117-6.806-0.007-10.156-0.711
		c-3.454-0.726-6.537-2.181-9.019-4.752c-0.575-0.595-1.084-1.253-1.648-1.91c1.337-2.125,2.61-4.15,3.914-6.223
		c0.155,0.069,0.313,0.125,0.458,0.206c1.767,0.977,3.686,1.465,5.664,1.77c2.177,0.335,4.37,0.339,6.563,0.337
		c2.472-0.002,4.944-0.051,7.415-0.008c1.838,0.032,3.676,0.182,5.45,0.728c0.625,0.192,1.232,0.441,1.847,0.662
		c0.203,0.073,0.409,0.138,0.713,0.24c-0.106-0.456-0.183-0.819-0.275-1.178c-0.642-2.505-0.564-5.05-0.406-7.596
		c0.191-3.07,0.454-6.136,0.587-9.208c0.125-2.882-0.073-5.75-0.981-8.519c-0.288-0.88-0.674-1.728-0.993-2.532
		c2.376-1.287,4.742-2.568,7.173-3.885c0.1,0.093,0.27,0.233,0.419,0.393C220.842,183.314,222.485,186.85,223.126,190.865z
		 M220.83,150.405c-1.011-2.673-2.244-5.231-3.956-7.536c-2.502-3.369-5.72-5.706-9.808-6.785c-0.144-0.038-0.285-0.092-0.511-0.165
		c0.233-0.087,0.396-0.167,0.569-0.211c4.154-1.063,7.405-3.434,9.932-6.853c1.967-2.662,3.294-5.646,4.378-8.751
		c0.082-0.235,0.168-0.47,0.274-0.767c1.181,0.327,2.187,0.833,3.147,1.437c1.631,1.026,3.086,2.274,4.425,3.647
		c1.761,1.803,3.475,3.653,5.201,5.489c1.711,1.821,3.474,3.584,5.541,5.013c0.038,0.026,0.059,0.075,0.088,0.113
		c-0.014,0.049-0.013,0.115-0.045,0.14c-2.506,2.019-4.594,4.45-6.738,6.826c-1.773,1.966-3.555,3.923-5.576,5.645
		c-1.659,1.413-3.433,2.642-5.501,3.39c-0.325,0.118-0.663,0.201-1.05,0.318C221.064,151.003,220.944,150.705,220.83,150.405z
		 M256.896,134.332c-2.665,2.309-4.884,5.02-7.041,7.788c-2.139,2.744-4.246,5.515-6.432,8.221c-2.129,2.635-4.483,5.057-7.25,7.044
		c-2.639,1.896-5.533,3.201-8.758,3.685c-1.139,0.171-2.301,0.193-3.496,0.286c-0.684-2.715-1.344-5.339-2.014-7.999
		c0.142-0.055,0.274-0.116,0.412-0.159c2.796-0.89,5.143-2.52,7.309-4.444c2.116-1.881,3.982-4.004,5.887-6.089
		c1.242-1.359,2.497-2.706,3.78-4.026c1.217-1.253,2.578-2.333,4.121-3.173c0.303-0.165,0.588-0.36,0.951-0.583
		c-0.344-0.169-0.583-0.302-0.834-0.408c-1.813-0.765-3.41-1.867-4.793-3.246c-1.892-1.887-3.729-3.83-5.567-5.77
		c-1.666-1.758-3.338-3.509-5.24-5.02c-1.589-1.261-3.284-2.335-5.234-2.959c-0.115-0.037-0.221-0.103-0.338-0.158
		c0.581-2.38,1.152-4.723,1.749-7.167c0.835-0.097,1.706-0.139,2.58-0.125c3.83,0.062,7.146,1.53,10.183,3.747
		c2.664,1.945,4.949,4.294,7.125,6.753c1.605,1.813,3.173,3.658,4.761,5.485c2.534,2.915,5.122,5.775,8.312,8.059
		C256.999,134.178,256.964,134.274,256.896,134.332z"/>
	<linearGradient id="SVGID_2_" gradientUnits="userSpaceOnUse" x1="138.256" y1="186.0682" x2="138.256" y2="86.3062">
		<stop  offset="0" style="stop-color:#DF3729"/>
		<stop  offset="1" style="stop-color:#EFB538"/>
	</linearGradient>
	<path fill="url(#SVGID_2_)" d="M166.037,175.802c5.597-1.183,9.779-6.212,9.936-11.926c0.084-3.061-0.997-5.675-3.367-7.692
		c-0.112-0.096-0.253-0.158-0.261-0.163c1.085-2.512,2.111-4.885,3.149-7.288c0.058-0.004,0.157-0.019,0.256-0.017
		c3.078,0.069,5.501-1.248,7.42-3.567c1.711-2.066,2.575-4.485,2.779-7.143c0.253-3.288-0.514-6.31-2.485-8.98
		c-1.36-1.842-3.132-3.128-5.376-3.688c-0.653-0.163-1.33-0.228-1.983-0.336c-0.353-1.114-0.677-2.227-1.06-3.319
		c-0.389-1.11-0.837-2.2-1.265-3.317c1.248-0.946,2.213-2.092,2.87-3.488c1.003-2.132,1.18-4.36,0.751-6.649
		c-1.021-5.456-5.728-9.722-10.67-10.267c-2.954-0.326-5.532,0.435-7.725,2.457c-0.127,0.117-0.26,0.226-0.368,0.32
		c-1.486-0.78-2.907-1.592-4.385-2.282c-1.477-0.689-3.011-1.255-4.544-1.885c-0.033-0.281-0.072-0.579-0.104-0.879
		c-0.273-2.55-1.416-4.654-3.301-6.36c-3.994-3.616-10.284-4.046-14.8-1.008c-2.267,1.525-3.797,3.589-4.408,6.278
		c-0.149,0.658-0.207,1.336-0.315,2.06c-2.851,0.923-5.588,2.173-8.141,3.698c-0.124-0.073-0.173-0.092-0.21-0.125
		c-2.957-2.667-6.331-3.138-9.989-1.806c-5.159,1.878-8.639,7.329-8.26,12.838c0.163,2.37,0.997,4.458,2.633,6.204
		c0.084,0.09,0.154,0.193,0.157,0.197c-0.902,2.511-1.776,4.944-2.655,7.392c-0.017,0.004-0.066,0.021-0.116,0.023
		c-3.254,0.101-5.715,1.629-7.521,4.258c-3.255,4.738-2.786,11.687,1.061,16.031c1.518,1.715,3.383,2.85,5.663,3.23
		c0.565,0.094,1.143,0.103,1.63,0.144c1.056,2.434,2.087,4.81,3.191,7.355c0.005-0.002-0.1,0.03-0.174,0.096
		c-2.909,2.582-3.822,5.837-3.137,9.578c1.009,5.513,5.815,9.675,10.721,10.205c3.513,0.379,6.459-0.659,8.733-3.425
		c0.11-0.134,0.225-0.265,0.304-0.357c2.08,0.865,4.116,1.712,6.164,2.564c0.007,0.028,0.029,0.076,0.03,0.124
		c0.003,0.176,0,0.353-0.002,0.529c-0.047,2.883,1.004,5.315,3.044,7.325c4.096,4.037,10.981,4.455,15.62,0.939
		c2.364-1.792,3.801-4.141,4.087-7.127c0.059-0.617,0.009-1.245,0.009-1.759c2.187-0.913,4.247-1.772,6.393-2.667
		c0.025,0.04,0.069,0.132,0.131,0.211C158.708,175.591,162.077,176.639,166.037,175.802z M176.735,127.982
		c0.509,0.131,0.919,0.197,1.299,0.341c1.363,0.514,2.426,1.425,3.254,2.605c1.418,2.018,1.962,4.288,1.801,6.724
		c-0.145,2.192-0.852,4.186-2.309,5.869c-0.983,1.136-2.182,1.93-3.674,2.229c-0.264,0.053-0.537,0.065-0.919,0.108
		C177.619,139.903,177.779,134.029,176.735,127.982z M98.358,145.314c-1.417-0.648-2.524-1.669-3.317-2.993
		c-1.93-3.222-2.183-6.589-0.713-10.053c0.551-1.297,1.407-2.381,2.567-3.205c0.835-0.593,1.757-0.957,2.894-1.077
		c-1.041,6.019-0.881,11.911,0.528,17.813C99.559,145.792,98.947,145.584,98.358,145.314z M166.006,100.77
		c4.403,0.358,8.028,4.128,8.637,8.428c0.329,2.322-0.132,4.466-1.838,6.212c-0.053,0.054-0.108,0.106-0.166,0.154
		c-0.038,0.032-0.084,0.054-0.213,0.136c-1.423-2.573-3.062-5-4.981-7.229c-1.91-2.219-4.045-4.202-6.41-5.995
		C162.478,101.135,164.147,100.619,166.006,100.77z M147.994,100.651c9.122,2.884,15.889,8.637,20.521,16.947
		c2.629,4.717,4.078,9.806,4.475,15.182c0.381,5.163-0.224,10.216-1.915,15.124c-0.031,0.091-0.067,0.18-0.129,0.343
		c-0.229-0.261-0.146-0.514-0.151-0.734c-0.08-3.661-1.265-6.945-3.601-9.737c-2.64-3.155-6.074-4.706-10.219-4.333
		c-2.593,0.233-4.789,1.409-6.412,3.462c-1.741,2.204-2.747,4.716-2.498,7.574c0.235,2.707,1.395,4.994,3.567,6.671
		c1.487,1.148,3.215,1.53,5.071,1.179c1.616-0.305,2.77-1.29,3.6-2.655c0.552-0.908,0.315-2.117-0.465-2.838
		c-0.813-0.752-2.004-0.736-2.797,0.042c-0.107,0.105-0.215,0.218-0.291,0.346c-0.663,1.117-1.236,1.016-2.198,0.44
		c-1.373-0.823-2.001-2.077-1.987-3.668c0.023-2.561,1.744-4.757,4.194-5.233c1.591-0.309,3.12-0.015,4.503,0.846
		c2.475,1.54,3.9,3.801,4.179,6.675c0.565,5.819-3.356,10.838-9.15,11.76c-2.089,0.332-4.144,0.024-6.018-0.992
		c-3.765-2.04-6.376-5.061-7.468-9.253c-0.732-2.814-0.412-5.602,0.46-8.346c0.966-3.04,2.648-5.646,4.812-7.958
		c2.254-2.407,4.011-5.121,5.027-8.27c1.296-4.016,1.661-8.105,0.523-12.214c-1.255-4.53-3.875-8.098-7.865-10.63
		c-0.166-0.105-0.323-0.222-0.485-0.334c0.015-0.04,0.03-0.08,0.045-0.119C146.215,100.167,147.116,100.373,147.994,100.651z
		 M129.961,95.019c0.493-1.866,1.609-3.28,3.199-4.334c3.757-2.491,9.026-1.831,11.901,1.489c0.875,1.011,1.442,2.168,1.659,3.66
		c-5.667-1.247-11.228-1.249-16.887-0.006C129.885,95.493,129.9,95.25,129.961,95.019z M103.4,107.878
		c1.025-3.359,3.105-5.789,6.506-6.908c2.071-0.681,4.071-0.481,5.895,0.812c0.081,0.058,0.152,0.13,0.297,0.254
		c-4.795,3.465-8.626,7.772-11.578,12.916c-0.51-0.502-0.764-1.075-0.983-1.66C102.868,111.506,102.85,109.679,103.4,107.878z
		 M111.162,112.797c4.839-6.407,11.232-10.622,19.046-12.615c0.314-0.08,0.632-0.143,1.123-0.254
		c-0.26,0.215-0.376,0.329-0.509,0.417c-3.531,2.341-5.485,5.691-6.223,9.798c-0.523,2.906-0.261,5.734,1.063,8.407
		c1.266,2.555,3.115,4.545,5.865,5.491c6.592,2.267,12.38-3.076,11.644-9.349c-0.151-1.29-0.584-2.503-1.397-3.547
		c-0.859-1.103-2.017-1.734-3.35-2.055c-0.651-0.156-1.259,0.012-1.75,0.482c-0.701,0.672-0.91,1.515-0.665,2.428
		c0.232,0.868,0.821,1.414,1.734,1.597c0.971,0.195,1.126,0.404,1.256,1.408c0.287,2.221-1.479,4.548-3.973,4.527
		c-2.416-0.02-4.474-1.464-5.261-3.914c-1.454-4.527,1.02-9.86,5.728-11.329c2.221-0.693,4.344-0.319,6.39,0.616
		c3.537,1.617,5.573,4.462,6.463,8.175c0.797,3.326,0.206,6.502-1.136,9.585c-0.818,1.879-1.91,3.55-3.561,4.808
		c-1.566,1.193-3.354,1.804-5.295,2.026c-3.047,0.349-6.036-0.072-9.003-0.702c-1.927-0.409-3.851-0.744-5.835-0.707
		c-3.538,0.067-6.706,1.213-9.637,3.132c-4.836,3.167-7.456,7.67-8.07,13.374c-0.124,1.148-0.135,2.309-0.198,3.463
		c-0.046,0.014-0.092,0.028-0.138,0.041c-0.314-1.104-0.68-2.197-0.934-3.315C101.888,133.119,103.925,122.379,111.162,112.797z
		 M115.743,172.623c-1.961,0.855-3.956,0.79-5.877-0.036c-3.679-1.584-5.843-4.381-6.258-8.401
		c-0.185-1.789,0.289-3.454,1.427-4.887c0.213-0.269,0.469-0.505,0.765-0.819c3.276,4.969,7.355,9.025,12.368,12.185
		C117.508,171.587,116.702,172.205,115.743,172.623z M146.758,176.219c-0.147,1.702-0.854,3.146-2.042,4.36
		c-3.496,3.569-9.721,3.47-13.103-0.209c-1.057-1.15-1.679-2.503-1.842-4.059c-0.025-0.245-0.004-0.494-0.004-0.838
		c2.858,0.617,5.649,0.945,8.482,0.945c2.833,0,5.624-0.321,8.495-0.944C146.75,175.752,146.778,175.987,146.758,176.219z
		 M150.951,169.623c-4.131,1.7-8.438,2.528-12.893,2.501c-4.428-0.027-8.703-0.893-12.791-2.629
		c-4.072-1.729-8.648-4.812-10.937-7.404c1.014,0.297,1.963,0.629,2.936,0.85c3.976,0.902,7.541,0.056,10.658-2.598
		c2.368-2.016,3.959-4.498,4.442-7.603c0.665-4.279-0.631-7.893-3.938-10.685c-3.227-2.725-9.44-2.365-11.763,2.73
		c-0.853,1.871-0.758,3.717,0.048,5.561c0.497,1.137,1.522,1.643,2.561,1.288c1.065-0.364,1.713-1.548,1.439-2.676
		c-0.07-0.29-0.201-0.569-0.332-0.839c-0.366-0.757-0.316-1.162,0.246-1.783c1.198-1.322,3.114-1.61,4.604-0.633
		c1.913,1.256,2.712,3.097,2.477,5.328c-0.395,3.761-3.395,6.471-7.173,6.61c-3.276,0.12-5.767-1.266-7.481-3.994
		c-3.824-6.085-2.044-15.147,5.945-18.417c3.493-1.43,6.991-1.339,10.45,0.046c2.713,1.086,4.464,3.168,5.436,5.869
		c0.646,1.798,1.137,3.654,1.654,5.496c0.586,2.089,1.208,4.161,2.131,6.131c2.18,4.651,5.48,8.178,10.255,10.221
		c1.258,0.538,2.57,0.878,3.936,0.999c0.45,0.04,0.898,0.112,1.348,0.128c2.546,0.091,4.939-0.519,7.222-1.613
		c0.112-0.053,0.23-0.093,0.356-0.143C160.916,163.984,154.898,167.999,150.951,169.623z M158.597,170.796
		c-0.027-0.04-0.04-0.09-0.095-0.218c4.936-3.139,9.009-7.191,12.271-12.18c1.333,1.177,2.043,2.558,2.251,4.192
		c0.658,5.168-3.595,9.961-8.227,10.529c-2.387,0.293-4.435-0.315-6.061-2.144C158.686,170.918,158.638,170.858,158.597,170.796z"/>
	<linearGradient id="SVGID_3_" gradientUnits="userSpaceOnUse" x1="98.5425" y1="181.6421" x2="98.5425" y2="172.2821">
		<stop  offset="0" style="stop-color:#DF3729"/>
		<stop  offset="1" style="stop-color:#EFB538"/>
	</linearGradient>
	<path fill="url(#SVGID_3_)" d="M98.556,172.282c-2.602-0.004-4.651,2.037-4.71,4.609c-0.049,2.149,1.582,4.719,4.656,4.751
		c3.086,0.032,4.801-2.536,4.737-4.658C103.246,174.351,101.19,172.286,98.556,172.282z"/>
	<linearGradient id="SVGID_4_" gradientUnits="userSpaceOnUse" x1="137.8952" y1="82.1206" x2="137.8952" y2="72.7473">
		<stop  offset="0" style="stop-color:#DF3729"/>
		<stop  offset="1" style="stop-color:#EFB538"/>
	</linearGradient>
	<path fill="url(#SVGID_4_)" d="M137.843,82.117c2.554,0.1,4.753-2.068,4.746-4.643c-0.007-2.605-2.093-4.721-4.689-4.727
		c-2.567-0.006-4.677,2.074-4.699,4.633C133.178,80.022,135.215,82.101,137.843,82.117z"/>
	<linearGradient id="SVGID_5_" gradientUnits="userSpaceOnUse" x1="137.6123" y1="200.2037" x2="137.6123" y2="190.8407">
		<stop  offset="0" style="stop-color:#DF3729"/>
		<stop  offset="1" style="stop-color:#EFB538"/>
	</linearGradient>
	<path fill="url(#SVGID_5_)" d="M137.618,190.841c-3.001,0.003-4.755,2.481-4.707,4.78c0.053,2.559,2.146,4.604,4.742,4.583
		c2.634-0.021,4.655-2.1,4.661-4.732C142.319,193.294,140.595,190.838,137.618,190.841z"/>
	<linearGradient id="SVGID_6_" gradientUnits="userSpaceOnUse" x1="177.6176" y1="181.547" x2="177.6176" y2="172.1743">
		<stop  offset="0" style="stop-color:#DF3729"/>
		<stop  offset="1" style="stop-color:#EFB538"/>
	</linearGradient>
	<path fill="url(#SVGID_6_)" d="M177.688,172.174c-2.609-0.025-4.738,2.049-4.774,4.647c-0.036,2.582,2.081,4.717,4.685,4.725
		c2.626,0.009,4.719-2.062,4.724-4.674C182.327,174.3,180.254,172.198,177.688,172.174z"/>
	<linearGradient id="SVGID_7_" gradientUnits="userSpaceOnUse" x1="81.879" y1="140.3461" x2="81.879" y2="130.9647">
		<stop  offset="0" style="stop-color:#DF3729"/>
		<stop  offset="1" style="stop-color:#EFB538"/>
	</linearGradient>
	<path fill="url(#SVGID_7_)" d="M81.93,130.966c-2.505-0.061-4.768,2.024-4.748,4.645c-0.016,2.604,2.081,4.727,4.675,4.735
		c2.566,0.008,4.691-2.076,4.717-4.624C86.602,133.094,84.545,131.03,81.93,130.966z"/>
	<linearGradient id="SVGID_8_" gradientUnits="userSpaceOnUse" x1="194.3787" y1="141.2816" x2="194.3787" y2="131.9071">
		<stop  offset="0" style="stop-color:#DF3729"/>
		<stop  offset="1" style="stop-color:#EFB538"/>
	</linearGradient>
	<path fill="url(#SVGID_8_)" d="M194.369,141.282c2.625,0.004,4.711-2.074,4.708-4.689c-0.004-2.61-2.103-4.696-4.718-4.686
		c-2.597,0.009-4.694,2.131-4.679,4.734C189.695,139.202,191.793,141.278,194.369,141.282z"/>
	<linearGradient id="SVGID_9_" gradientUnits="userSpaceOnUse" x1="98.3204" y1="99.5915" x2="98.3204" y2="90.2042">
		<stop  offset="0" style="stop-color:#DF3729"/>
		<stop  offset="1" style="stop-color:#EFB538"/>
	</linearGradient>
	<path fill="url(#SVGID_9_)" d="M98.328,99.592c2.823-0.007,4.687-2.236,4.695-4.717c-0.019-2.594-2.18-4.718-4.751-4.67
		c-2.591,0.049-4.66,2.119-4.655,4.687C93.622,97.392,95.527,99.598,98.328,99.592z"/>
	<linearGradient id="SVGID_10_" gradientUnits="userSpaceOnUse" x1="178.2814" y1="98.7722" x2="178.2814" y2="89.3972">
		<stop  offset="0" style="stop-color:#DF3729"/>
		<stop  offset="1" style="stop-color:#EFB538"/>
	</linearGradient>
	<path fill="url(#SVGID_10_)" d="M178.241,98.767c2.218,0.112,4.695-1.695,4.741-4.658c0.039-2.57-2.131-4.713-4.715-4.712
		c-2.566,0.001-4.659,2.077-4.686,4.649C173.552,96.671,175.611,98.756,178.241,98.767z"/>
	<linearGradient id="SVGID_11_" gradientUnits="userSpaceOnUse" x1="96.6069" y1="121.8605" x2="96.6069" y2="115.8804">
		<stop  offset="0" style="stop-color:#DF3729"/>
		<stop  offset="1" style="stop-color:#EFB538"/>
	</linearGradient>
	<path fill="url(#SVGID_11_)" d="M96.639,121.86c1.635,0.012,2.96-1.367,2.955-3.003c-0.005-1.639-1.34-2.973-2.979-2.977
		c-1.632-0.005-2.994,1.328-2.995,2.964C93.619,120.551,94.928,121.848,96.639,121.86z"/>
	<linearGradient id="SVGID_12_" gradientUnits="userSpaceOnUse" x1="96.0998" y1="157.6073" x2="96.0998" y2="151.6217">
		<stop  offset="0" style="stop-color:#DF3729"/>
		<stop  offset="1" style="stop-color:#EFB538"/>
	</linearGradient>
	<path fill="url(#SVGID_12_)" d="M99.091,154.667c0.034-1.648-1.352-3.053-3.003-3.046c-1.626,0.007-2.975,1.359-2.98,2.987
		c-0.004,1.639,1.322,2.983,2.958,2.999C97.701,157.622,99.057,156.304,99.091,154.667z"/>
	<linearGradient id="SVGID_13_" gradientUnits="userSpaceOnUse" x1="120.9419" y1="182.8291" x2="120.9419" y2="176.8667">
		<stop  offset="0" style="stop-color:#DF3729"/>
		<stop  offset="1" style="stop-color:#EFB538"/>
	</linearGradient>
	<path fill="url(#SVGID_13_)" d="M120.912,176.867c-1.632,0.014-2.996,1.374-2.968,2.996c0.025,1.44,1.041,2.961,2.993,2.967
		c1.933,0.006,3.01-1.504,3.003-3.029C123.933,178.167,122.549,176.852,120.912,176.867z"/>
	<linearGradient id="SVGID_14_" gradientUnits="userSpaceOnUse" x1="179.3374" y1="157.607" x2="179.3374" y2="151.629">
		<stop  offset="0" style="stop-color:#DF3729"/>
		<stop  offset="1" style="stop-color:#EFB538"/>
	</linearGradient>
	<path fill="url(#SVGID_14_)" d="M179.298,151.629c-1.641-0.005-2.95,1.363-2.944,3.009c0.006,1.642,1.338,2.968,2.981,2.969
		c1.638,0.001,2.978-1.33,2.985-2.969C182.328,152.985,181.044,151.635,179.298,151.629z"/>
	<linearGradient id="SVGID_15_" gradientUnits="userSpaceOnUse" x1="156.3473" y1="96.1698" x2="156.3473" y2="90.205">
		<stop  offset="0" style="stop-color:#DF3729"/>
		<stop  offset="1" style="stop-color:#EFB538"/>
	</linearGradient>
	<path fill="url(#SVGID_15_)" d="M156.322,96.17c1.648,0.01,2.988-1.294,3.019-2.937c0.03-1.651-1.355-3.044-3.012-3.028
		c-1.643,0.016-2.974,1.351-2.975,2.984C153.352,94.828,154.678,96.16,156.322,96.17z"/>
	<linearGradient id="SVGID_16_" gradientUnits="userSpaceOnUse" x1="155.1935" y1="183.0419" x2="155.1935" y2="177.0666">
		<stop  offset="0" style="stop-color:#DF3729"/>
		<stop  offset="1" style="stop-color:#EFB538"/>
	</linearGradient>
	<path fill="url(#SVGID_16_)" d="M155.233,177.067c-1.833,0.015-3.031,1.421-3.023,3.009c0.008,1.642,1.344,2.967,2.985,2.966
		c1.646-0.001,2.975-1.323,2.982-2.966C158.183,178.434,156.874,177.053,155.233,177.067z"/>
	<linearGradient id="SVGID_17_" gradientUnits="userSpaceOnUse" x1="119.918" y1="96.1697" x2="119.918" y2="90.2052">
		<stop  offset="0" style="stop-color:#DF3729"/>
		<stop  offset="1" style="stop-color:#EFB538"/>
	</linearGradient>
	<path fill="url(#SVGID_17_)" d="M119.906,96.17c1.651,0.005,2.986-1.305,2.999-2.944c0.014-1.672-1.346-3.038-3.008-3.021
		c-1.646,0.017-2.969,1.35-2.967,2.99C116.933,94.837,118.261,96.165,119.906,96.17z"/>
	<linearGradient id="SVGID_18_" gradientUnits="userSpaceOnUse" x1="181.2595" y1="122.7348" x2="181.2595" y2="116.7688">
		<stop  offset="0" style="stop-color:#DF3729"/>
		<stop  offset="1" style="stop-color:#EFB538"/>
	</linearGradient>
	<path fill="url(#SVGID_18_)" d="M178.28,119.73c-0.011,1.683,1.343,3.032,3.016,3.004c1.659-0.027,2.952-1.344,2.944-3
		c-0.008-1.648-1.328-2.964-2.976-2.966C179.617,116.767,178.29,118.085,178.28,119.73z"/>
	<linearGradient id="SVGID_19_" gradientUnits="userSpaceOnUse" x1="137.7014" y1="232.122" x2="137.7014" y2="226.6567">
		<stop  offset="0" style="stop-color:#DF3729"/>
		<stop  offset="1" style="stop-color:#EFB538"/>
	</linearGradient>
	<path fill="url(#SVGID_19_)" d="M134.945,229.406c0.006,1.525,1.206,2.713,2.746,2.716c1.533,0.003,2.753-1.188,2.767-2.7
		c0.014-1.509-1.201-2.747-2.712-2.765C136.187,226.638,134.939,227.863,134.945,229.406z"/>
	<linearGradient id="SVGID_20_" gradientUnits="userSpaceOnUse" x1="45.5727" y1="157.1462" x2="45.5727" y2="153.2733">
		<stop  offset="0" style="stop-color:#DF3729"/>
		<stop  offset="1" style="stop-color:#EFB538"/>
	</linearGradient>
	<path fill="url(#SVGID_20_)" d="M45.553,153.273c-1.037,0.014-1.928,0.911-1.925,1.94c0.003,1.032,0.894,1.923,1.932,1.932
		c1.04,0.009,1.934-0.861,1.956-1.902C47.538,154.179,46.622,153.259,45.553,153.273z"/>
	<linearGradient id="SVGID_21_" gradientUnits="userSpaceOnUse" x1="36.8146" y1="150.3014" x2="36.8146" y2="146.437">
		<stop  offset="0" style="stop-color:#DF3729"/>
		<stop  offset="1" style="stop-color:#EFB538"/>
	</linearGradient>
	<path fill="url(#SVGID_21_)" d="M36.812,146.437c-1.055,0.001-1.938,0.859-1.928,1.914c0.01,1.07,0.77,1.934,1.975,1.95
		c1.05,0.014,1.897-0.911,1.887-1.96C38.734,147.285,37.873,146.436,36.812,146.437z"/>
	<linearGradient id="SVGID_22_" gradientUnits="userSpaceOnUse" x1="37.8956" y1="123.0926" x2="37.8956" y2="119.2202">
		<stop  offset="0" style="stop-color:#DF3729"/>
		<stop  offset="1" style="stop-color:#EFB538"/>
	</linearGradient>
	<path fill="url(#SVGID_22_)" d="M37.941,123.092c1.058-0.028,1.887-0.893,1.876-1.959c-0.011-1.058-0.874-1.915-1.927-1.912
		c-1.047,0.003-1.909,0.869-1.916,1.925C35.967,122.234,36.862,123.12,37.941,123.092z"/>
	<linearGradient id="SVGID_23_" gradientUnits="userSpaceOnUse" x1="25.0155" y1="136.1907" x2="25.0155" y2="132.3554">
		<stop  offset="0" style="stop-color:#DF3729"/>
		<stop  offset="1" style="stop-color:#EFB538"/>
	</linearGradient>
	<path fill="url(#SVGID_23_)" d="M24.987,132.356c-1.065,0.013-1.901,0.863-1.898,1.93c0.003,1.06,0.857,1.905,1.925,1.905
		c1.072,0,1.919-0.831,1.929-1.895C26.953,133.196,26.092,132.342,24.987,132.356z"/>
	<linearGradient id="SVGID_24_" gradientUnits="userSpaceOnUse" x1="47.1694" y1="116.9311" x2="47.1694" y2="113.1201">
		<stop  offset="0" style="stop-color:#DF3729"/>
		<stop  offset="1" style="stop-color:#EFB538"/>
	</linearGradient>
	<path fill="url(#SVGID_24_)" d="M47.159,116.931c1.093,0.004,1.916-0.796,1.93-1.876c0.014-1.083-0.793-1.917-1.871-1.934
		c-1.122-0.019-1.972,0.807-1.969,1.914C45.252,116.11,46.075,116.927,47.159,116.931z"/>
	<linearGradient id="SVGID_25_" gradientUnits="userSpaceOnUse" x1="32.4349" y1="129.5437" x2="32.4349" y2="125.6965">
		<stop  offset="0" style="stop-color:#DF3729"/>
		<stop  offset="1" style="stop-color:#EFB538"/>
	</linearGradient>
	<path fill="url(#SVGID_25_)" d="M32.452,129.544c1.063-0.008,1.907-0.859,1.909-1.922c0.002-1.068-0.833-1.914-1.899-1.925
		c-1.071-0.011-1.927,0.811-1.953,1.876C30.482,128.66,31.362,129.552,32.452,129.544z"/>
	<linearGradient id="SVGID_26_" gradientUnits="userSpaceOnUse" x1="31.8874" y1="143.4065" x2="31.8874" y2="139.5885">
		<stop  offset="0" style="stop-color:#DF3729"/>
		<stop  offset="1" style="stop-color:#EFB538"/>
	</linearGradient>
	<path fill="url(#SVGID_26_)" d="M31.939,139.589c-1.123-0.023-1.974,0.801-1.973,1.91c0.001,1.076,0.824,1.9,1.904,1.908
		c1.081,0.007,1.919-0.804,1.937-1.876C33.826,140.452,33.018,139.611,31.939,139.589z"/>
	<linearGradient id="SVGID_27_" gradientUnits="userSpaceOnUse" x1="76.0119" y1="218.4574" x2="76.0119" y2="214.5859">
		<stop  offset="0" style="stop-color:#DF3729"/>
		<stop  offset="1" style="stop-color:#EFB538"/>
	</linearGradient>
	<path fill="url(#SVGID_27_)" d="M76.017,214.586c-1.035-0.002-1.928,0.883-1.94,1.921c-0.012,1.07,0.903,1.973,1.979,1.95
		c1.055-0.022,1.902-0.896,1.892-1.951C77.937,215.455,77.065,214.588,76.017,214.586z"/>
	<linearGradient id="SVGID_28_" gradientUnits="userSpaceOnUse" x1="57.623" y1="218.7536" x2="57.623" y2="214.8821">
		<stop  offset="0" style="stop-color:#DF3729"/>
		<stop  offset="1" style="stop-color:#EFB538"/>
	</linearGradient>
	<path fill="url(#SVGID_28_)" d="M57.648,214.882c-1.054-0.015-1.927,0.835-1.945,1.891c-0.019,1.1,0.846,1.987,1.93,1.98
		c1.052-0.007,1.907-0.869,1.91-1.927C59.547,215.767,58.699,214.897,57.648,214.882z"/>
	<linearGradient id="SVGID_29_" gradientUnits="userSpaceOnUse" x1="86.8597" y1="215.9398" x2="86.8597" y2="212.1213">
		<stop  offset="0" style="stop-color:#DF3729"/>
		<stop  offset="1" style="stop-color:#EFB538"/>
	</linearGradient>
	<path fill="url(#SVGID_29_)" d="M86.873,212.121c-1.11-0.005-1.96,0.848-1.943,1.949c0.017,1.063,0.864,1.876,1.946,1.869
		c1.073-0.007,1.917-0.85,1.914-1.91C88.787,212.967,87.942,212.127,86.873,212.121z"/>
	<linearGradient id="SVGID_30_" gradientUnits="userSpaceOnUse" x1="67.5654" y1="217.9706" x2="67.5654" y2="214.1025">
		<stop  offset="0" style="stop-color:#DF3729"/>
		<stop  offset="1" style="stop-color:#EFB538"/>
	</linearGradient>
	<path fill="url(#SVGID_30_)" d="M67.533,214.103c-1.059,0.017-1.89,0.878-1.889,1.944c0.001,0.949,0.679,1.872,1.919,1.922
		c1.075,0.044,1.945-0.893,1.923-1.99C69.465,214.921,68.595,214.085,67.533,214.103z"/>
	<linearGradient id="SVGID_31_" gradientUnits="userSpaceOnUse" x1="57.1029" y1="208.7915" x2="57.1029" y2="204.9524">
		<stop  offset="0" style="stop-color:#DF3729"/>
		<stop  offset="1" style="stop-color:#EFB538"/>
	</linearGradient>
	<path fill="url(#SVGID_31_)" d="M57.081,208.791c1.073,0.01,1.93-0.813,1.95-1.873c0.021-1.097-0.844-1.974-1.938-1.966
		c-1.067,0.008-1.917,0.857-1.92,1.916C55.171,207.931,56.015,208.781,57.081,208.791z"/>
	<linearGradient id="SVGID_32_" gradientUnits="userSpaceOnUse" x1="55.5102" y1="200.4816" x2="55.5102" y2="196.6696">
		<stop  offset="0" style="stop-color:#DF3729"/>
		<stop  offset="1" style="stop-color:#EFB538"/>
	</linearGradient>
	<path fill="url(#SVGID_32_)" d="M57.432,198.618c0.023-1.107-0.818-1.953-1.938-1.948c-1.081,0.004-1.904,0.825-1.907,1.901
		c-0.003,1.075,0.819,1.903,1.897,1.911C56.578,200.49,57.41,199.693,57.432,198.618z"/>
	<linearGradient id="SVGID_33_" gradientUnits="userSpaceOnUse" x1="56.5692" y1="189.4267" x2="56.5692" y2="185.616">
		<stop  offset="0" style="stop-color:#DF3729"/>
		<stop  offset="1" style="stop-color:#EFB538"/>
	</linearGradient>
	<path fill="url(#SVGID_33_)" d="M56.554,189.427c1.091,0.005,1.92-0.797,1.937-1.873c0.017-1.079-0.793-1.917-1.872-1.937
		c-1.126-0.02-1.973,0.8-1.971,1.909C54.649,188.599,55.474,189.422,56.554,189.427z"/>
	<linearGradient id="SVGID_34_" gradientUnits="userSpaceOnUse" x1="138.3412" y1="250.0909" x2="138.3412" y2="246.219">
		<stop  offset="0" style="stop-color:#DF3729"/>
		<stop  offset="1" style="stop-color:#EFB538"/>
	</linearGradient>
	<path fill="url(#SVGID_34_)" d="M138.327,246.219c-1.043,0.007-1.921,0.885-1.926,1.929c-0.005,1.049,0.854,1.926,1.905,1.943
		c1.042,0.017,1.94-0.841,1.973-1.884C140.313,247.152,139.39,246.212,138.327,246.219z"/>
	<linearGradient id="SVGID_35_" gradientUnits="userSpaceOnUse" x1="145.2969" y1="242.9627" x2="145.2969" y2="239.0887">
		<stop  offset="0" style="stop-color:#DF3729"/>
		<stop  offset="1" style="stop-color:#EFB538"/>
	</linearGradient>
	<path fill="url(#SVGID_35_)" d="M145.301,239.089c-1.054-0.004-1.925,0.852-1.939,1.905c-0.014,1.079,0.89,1.989,1.959,1.968
		c1.039-0.02,1.919-0.918,1.911-1.951C147.224,239.967,146.345,239.092,145.301,239.089z"/>
	<linearGradient id="SVGID_36_" gradientUnits="userSpaceOnUse" x1="118.2005" y1="228.7521" x2="118.2005" y2="224.8805">
		<stop  offset="0" style="stop-color:#DF3729"/>
		<stop  offset="1" style="stop-color:#EFB538"/>
	</linearGradient>
	<path fill="url(#SVGID_36_)" d="M118.243,224.881c-1.066-0.033-1.981,0.869-1.977,1.949c0.005,1.056,0.862,1.915,1.919,1.922
		c1.049,0.007,1.929-0.851,1.949-1.901C120.154,225.819,119.285,224.914,118.243,224.881z"/>
	<linearGradient id="SVGID_37_" gradientUnits="userSpaceOnUse" x1="158.4804" y1="228.7524" x2="158.4804" y2="224.881">
		<stop  offset="0" style="stop-color:#DF3729"/>
		<stop  offset="1" style="stop-color:#EFB538"/>
	</linearGradient>
	<path fill="url(#SVGID_37_)" d="M158.493,224.881c-1.06-0.011-1.983,0.925-1.957,1.982c0.026,1.048,0.913,1.901,1.964,1.889
		c1.045-0.012,1.927-0.898,1.925-1.933C160.423,225.793,159.524,224.891,158.493,224.881z"/>
	<linearGradient id="SVGID_38_" gradientUnits="userSpaceOnUse" x1="131.3851" y1="242.9624" x2="131.3851" y2="239.0883">
		<stop  offset="0" style="stop-color:#DF3729"/>
		<stop  offset="1" style="stop-color:#EFB538"/>
	</linearGradient>
	<path fill="url(#SVGID_38_)" d="M131.35,239.089c-1.05,0.018-1.916,0.9-1.909,1.944c0.007,1.036,0.897,1.925,1.932,1.93
		c1.058,0.005,1.99-0.944,1.954-1.991C133.292,239.929,132.391,239.071,131.35,239.089z"/>
	<linearGradient id="SVGID_39_" gradientUnits="userSpaceOnUse" x1="124.7043" y1="237.7416" x2="124.7043" y2="233.9184">
		<stop  offset="0" style="stop-color:#DF3729"/>
		<stop  offset="1" style="stop-color:#EFB538"/>
	</linearGradient>
	<path fill="url(#SVGID_39_)" d="M124.769,233.919c-1.114-0.027-1.989,0.805-1.996,1.9c-0.007,1.065,0.825,1.909,1.897,1.923
		c1.077,0.014,1.935-0.799,1.965-1.862C126.665,234.824,125.828,233.945,124.769,233.919z"/>
	<linearGradient id="SVGID_40_" gradientUnits="userSpaceOnUse" x1="151.9757" y1="237.74" x2="151.9757" y2="233.9185">
		<stop  offset="0" style="stop-color:#DF3729"/>
		<stop  offset="1" style="stop-color:#EFB538"/>
	</linearGradient>
	<path fill="url(#SVGID_40_)" d="M152.017,233.919c-1.102-0.017-1.996,0.849-1.987,1.925c0.009,1.049,0.872,1.893,1.939,1.896
		c1.066,0.003,1.937-0.838,1.953-1.886C153.938,234.814,153.073,233.935,152.017,233.919z"/>
	<linearGradient id="SVGID_41_" gradientUnits="userSpaceOnUse" x1="186.4868" y1="215.859" x2="186.4868" y2="211.983">
		<stop  offset="0" style="stop-color:#DF3729"/>
		<stop  offset="1" style="stop-color:#EFB538"/>
	</linearGradient>
	<path fill="url(#SVGID_41_)" d="M186.487,211.983c-1.08-0.002-1.98,0.915-1.946,1.982c0.033,1.031,0.962,1.92,1.979,1.893
		c1.031-0.027,1.925-0.945,1.914-1.964C188.422,212.855,187.536,211.985,186.487,211.983z"/>
	<linearGradient id="SVGID_42_" gradientUnits="userSpaceOnUse" x1="215.7136" y1="218.6222" x2="215.7136" y2="214.7524">
		<stop  offset="0" style="stop-color:#DF3729"/>
		<stop  offset="1" style="stop-color:#EFB538"/>
	</linearGradient>
	<path fill="url(#SVGID_42_)" d="M215.683,214.753c-1.036,0.026-1.921,0.934-1.911,1.96c0.01,1.045,0.888,1.907,1.943,1.909
		c1.058,0.001,1.926-0.851,1.939-1.903C217.668,215.653,216.738,214.726,215.683,214.753z"/>
	<linearGradient id="SVGID_43_" gradientUnits="userSpaceOnUse" x1="217.8274" y1="200.3754" x2="217.8274" y2="196.5345">
		<stop  offset="0" style="stop-color:#DF3729"/>
		<stop  offset="1" style="stop-color:#EFB538"/>
	</linearGradient>
	<path fill="url(#SVGID_43_)" d="M215.883,198.456c0.002,1.04,0.88,1.911,1.932,1.919c1.054,0.008,1.937-0.845,1.956-1.889
		c0.019-1.049-0.832-1.928-1.888-1.951C216.79,196.512,215.881,197.385,215.883,198.456z"/>
	<linearGradient id="SVGID_44_" gradientUnits="userSpaceOnUse" x1="216.7688" y1="189.3118" x2="216.7688" y2="185.4833">
		<stop  offset="0" style="stop-color:#DF3729"/>
		<stop  offset="1" style="stop-color:#EFB538"/>
	</linearGradient>
	<path fill="url(#SVGID_44_)" d="M214.826,187.455c0.04,1.051,0.921,1.876,1.984,1.857c1.061-0.019,1.915-0.888,1.901-1.935
		c-0.013-1.054-0.874-1.894-1.941-1.893C215.679,185.484,214.786,186.389,214.826,187.455z"/>
	<linearGradient id="SVGID_45_" gradientUnits="userSpaceOnUse" x1="205.7743" y1="217.8447" x2="205.7743" y2="213.9727">
		<stop  offset="0" style="stop-color:#DF3729"/>
		<stop  offset="1" style="stop-color:#EFB538"/>
	</linearGradient>
	<path fill="url(#SVGID_45_)" d="M205.782,213.973c-1.049-0.006-1.916,0.854-1.928,1.911c-0.013,1.092,0.871,1.98,1.952,1.96
		c1.057-0.019,1.894-0.883,1.889-1.948C207.69,214.834,206.839,213.978,205.782,213.973z"/>
	<linearGradient id="SVGID_46_" gradientUnits="userSpaceOnUse" x1="216.2341" y1="208.6573" x2="216.2341" y2="204.8472">
		<stop  offset="0" style="stop-color:#DF3729"/>
		<stop  offset="1" style="stop-color:#EFB538"/>
	</linearGradient>
	<path fill="url(#SVGID_46_)" d="M216.309,204.848c-1.128-0.027-1.99,0.786-1.998,1.887c-0.008,1.076,0.81,1.909,1.888,1.922
		c1.094,0.014,1.931-0.777,1.958-1.851C218.185,205.728,217.379,204.874,216.309,204.848z"/>
	<linearGradient id="SVGID_47_" gradientUnits="userSpaceOnUse" x1="197.3248" y1="218.3253" x2="197.3248" y2="214.4633">
		<stop  offset="0" style="stop-color:#DF3729"/>
		<stop  offset="1" style="stop-color:#EFB538"/>
	</linearGradient>
	<path fill="url(#SVGID_47_)" d="M197.307,214.463c-1.054,0.013-1.903,0.878-1.903,1.939c0.001,1.073,0.831,1.913,1.9,1.923
		c1.069,0.01,1.921-0.816,1.941-1.882C199.266,215.351,198.384,214.451,197.307,214.463z"/>
	<linearGradient id="SVGID_48_" gradientUnits="userSpaceOnUse" x1="236.4647" y1="123.3932" x2="236.4647" y2="119.5215">
		<stop  offset="0" style="stop-color:#DF3729"/>
		<stop  offset="1" style="stop-color:#EFB538"/>
	</linearGradient>
	<path fill="url(#SVGID_48_)" d="M236.479,119.522c-1.039-0.007-1.929,0.865-1.946,1.909c-0.018,1.072,0.891,1.98,1.965,1.963
		c1.054-0.017,1.903-0.887,1.899-1.944C238.393,120.396,237.53,119.529,236.479,119.522z"/>
	<linearGradient id="SVGID_49_" gradientUnits="userSpaceOnUse" x1="227.1971" y1="117.232" x2="227.1971" y2="113.4209">
		<stop  offset="0" style="stop-color:#DF3729"/>
		<stop  offset="1" style="stop-color:#EFB538"/>
	</linearGradient>
	<path fill="url(#SVGID_49_)" d="M227.134,113.421c-1.062,0.02-1.903,0.891-1.879,1.945c0.024,1.058,0.881,1.874,1.959,1.866
		c1.07-0.008,1.928-0.859,1.925-1.908C229.136,114.242,228.249,113.4,227.134,113.421z"/>
	<linearGradient id="SVGID_50_" gradientUnits="userSpaceOnUse" x1="242.4802" y1="143.7085" x2="242.4802" y2="139.8852">
		<stop  offset="0" style="stop-color:#DF3729"/>
		<stop  offset="1" style="stop-color:#EFB538"/>
	</linearGradient>
	<path fill="url(#SVGID_50_)" d="M242.48,139.885c-1.068-0.001-1.928,0.837-1.939,1.889c-0.011,1.087,0.865,1.947,1.97,1.934
		c1.061-0.013,1.919-0.879,1.908-1.927C244.408,140.727,243.548,139.887,242.48,139.885z"/>
	<linearGradient id="SVGID_51_" gradientUnits="userSpaceOnUse" x1="237.5483" y1="150.6114" x2="237.5483" y2="146.7394">
		<stop  offset="0" style="stop-color:#DF3729"/>
		<stop  offset="1" style="stop-color:#EFB538"/>
	</linearGradient>
	<path fill="url(#SVGID_51_)" d="M237.545,146.739c-1.065,0.001-1.91,0.843-1.917,1.911c-0.007,1.061,0.833,1.934,1.887,1.96
		c1.038,0.026,1.931-0.838,1.953-1.892C239.491,147.616,238.639,146.738,237.545,146.739z"/>
	<linearGradient id="SVGID_52_" gradientUnits="userSpaceOnUse" x1="228.7883" y1="157.4469" x2="228.7883" y2="153.5749">
		<stop  offset="0" style="stop-color:#DF3729"/>
		<stop  offset="1" style="stop-color:#EFB538"/>
	</linearGradient>
	<path fill="url(#SVGID_52_)" d="M228.781,153.575c-1.053,0.004-1.909,0.865-1.914,1.924c-0.005,1.092,0.889,1.977,1.966,1.948
		c1.058-0.029,1.889-0.897,1.877-1.962C230.698,154.425,229.835,153.571,228.781,153.575z"/>
	<linearGradient id="SVGID_53_" gradientUnits="userSpaceOnUse" x1="241.9242" y1="129.8409" x2="241.9242" y2="125.9984">
		<stop  offset="0" style="stop-color:#DF3729"/>
		<stop  offset="1" style="stop-color:#EFB538"/>
	</linearGradient>
	<path fill="url(#SVGID_53_)" d="M241.945,125.998c-1.1-0.008-1.968,0.863-1.947,1.956c0.021,1.061,0.885,1.898,1.949,1.887
		c1.065-0.012,1.905-0.862,1.904-1.926C243.85,126.849,243.012,126.007,241.945,125.998z"/>
	<linearGradient id="SVGID_54_" gradientUnits="userSpaceOnUse" x1="249.3452" y1="136.489" x2="249.3452" y2="132.6577">
		<stop  offset="0" style="stop-color:#DF3729"/>
		<stop  offset="1" style="stop-color:#EFB538"/>
	</linearGradient>
	<path fill="url(#SVGID_54_)" d="M249.324,132.658c-1.073,0.009-1.901,0.844-1.901,1.918c0,1.071,0.834,1.907,1.909,1.913
		c1.075,0.006,1.924-0.818,1.937-1.882C251.283,133.503,250.43,132.649,249.324,132.658z"/>
	<linearGradient id="SVGID_55_" gradientUnits="userSpaceOnUse" x1="59.3263" y1="58.6118" x2="59.3263" y2="54.7401">
		<stop  offset="0" style="stop-color:#DF3729"/>
		<stop  offset="1" style="stop-color:#EFB538"/>
	</linearGradient>
	<path fill="url(#SVGID_55_)" d="M59.299,58.612c1.042,0.013,1.937-0.849,1.966-1.892c0.029-1.056-0.896-1.99-1.959-1.98
		c-1.046,0.011-1.914,0.888-1.917,1.936C57.385,57.727,58.246,58.598,59.299,58.612z"/>
	<linearGradient id="SVGID_56_" gradientUnits="userSpaceOnUse" x1="58.271" y1="87.8854" x2="58.271" y2="84.0653">
		<stop  offset="0" style="stop-color:#DF3729"/>
		<stop  offset="1" style="stop-color:#EFB538"/>
	</linearGradient>
	<path fill="url(#SVGID_56_)" d="M60.212,86.025c0.034-1.039-0.824-1.934-1.877-1.959c-1.108-0.027-1.997,0.816-2.005,1.9
		c-0.007,1.054,0.84,1.906,1.908,1.919C59.312,87.898,60.177,87.083,60.212,86.025z"/>
	<linearGradient id="SVGID_57_" gradientUnits="userSpaceOnUse" x1="57.2122" y1="76.8275" x2="57.2122" y2="73.0131">
		<stop  offset="0" style="stop-color:#DF3729"/>
		<stop  offset="1" style="stop-color:#EFB538"/>
	</linearGradient>
	<path fill="url(#SVGID_57_)" d="M59.153,74.981c0.041-1.038-0.814-1.939-1.866-1.968c-1.113-0.03-2.002,0.802-2.017,1.886
		c-0.014,1.054,0.829,1.911,1.897,1.927C58.248,76.844,59.111,76.042,59.153,74.981z"/>
	<linearGradient id="SVGID_58_" gradientUnits="userSpaceOnUse" x1="77.7147" y1="58.9086" x2="77.7147" y2="55.0363">
		<stop  offset="0" style="stop-color:#DF3729"/>
		<stop  offset="1" style="stop-color:#EFB538"/>
	</linearGradient>
	<path fill="url(#SVGID_58_)" d="M77.761,58.908c1.057-0.029,1.885-0.895,1.874-1.962c-0.011-1.06-0.872-1.913-1.926-1.91
		c-1.05,0.004-1.908,0.866-1.914,1.925C75.788,58.053,76.682,58.937,77.761,58.908z"/>
	<linearGradient id="SVGID_59_" gradientUnits="userSpaceOnUse" x1="88.5552" y1="61.3721" x2="88.5552" y2="57.5606">
		<stop  offset="0" style="stop-color:#DF3729"/>
		<stop  offset="1" style="stop-color:#EFB538"/>
	</linearGradient>
	<path fill="url(#SVGID_59_)" d="M88.496,61.372c1.11,0.023,2.003-0.825,2.006-1.904c0.003-1.046-0.859-1.899-1.926-1.907
		c-1.075-0.008-1.939,0.812-1.967,1.865C86.582,60.469,87.437,61.35,88.496,61.372z"/>
	<linearGradient id="SVGID_60_" gradientUnits="userSpaceOnUse" x1="58.8052" y1="68.5701" x2="58.8052" y2="64.6988">
		<stop  offset="0" style="stop-color:#DF3729"/>
		<stop  offset="1" style="stop-color:#EFB538"/>
	</linearGradient>
	<path fill="url(#SVGID_60_)" d="M58.829,68.57c1.049-0.019,1.901-0.894,1.899-1.95c-0.002-1.064-0.846-1.913-1.91-1.921
		c-1.064-0.007-1.919,0.829-1.936,1.894C56.865,67.68,57.761,68.59,58.829,68.57z"/>
	<linearGradient id="SVGID_61_" gradientUnits="userSpaceOnUse" x1="69.2647" y1="59.3896" x2="69.2647" y2="55.5224">
		<stop  offset="0" style="stop-color:#DF3729"/>
		<stop  offset="1" style="stop-color:#EFB538"/>
	</linearGradient>
	<path fill="url(#SVGID_61_)" d="M69.288,59.39c1.065-0.011,1.9-0.858,1.899-1.927c-0.001-1.056-0.859-1.929-1.907-1.94
		c-1.041-0.011-1.922,0.857-1.937,1.91C67.327,58.534,68.189,59.401,69.288,59.39z"/>
	<linearGradient id="SVGID_62_" gradientUnits="userSpaceOnUse" x1="197.2365" y1="58.9085" x2="197.2365" y2="55.0355">
		<stop  offset="0" style="stop-color:#DF3729"/>
		<stop  offset="1" style="stop-color:#EFB538"/>
	</linearGradient>
	<path fill="url(#SVGID_62_)" d="M197.224,58.908c1.038,0.008,1.938-0.867,1.959-1.903c0.02-1.03-0.852-1.937-1.894-1.969
		c-1.061-0.032-2.004,0.883-2,1.941C195.294,58.008,196.188,58.9,197.224,58.908z"/>
	<linearGradient id="SVGID_63_" gradientUnits="userSpaceOnUse" x1="216.1508" y1="68.5686" x2="216.1508" y2="64.699">
		<stop  offset="0" style="stop-color:#DF3729"/>
		<stop  offset="1" style="stop-color:#EFB538"/>
	</linearGradient>
	<path fill="url(#SVGID_63_)" d="M216.15,64.699c-1.086,0-1.976,0.906-1.943,1.979c0.033,1.035,0.957,1.918,1.977,1.89
		c1.038-0.029,1.924-0.938,1.912-1.961C218.082,65.561,217.204,64.7,216.15,64.699z"/>
	<linearGradient id="SVGID_64_" gradientUnits="userSpaceOnUse" x1="215.6303" y1="58.6115" x2="215.6303" y2="54.7402">
		<stop  offset="0" style="stop-color:#DF3729"/>
		<stop  offset="1" style="stop-color:#EFB538"/>
	</linearGradient>
	<path fill="url(#SVGID_64_)" d="M215.616,58.611c1.057,0.009,1.922-0.839,1.938-1.898c0.016-1.091-0.869-1.988-1.945-1.973
		c-1.052,0.015-1.904,0.885-1.902,1.942C213.709,57.741,214.562,58.603,215.616,58.611z"/>
	<linearGradient id="SVGID_65_" gradientUnits="userSpaceOnUse" x1="205.6921" y1="59.3901" x2="205.6921" y2="55.5232">
		<stop  offset="0" style="stop-color:#DF3729"/>
		<stop  offset="1" style="stop-color:#EFB538"/>
	</linearGradient>
	<path fill="url(#SVGID_65_)" d="M205.681,59.39c1.061,0.004,1.931-0.845,1.947-1.898c0.016-1.034-0.852-1.934-1.897-1.968
		c-1.057-0.034-1.982,0.882-1.975,1.955C203.763,58.538,204.618,59.387,205.681,59.39z"/>
	<linearGradient id="SVGID_66_" gradientUnits="userSpaceOnUse" x1="217.7447" y1="76.8278" x2="217.7447" y2="73.0138">
		<stop  offset="0" style="stop-color:#DF3729"/>
		<stop  offset="1" style="stop-color:#EFB538"/>
	</linearGradient>
	<path fill="url(#SVGID_66_)" d="M215.823,74.852c-0.036,1.113,0.791,1.97,1.908,1.976c1.09,0.006,1.922-0.798,1.937-1.873
		c0.015-1.074-0.802-1.922-1.872-1.941C216.705,72.995,215.857,73.785,215.823,74.852z"/>
	<linearGradient id="SVGID_67_" gradientUnits="userSpaceOnUse" x1="186.3979" y1="61.3717" x2="186.3979" y2="57.5605">
		<stop  offset="0" style="stop-color:#DF3729"/>
		<stop  offset="1" style="stop-color:#EFB538"/>
	</linearGradient>
	<path fill="url(#SVGID_67_)" d="M186.39,61.372c1.086,0.003,1.917-0.807,1.928-1.879c0.012-1.082-0.796-1.914-1.875-1.932
		c-1.127-0.018-1.972,0.804-1.966,1.916C184.482,60.553,185.305,61.368,186.39,61.372z"/>
	<linearGradient id="SVGID_68_" gradientUnits="userSpaceOnUse" x1="216.6859" y1="87.8852" x2="216.6859" y2="84.0659">
		<stop  offset="0" style="stop-color:#DF3729"/>
		<stop  offset="1" style="stop-color:#EFB538"/>
	</linearGradient>
	<path fill="url(#SVGID_68_)" d="M216.701,84.066c-1.079-0.006-1.92,0.809-1.938,1.877c-0.018,1.079,0.79,1.919,1.87,1.942
		c1.123,0.024,1.98-0.804,1.977-1.911C218.608,84.906,217.774,84.072,216.701,84.066z"/>
	<linearGradient id="SVGID_69_" gradientUnits="userSpaceOnUse" x1="152.2988" y1="39.3754" x2="152.2988" y2="35.501">
		<stop  offset="0" style="stop-color:#DF3729"/>
		<stop  offset="1" style="stop-color:#EFB538"/>
	</linearGradient>
	<path fill="url(#SVGID_69_)" d="M152.309,39.375c1.044-0.004,1.92-0.88,1.926-1.927c0.007-1.053-0.846-1.927-1.899-1.947
		c-1.044-0.019-1.938,0.832-1.973,1.881C150.328,38.439,151.246,39.379,152.309,39.375z"/>
	<linearGradient id="SVGID_70_" gradientUnits="userSpaceOnUse" x1="125.032" y1="39.3754" x2="125.032" y2="35.5016">
		<stop  offset="0" style="stop-color:#DF3729"/>
		<stop  offset="1" style="stop-color:#EFB538"/>
	</linearGradient>
	<path fill="url(#SVGID_70_)" d="M125.057,39.375c1.031-0.018,1.927-0.927,1.921-1.949c-0.006-1.034-0.896-1.918-1.937-1.924
		c-1.046-0.006-1.936,0.86-1.955,1.902C123.067,38.46,124,39.394,125.057,39.375z"/>
	<linearGradient id="SVGID_71_" gradientUnits="userSpaceOnUse" x1="131.7068" y1="34.1528" x2="131.7068" y2="30.3317">
		<stop  offset="0" style="stop-color:#DF3729"/>
		<stop  offset="1" style="stop-color:#EFB538"/>
	</linearGradient>
	<path fill="url(#SVGID_71_)" d="M131.703,34.153c1.1,0.003,1.972-0.877,1.944-1.959c-0.028-1.056-0.892-1.873-1.967-1.862
		c-1.061,0.011-1.921,0.876-1.914,1.923C129.774,33.305,130.636,34.15,131.703,34.153z"/>
	<linearGradient id="SVGID_72_" gradientUnits="userSpaceOnUse" x1="158.803" y1="48.3518" x2="158.803" y2="44.5385">
		<stop  offset="0" style="stop-color:#DF3729"/>
		<stop  offset="1" style="stop-color:#EFB538"/>
	</linearGradient>
	<path fill="url(#SVGID_72_)" d="M158.793,48.352c1.105,0.005,1.972-0.863,1.949-1.95c-0.023-1.055-0.881-1.871-1.958-1.863
		c-1.069,0.008-1.924,0.858-1.92,1.91C156.868,47.501,157.725,48.347,158.793,48.352z"/>
	<linearGradient id="SVGID_73_" gradientUnits="userSpaceOnUse" x1="138.6629" y1="27.0133" x2="138.6629" y2="23.2022">
		<stop  offset="0" style="stop-color:#DF3729"/>
		<stop  offset="1" style="stop-color:#EFB538"/>
	</linearGradient>
	<path fill="url(#SVGID_73_)" d="M138.682,27.013c1.071-0.006,1.923-0.848,1.925-1.903c0.002-1.082-0.882-1.927-1.994-1.908
		c-1.061,0.019-1.919,0.897-1.893,1.939C136.745,26.195,137.609,27.019,138.682,27.013z"/>
	<linearGradient id="SVGID_74_" gradientUnits="userSpaceOnUse" x1="145.621" y1="34.1524" x2="145.621" y2="30.3316">
		<stop  offset="0" style="stop-color:#DF3729"/>
		<stop  offset="1" style="stop-color:#EFB538"/>
	</linearGradient>
	<path fill="url(#SVGID_74_)" d="M145.624,34.152c1.066-0.001,1.933-0.844,1.944-1.892c0.011-1.046-0.849-1.914-1.909-1.928
		c-1.1-0.015-1.998,0.86-1.984,1.932C143.688,33.311,144.558,34.153,145.624,34.152z"/>
	<linearGradient id="SVGID_75_" gradientUnits="userSpaceOnUse" x1="118.5256" y1="48.3524" x2="118.5256" y2="44.5392">
		<stop  offset="0" style="stop-color:#DF3729"/>
		<stop  offset="1" style="stop-color:#EFB538"/>
	</linearGradient>
	<path fill="url(#SVGID_75_)" d="M118.46,48.352c1.108,0.026,2.004-0.82,2.012-1.899c0.007-1.016-0.82-1.873-1.844-1.912
		c-1.116-0.042-2.017,0.775-2.049,1.857C116.548,47.437,117.405,48.327,118.46,48.352z"/>
	<linearGradient id="SVGID_76_" gradientUnits="userSpaceOnUse" x1="43.7713" y1="138.4001" x2="43.7713" y2="132.9219">
		<stop  offset="0" style="stop-color:#DF3729"/>
		<stop  offset="1" style="stop-color:#EFB538"/>
	</linearGradient>
	<path fill="url(#SVGID_76_)" d="M43.819,132.922c-1.54-0.022-2.769,1.152-2.791,2.666c-0.023,1.534,1.15,2.775,2.656,2.811
		c1.56,0.037,2.818-1.169,2.831-2.715C46.528,134.149,45.351,132.944,43.819,132.922z"/>
	<linearGradient id="SVGID_77_" gradientUnits="userSpaceOnUse" x1="69.5275" y1="205.0175" x2="69.5275" y2="199.5588">
		<stop  offset="0" style="stop-color:#DF3729"/>
		<stop  offset="1" style="stop-color:#EFB538"/>
	</linearGradient>
	<path fill="url(#SVGID_77_)" d="M69.512,199.559c-1.524,0.007-2.737,1.217-2.738,2.731c-0.001,1.516,1.208,2.721,2.737,2.727
		c1.576,0.006,2.795-1.209,2.771-2.764C72.257,200.725,71.051,199.552,69.512,199.559z"/>
	<linearGradient id="SVGID_78_" gradientUnits="userSpaceOnUse" x1="71.2336" y1="73.9337" x2="71.2336" y2="68.4755">
		<stop  offset="0" style="stop-color:#DF3729"/>
		<stop  offset="1" style="stop-color:#EFB538"/>
	</linearGradient>
	<path fill="url(#SVGID_78_)" d="M71.169,73.933c1.569,0.021,2.827-1.187,2.831-2.721c0.004-1.501-1.227-2.729-2.744-2.737
		c-1.536-0.008-2.757,1.167-2.789,2.687C68.435,72.666,69.65,73.913,71.169,73.933z"/>
	<linearGradient id="SVGID_79_" gradientUnits="userSpaceOnUse" x1="203.8055" y1="204.9017" x2="203.8055" y2="199.4212">
		<stop  offset="0" style="stop-color:#DF3729"/>
		<stop  offset="1" style="stop-color:#EFB538"/>
	</linearGradient>
	<path fill="url(#SVGID_79_)" d="M203.848,199.421c-1.536-0.02-2.819,1.241-2.808,2.762c0.011,1.503,1.244,2.716,2.765,2.718
		c1.528,0.002,2.749-1.195,2.766-2.712C206.587,200.698,205.352,199.442,203.848,199.421z"/>
	<linearGradient id="SVGID_80_" gradientUnits="userSpaceOnUse" x1="203.7226" y1="73.934" x2="203.7226" y2="68.475">
		<stop  offset="0" style="stop-color:#DF3729"/>
		<stop  offset="1" style="stop-color:#EFB538"/>
	</linearGradient>
	<path fill="url(#SVGID_80_)" d="M203.726,73.934c1.541-0.001,2.734-1.181,2.74-2.713c0.006-1.532-1.18-2.734-2.709-2.746
		c-1.576-0.013-2.789,1.19-2.778,2.754C200.991,72.762,202.182,73.935,203.726,73.934z"/>
	<linearGradient id="SVGID_81_" gradientUnits="userSpaceOnUse" x1="230.5889" y1="138.7001" x2="230.5889" y2="133.2203">
		<stop  offset="0" style="stop-color:#DF3729"/>
		<stop  offset="1" style="stop-color:#EFB538"/>
	</linearGradient>
	<path fill="url(#SVGID_81_)" d="M230.592,138.7c1.51,0.002,2.741-1.216,2.756-2.727c0.015-1.511-1.191-2.732-2.721-2.752
		c-1.551-0.021-2.809,1.219-2.798,2.755C227.84,137.475,229.082,138.698,230.592,138.7z"/>
	<linearGradient id="SVGID_82_" gradientUnits="userSpaceOnUse" x1="138.0266" y1="46.628" x2="138.0266" y2="41.1118">
		<stop  offset="0" style="stop-color:#DF3729"/>
		<stop  offset="1" style="stop-color:#EFB538"/>
	</linearGradient>
	<path fill="url(#SVGID_82_)" d="M138.07,41.112c-1.534-0.026-2.786,1.228-2.789,2.772c-0.003,1.308,0.954,2.686,2.744,2.742
		c1.498,0.048,2.74-1.228,2.748-2.735C140.781,42.368,139.585,41.138,138.07,41.112z"/>
</g>
</svg>
