<?xml version="1.0" encoding="utf-8"?>
<!-- Generator: Adobe Illustrator 17.0.0, SVG Export Plug-In . SVG Version: 6.00 Build 0)  -->
<!DOCTYPE svg PUBLIC "-//W3C//DTD SVG 1.1//EN" "http://www.w3.org/Graphics/SVG/1.1/DTD/svg11.dtd">
<svg version="1.1" id="Capa_1" xmlns="http://www.w3.org/2000/svg" xmlns:xlink="http://www.w3.org/1999/xlink" x="0px" y="0px"
	 width="291.198px" height="290.345px" viewBox="0 0 291.198 290.345" enable-background="new 0 0 291.198 290.345"
	 xml:space="preserve">
<g>
	<linearGradient id="SVGID_1_" gradientUnits="userSpaceOnUse" x1="145.5989" y1="287.3597" x2="145.5989" y2="22.3597">
		<stop  offset="0" style="stop-color:#DF3729"/>
		<stop  offset="0.1652" style="stop-color:#E1492B"/>
		<stop  offset="0.4966" style="stop-color:#E67531"/>
		<stop  offset="0.96" style="stop-color:#EFB037"/>
		<stop  offset="1" style="stop-color:#EFB538"/>
	</linearGradient>
	<path fill="url(#SVGID_1_)" d="M142.88,264.819c-3.032-2.694-6.169-5.418-9.234-8.22c-3.611-3.301-7.366-6.478-10.678-10.061
		c-3.325-3.597-5.4-7.985-6.03-12.945c-0.044-0.344-0.235-0.668-0.418-1.163c-0.918,0.25-1.764,0.531-2.631,0.706
		c-1.416,0.286-2.341,0.7-2.209,2.553c0.146,2.046-1.61,3.785-3.752,4.299c-1.919,0.461-4.08-0.479-5.141-2.236
		c-1.065-1.763-0.861-3.981,0.538-5.543c0.36-0.402,0.792-0.741,1.274-1.187c-0.434-0.819-0.877-1.656-1.384-2.612
		c-7.358,6.479-16.116,6.471-24.978,6.131c-4.227-0.162-8.461-0.131-12.691-0.238c-1.082-0.027-1.443,0.496-1.69,1.446
		c-0.797,3.062-2.751,4.537-5.723,4.434c-2.629-0.091-4.706-1.949-5.232-4.681c-0.458-2.377,0.968-4.9,3.632-6.014
		c1.068-0.447,1.142-1.117,1.035-1.989c-0.565-4.608-1.104-9.22-1.739-13.818c-0.73-5.28-1.348-10.555-0.476-15.876
		c0.761-4.644,2.694-8.744,5.804-12.283c0.389-0.443,0.759-0.902,1.173-1.396c-0.253-0.238-0.403-0.43-0.597-0.548
		c-0.303-0.183-0.636-0.315-0.931-0.455c-2.407,2.627-4.383,3.096-6.874,1.679c-1.671-0.951-2.624-3.258-2.138-5.181
		c0.65-2.573,2.536-3.696,6.22-3.595c0.204-0.528,0.43-1.112,0.763-1.972c-1.239-0.196-2.279-0.336-3.309-0.528
		c-7.499-1.401-12.934-5.98-17.625-11.612c-3.598-4.32-7.052-8.76-10.577-13.14c-0.68-0.844-1.396-1.659-2.008-2.384
		c-3.659,1.773-6.463,1.381-8.193-0.917c-1.841-2.446-1.749-4.964,0.264-7.232c1.95-2.197,4.738-2.324,8.345-0.192
		c1.795-1.815,3.704-3.645,5.497-5.582c3.205-3.462,6.238-7.087,9.528-10.464c4.745-4.871,10.374-8.046,17.433-8.079
		c0.039-0.198,0.079-0.397,0.118-0.595c-0.492-0.105-0.98-0.278-1.475-0.303c-1.938-0.095-3.535-0.777-4.498-2.55
		c-0.876-1.613-0.87-3.25,0.086-4.827c1.528-2.518,5.033-3.061,7.255-1.133c0.402,0.349,0.723,0.793,1.129,1.248
		c0.627-0.321,1.15-0.588,1.285-0.657c-1.544-3.442-3.381-6.66-4.447-10.115c-1.687-5.474-1.001-11.126-0.262-16.716
		c0.664-5.021,1.316-10.044,1.969-15.067c0.146-1.121-0.125-1.799-1.387-2.271c-2.514-0.942-3.795-3.644-3.256-6.208
		c0.516-2.454,2.789-4.304,5.338-4.343c2.683-0.041,5.066,1.637,5.532,4.271c0.244,1.379,0.825,1.661,2.015,1.632
		c4.351-0.106,8.705-0.107,13.053-0.264c4.844-0.175,9.712-0.375,14.399,1.015c2.971,0.881,5.784,2.295,8.915,3.571
		c0.263-0.461,0.755-1.321,1.294-2.264c-0.379-0.332-0.679-0.597-0.982-0.86c-1.766-1.538-2.234-3.719-1.227-5.722
		c0.902-1.794,3.062-2.911,4.977-2.575c2.351,0.412,4.133,2.127,4.091,4.381c-0.027,1.453,0.548,1.929,1.78,2.137
		c1.106,0.187,2.199,0.446,3.408,0.696c1.643-8.764,7.155-14.638,13.518-19.979c3.888-3.263,7.612-6.721,11.404-10.097
		c0.616-0.548,0.95-1.028,0.438-1.995c-1.387-2.619-0.745-5.514,1.379-7.137c2.24-1.711,5-1.616,7.132,0.246
		c2.039,1.78,2.409,4.642,0.936,7.231c-0.119,0.209-0.226,0.425-0.513,0.967c1.935,1.749,3.899,3.598,5.941,5.356
		c3.801,3.274,7.761,6.371,11.445,9.77c4.324,3.99,7.356,8.787,7.926,14.843c0.027,0.288,0.177,0.565,0.331,1.032
		c1.064-0.215,2.09-0.423,3.084-0.625c0.046-3.444,1.388-5.47,3.803-5.901c2.447-0.437,4.643,0.68,5.512,2.803
		c0.98,2.395,0.134,4.489-2.681,6.358c0.273,0.654,0.561,1.342,0.903,2.16c7.366-5.797,15.859-5.745,24.454-5.367
		c4.226,0.186,8.463,0.165,12.694,0.123c0.462-0.005,1.202-0.698,1.327-1.195c0.752-2.989,2.718-4.671,5.633-4.621
		c2.617,0.044,4.886,1.951,5.384,4.524c0.492,2.544-0.961,5.19-3.627,6.156c-1.029,0.373-1.141,0.951-1.045,1.762
		c0.544,4.612,1.043,9.231,1.693,13.828c0.916,6.486,1.731,12.972-0.258,19.386c-0.69,2.226-1.792,4.324-2.778,6.65
		c0.348,0.219,0.831,0.523,1.403,0.884c1.449-2.166,3.383-2.99,5.802-2.26c2.246,0.677,3.486,2.78,3.231,5.241
		c-0.203,1.964-1.928,3.77-3.855,4.012c-0.812,0.102-2.019-0.144-2.362,0.298c-0.652,0.841-0.812,2.064-1.148,3.047
		c2.382,0.665,4.62,1.112,6.725,1.91c6.402,2.426,10.72,7.449,15.102,12.382c3.083,3.47,6.241,6.873,9.302,10.236
		c3.805-2.173,6.425-2.09,8.424,0.042c1.897,2.023,2.071,4.831,0.444,7.157c-1.622,2.318-4.369,2.761-8.347,1.123
		c-2.629,3.21-5.319,6.533-8.053,9.82c-2.704,3.252-5.272,6.645-8.225,9.656c-4.242,4.325-9.402,7.143-15.616,7.876
		c0.163,0.774,0.299,1.411,0.431,2.048c0.294,1.413,0.801,2.283,2.61,2.142c2.145-0.167,3.916,1.576,4.433,3.812
		c0.439,1.897-0.567,4.051-2.367,5.068c-1.928,1.089-4.118,0.833-5.674-0.677c-0.341-0.331-0.65-0.694-1.041-1.116
		c-0.705,0.397-1.374,0.773-2.129,1.197c0.197,0.396,0.315,0.732,0.512,1.014c3.738,5.35,4.996,11.363,4.371,17.733
		c-0.636,6.48-1.6,12.928-2.399,19.393c-0.126,1.016-0.1,2.05-0.211,3.069c-0.103,0.945,0.296,1.338,1.177,1.679
		c2.839,1.101,4.093,3.495,3.49,6.367c-0.503,2.397-2.843,4.253-5.404,4.286c-2.701,0.035-4.948-1.801-5.556-4.549
		c-0.077-0.347-0.097-0.706-0.198-1.478c-2.929,0-5.869-0.031-8.808,0.007c-4.711,0.06-9.424,0.293-14.133,0.219
		c-5.968-0.093-11.404-1.857-16.106-6.024c-0.319,0.588-0.587,1.079-0.844,1.553c2.428,2.22,3.08,4.091,2.197,6.179
		c-0.804,1.901-3.017,3.207-4.97,2.933c-2.268-0.318-3.991-2.029-4.311-4.281c-0.256-1.799-0.256-1.799-2.449-2.061
		c-0.143,6.375-2.764,11.749-7.238,16.101c-3.546,3.449-7.475,6.503-11.223,9.745c-2.368,2.048-4.718,4.117-7.001,6.111
		c1.903,4.117,1.611,6.8-0.756,8.58c-2.258,1.698-5.005,1.605-7.142-0.242C141.247,271.087,140.986,268.198,142.88,264.819z
		 M216.119,192.384c-6.816,2.379-13.177,2.906-19.859,1.371c0.339-0.671,0.579-1.145,0.818-1.619
		c3.066-6.076,2.811-13.577-2.392-18.211c-0.351-0.312-0.404-1.315-0.197-1.838c1.042-2.634,2.245-5.204,3.33-7.822
		c0.365-0.881,0.819-1.289,1.853-1.322c2.797-0.092,5.335-1.031,7.458-2.893c5.677-4.979,7.22-11.38,5.575-18.432
		c-1.509-6.471-5.407-10.972-12.369-12.178c-0.53-0.092-1.165-0.735-1.382-1.272c-0.697-1.721-1.059-3.589-1.854-5.255
		c-0.922-1.934-1.34-3.562,0.837-4.896c0.339-0.207,0.551-0.634,0.797-0.978c3.666-5.115,3.459-12.352-0.421-18.214
		c-5.313-8.027-16.598-10.861-23.233-4.49c-0.284,0.273-1.127,0.228-1.573,0.028c-3.574-1.607-7.136-3.247-10.646-4.988
		c-0.549-0.272-1.057-1.065-1.174-1.693c-0.486-2.598-1.288-5.033-2.997-7.097c-3.855-4.654-8.874-6.42-14.807-6.051
		c-7.375,0.459-13.326,5.92-14.434,13.216c-0.098,0.648-0.8,1.429-1.424,1.733c-2.545,1.242-5.281,2.126-7.727,3.525
		c-1.874,1.072-3.314,1.346-4.9-0.294c-0.441-0.456-1.12-0.715-1.73-0.969c-5.874-2.441-11.014-0.753-15.669,2.995
		c-6.393,5.148-9.34,16.416-3.11,23.526c0.32,0.365,0.321,1.237,0.147,1.767c-0.843,2.575-1.874,5.09-2.676,7.677
		c-0.4,1.291-1.087,1.843-2.393,1.965c-3.241,0.301-5.815,1.909-7.914,4.32c-3.711,4.263-4.775,9.331-4.015,14.75
		c0.971,6.921,5.862,13.616,13.722,14.271c0.471,0.039,1.113,0.502,1.311,0.935c1.429,3.117,2.763,6.277,4.109,9.381
		c-6.298,6.909-6.481,10.665-1.099,22.01c-3.53,1.257-7.065,0.988-10.467-0.193c-3.385-1.175-6.639-2.729-10.41-4.309
		c-0.738,1.862-2.087,3.811-2.197,5.827c-0.285,5.222-0.038,10.473,0.026,15.713c0.02,1.611,0.133,3.221,0.182,4.327
		c5.529,0,10.906,0.133,16.271-0.065c2.183-0.08,4.355-0.817,6.501-1.372c1.36-0.352,1.787-1.161,1.35-2.694
		c-1.499-5.259-1.411-10.569-0.152-16.102c0.791,0.611,1.409,1.07,2.007,1.554c6.11,4.95,15.514,5.393,20.761-0.93
		c0.299-0.36,1.3-0.446,1.827-0.255c2.15,0.78,4.282,1.637,6.332,2.647c0.6,0.296,1.302,1.204,1.283,1.811
		c-0.211,6.719,5.511,13.146,12.982,14.363c1.222,0.199,2.454,0.335,4.081,0.555c-0.982,1.458-1.706,2.773-2.655,3.898
		c-2.867,3.397-6.73,5.044-10.99,5.791c-1.462,0.256-1.771,0.818-1.137,2.041c0.911,1.757,1.562,3.756,2.84,5.194
		c3.888,4.374,8.024,8.528,11.96,12.66c2.677-2.458,5.382-4.851,7.982-7.354c2.345-2.257,4.67-4.551,6.811-6.998
		c0.869-0.993,1.226-2.433,1.881-3.805c-1.708-0.258-2.914-0.363-4.083-0.63c-5.307-1.21-9.872-3.33-11.342-9.279
		c-0.302-1.221-0.27-1.876,1.215-2.119c6.025-0.989,12.816-6.218,12.777-14.529c-0.002-0.513,0.606-1.261,1.117-1.503
		c2.178-1.028,4.453-1.85,6.637-2.865c0.97-0.451,1.508-0.222,2.149,0.537c1.848,2.185,4.153,3.714,7.001,4.225
		c6.165,1.107,11.274-0.979,15.588-5.331c0.489-0.493,0.952-1.013,1.566-1.669c3.183,7.381,0.512,13.792-2.569,20.315
		c7.814,3.477,15.958,0.928,23.905,2.402c0-1.819-0.041-3.377,0.008-4.932c0.139-4.468,0.482-8.939,0.399-13.402
		C217.483,196.775,216.648,194.7,216.119,192.384z M44.625,143.748c3.608,3.719,7.507,7.845,11.535,11.841
		c2.038,2.022,4.523,3.384,7.385,4.015c1.262,0.278,1.903-0.028,2.479-1.272c2.459-5.312,4.817-10.739,10.33-13.642
		c-1.855-1.662-3.988-2.951-5.239-4.828c-2.26-3.39-4.099-7.079-5.893-10.751c-0.686-1.405-1.426-1.941-2.731-1.224
		c-2.196,1.206-4.618,2.235-6.396,3.918C52.112,135.576,48.468,139.702,44.625,143.748z M61.151,123.987
		c-0.975-3.963-0.516-3.277-3.684-3.308c-4.03-0.039-7.485,1.675-10.211,4.422c-5.648,5.692-11.056,11.624-16.57,17.465
		c1.223,1.41,2.483,2.791,3.663,4.238c3.513,4.306,6.892,8.726,10.521,12.932c3.006,3.484,6.644,6.337,11.306,7.077
		c5.067,0.804,4.067,1.399,5.606-3.239c0.017-0.052-0.011-0.119-0.017-0.179c-0.098,0.136-0.197,0.273-0.295,0.409
		c-2.981-2.093-6.064-4.058-8.907-6.324c-1.827-1.456-3.231-3.429-4.947-5.041c-2.714-2.55-5.483-5.046-8.322-7.456
		c-1.513-1.284-1.437-2.655,0.216-3.764c2.186-1.466,4.33-3.021,6.333-4.725c1.604-1.364,2.998-2.982,4.437-4.532
		C53.382,128.622,56.669,125.536,61.151,123.987z M97.869,219.185c-2.613,0.48-5.003,1.145-7.428,1.312
		c-3.916,0.27-7.862,0.094-11.781,0.339c-2.317,0.145-4.642,0.596-6.898,1.168c-2.276,0.577-3.235-0.23-3.107-2.554
		c0.202-3.659,0.14-7.333,0.206-11.001c0.077-4.275-0.015-8.566,0.341-12.818c0.164-1.951,1.224-3.828,1.908-5.826
		c-0.922-0.615-1.865-1.244-2.823-1.883c-4.285,3.526-6.326,8.057-6.627,13.449c-0.357,6.396,1.152,12.596,1.966,18.87
		c0.315,2.428,0.543,4.866,0.808,7.28c2.116,0,4.107-0.008,6.098,0.002c6.157,0.03,12.32,0.235,18.469,0.038
		c3.685-0.118,7.083-1.495,9.732-4.238c0.33-0.342,0.595-1.075,0.457-1.478C98.847,220.841,98.253,219.925,97.869,219.185z
		 M123.412,230.796c0.111,3.97,1.343,7.442,3.788,10.296c2.385,2.784,5.036,5.364,7.75,7.836c3.953,3.6,8.067,7.024,11.929,10.364
		c4.771-3.935,9.566-7.798,14.255-11.785c4.038-3.433,7.733-7.142,8.656-12.738c0.578-3.506,0.407-3.806-3.071-4.199
		c-0.107-0.012-0.224,0.07-0.337,0.109c0.129,0.112,0.258,0.224,0.386,0.337c-2.26,2.633-4.394,5.388-6.808,7.871
		c-3.885,3.998-8.964,6.814-11.607,12.059c-0.685,1.36-2.502,1.125-3.481-0.089c-2.223-2.758-4.408-5.555-6.781-8.18
		c-3.551-3.929-7.723-7.347-9.832-12.425c-0.127-0.307-0.778-0.652-1.094-0.58C125.894,229.963,124.657,230.409,123.412,230.796z
		 M220.769,192.295c0.347,3.418,0.877,6.57,0.944,9.732c0.127,6.007-1.458,12.003-0.01,18.042c0.342,1.426-1.037,2.535-2.401,1.977
		c-4.826-1.972-9.867-1.372-14.858-1.535c-2.824-0.092-5.674-0.232-8.449-0.718c-3.366-0.59-3.338-0.759-5.02,2.238
		c-0.053,0.095-0.034,0.231-0.057,0.421c2.907,3.564,6.951,4.984,11.325,5.105c7.829,0.217,15.669,0.061,23.498,0.061
		c0.513-3.854,1.019-7.549,1.495-11.248c0.714-5.551,2.01-11.057,1.256-16.724c-0.462-3.475-1.589-6.635-4.013-9.358
		C223.059,191.056,221.748,191.765,220.769,192.295z M68.224,100.989c0.92-0.618,1.691-1.205,2.526-1.679
		c0.891-0.506,1.081-1.079,0.729-2.076c-1.373-3.891-1.347-7.913-1.113-11.982c0.276-4.794,1.18-9.592-0.079-14.407
		c-0.489-1.87,0.908-2.801,2.841-2.391c2.689,0.571,5.414,1.095,8.149,1.296c5.687,0.417,11.46-0.329,17.099,1.402
		c0.259-0.484,0.5-0.894,0.704-1.322c1.452-3.038,1.379-3.22-1.668-4.864c-3.393-1.831-7.095-2.333-10.851-2.32
		c-5.011,0.017-10.021,0.261-15.032,0.38c-1.79,0.043-3.582,0.007-5.34,0.007c-0.389,3.075-0.73,6-1.133,8.917
		c-0.841,6.087-2.164,12.128-1.596,18.339C63.827,94.323,65.256,97.873,68.224,100.989z M260.477,142.821
		c-0.844-0.898-1.764-1.853-2.66-2.831c-4.041-4.41-7.974-8.925-12.147-13.206c-2.846-2.919-6.185-5.165-10.418-5.779
		c-1.9-0.276-2.876,0.327-2.962,2.219c-0.031,0.677-0.08,1.788,0.273,1.982c4.721,2.592,8.099,6.652,11.722,10.452
		c2.167,2.274,4.323,4.536,7.291,5.859c2.135,0.952,2.079,2.521,0.167,3.93c-1.883,1.388-3.713,2.873-5.41,4.482
		c-1.751,1.66-3.294,3.537-4.961,5.289c-2.672,2.809-5.428,5.519-8.989,7.231c-0.304,0.146-0.794,0.495-0.76,0.66
		c0.273,1.343,0.475,2.759,1.102,3.938c0.193,0.363,1.665,0.213,2.499,0.041c5.18-1.065,9.026-4.261,12.286-8.163
		C251.924,153.645,256.152,148.211,260.477,142.821z M88.887,167.363c-6.907-0.682-11.065-5.385-15.492-9.623
		c-2.765,1.22-4.29,3.476-5.383,5.992c-1.964,4.521-3.759,9.115-5.598,13.612c3.397,1.547,6.883,3.186,10.412,4.726
		c2.881,1.257,5.825,2.371,9.064,2.13c2.853-0.212,3.111-0.373,3.145-3.208C85.092,176.204,85.749,171.615,88.887,167.363z
		 M192.951,71.445c1.188-0.337,2.378-0.901,3.6-0.981c4.751-0.312,9.519-0.374,14.266-0.723c2.617-0.193,5.235-0.642,7.799-1.216
		c2.197-0.492,3.295,0.476,2.934,2.761c-0.29,1.836-0.53,3.708-0.505,5.56c0.087,6.54,1.577,13.086-0.318,19.579
		c1.139,0.653,2.176,1.155,3.11,1.806c1.226,0.855,1.854,0.461,2.505-0.755c1.951-3.643,2.572-7.57,2.201-11.575
		c-0.505-5.454-1.365-10.874-2.049-16.312c-0.275-2.188-0.486-4.384-0.769-6.969c-7.232,0-14.365-0.227-21.473,0.102
		c-3.232,0.15-6.581,0.997-9.576,2.25C190.57,66.688,190.544,67.55,192.951,71.445z M122.696,202.081
		c-2.024,0.943-4.018,2.084-6.151,2.819c-3.737,1.288-7.624,1.036-11.47,0.507c-0.974-0.134-1.56-0.024-1.665,1.004
		c-0.109,1.068-0.287,2.159-0.181,3.215c0.673,6.688,5.113,11.855,7.102,17.966c4.923-2.166,9.689-4.173,14.367-6.366
		c1.944-0.911,3.702-2.218,4.518-4.009c-1.477-2.606-3.032-4.867-4.087-7.341C124.052,207.35,123.465,204.614,122.696,202.081z
		 M217.473,143.569c3.873,5.446,7.597,10.684,11.43,16.074c7.861-2.945,11.763-10.783,17.679-15.549
		c-3.329-3.538-6.446-7.078-9.821-10.352c-1.968-1.908-4.334-3.411-6.552-5.053c-0.764-0.565-1.39-0.388-1.903,0.503
		C225.217,134.549,221.571,139.494,217.473,143.569z M123.934,57.761c1.326,0.334,2.495,0.596,3.644,0.928
		c1.076,0.31,1.749,0.101,2.302-1.006c0.586-1.175,1.454-2.219,2.262-3.272c4.149-5.409,10.125-9.205,13.48-15.344
		c0.608-1.113,2.501-0.934,3.058,0.252c1.956,4.173,5.73,6.621,8.842,9.709c2.733,2.713,5.336,5.557,7.964,8.373
		c0.692,0.741,4.353,0.641,4.735-0.239c0.126-0.291-0.001-0.7-0.035-1.053c-0.296-3.121-1.539-5.913-3.66-8.115
		c-2.797-2.904-5.84-5.582-8.881-8.238c-3.441-3.006-6.996-5.88-10.45-8.769c-2.264,1.997-4.563,3.955-6.783,5.998
		c-4.174,3.841-8.436,7.6-12.398,11.65C125.68,51.022,124.309,54.103,123.934,57.761z M217.785,128.656
		c5.325-5.056,6-12.616,9.277-18.798c-4.507-1.925-8.819-3.897-13.236-5.596c-2.008-0.772-4.225-1.002-6.092-1.421
		c-1.547,6.021-2.96,11.522-4.3,16.74C208.091,122.527,212.856,125.54,217.785,128.656z M202.102,167.582
		c5.401,4.994,5.585,11.293,5.136,17.892c7.539,0.185,13.279-4.608,20.206-6.034c-1.953-5.16-3.73-10.199-5.792-15.118
		c-0.711-1.698-2.128-3.1-3.318-4.771C213.58,164.012,208.216,166.287,202.102,167.582z M74.891,73.307
		c-0.167,2.994-0.374,5.578-0.441,8.166c-0.094,3.615-0.242,7.241-0.053,10.846c0.1,1.909,0.864,3.783,1.409,6.001
		c5.789-4.662,11.952-6.701,19.038-6.533c-1.854-6.073,1.163-10.886,3.888-15.984C90.941,72.209,82.761,74.933,74.891,73.307z
		 M160.645,215.64c5.056,6.411,12.913,7.042,18.974,10.792c2.109-4.49,4.173-8.77,6.13-13.097c1.023-2.262,1.757-4.624,1.205-7.277
		c-6.914,1.815-13.482,2.477-17.382-5.548C170.171,207.783,166.191,212.137,160.645,215.64z M63.592,110.101
		c0.517,1.379,0.928,2.445,1.318,3.519c1.297,3.569,2.488,7.18,3.916,10.695c0.85,2.093,2.023,4.072,4.16,5.444
		c2.952-5.417,7.307-9.047,13.032-11.358c-3.494-4.269-2.643-9.173-2.289-14.172C76.147,103.889,70.478,108.831,63.592,110.101z
		 M216.928,73.448c-1.861,0.151-3.413,0.361-4.968,0.386c-3.622,0.059-7.247-0.053-10.866,0.062c-2.76,0.088-5.5,0.462-7.958,2.045
		c3.02,4.147,5.01,8.607,5.78,13.573c0.151,0.971,0.673,1.144,1.586,1.272c2.373,0.332,4.816,0.596,7.047,1.399
		c3.032,1.091,5.893,2.658,8.978,4.091C218.984,88.872,216.539,81.269,216.928,73.448z M160.705,72.351
		c1.88,1.558,3.67,2.817,5.178,4.354c1.512,1.541,2.696,3.399,4.133,5.021c0.306,0.346,1.105,0.432,1.642,0.365
		c2.677-0.335,5.332-0.934,8.016-1.101c2.186-0.136,4.401,0.208,6.825,0.353c-0.581-7.042-5.169-12.402-7.318-18.934
		C173.214,66.422,165.734,66.986,160.705,72.351z M162.741,60.826c-0.528-0.897-0.758-1.562-1.206-2.005
		c-4.823-4.778-9.68-9.522-14.663-14.408c-4.771,5.908-11.293,10.227-14.881,17.608c5.536,1.155,10.83,2.062,14.695,6.539
		C151.005,63.916,156.623,62.192,162.741,60.826z M120.419,82.156c1.971-5.273,6.062-8.467,10.232-11.561
		c-2.265-2.382-8.344-4.994-18.21-7.919c-1.937,6.298-5.733,12-6.187,19.111C111.089,80.881,115.666,79.814,120.419,82.156z"/>
	<linearGradient id="SVGID_2_" gradientUnits="userSpaceOnUse" x1="173.2221" y1="287.3597" x2="173.2221" y2="22.3597">
		<stop  offset="0" style="stop-color:#DF3729"/>
		<stop  offset="0.1652" style="stop-color:#E1492B"/>
		<stop  offset="0.4966" style="stop-color:#E67531"/>
		<stop  offset="0.96" style="stop-color:#EFB037"/>
		<stop  offset="1" style="stop-color:#EFB538"/>
	</linearGradient>
	<path fill="url(#SVGID_2_)" d="M156.261,94.055c28.523,5.744,46.14,38.699,35.702,68.013c-0.208-1.461-0.389-2.466-0.49-3.479
		c-0.742-7.453-6.318-14.747-13.029-16.611c-5.382-1.495-10.526-0.956-14.568,3.357c-4.172,4.452-5.567,9.7-3.453,15.57
		c1.8,4.999,6.073,7.733,10.876,7.216c2.577-0.277,4.319-1.769,5.564-3.887c0.789-1.342,0.301-3.137-0.92-4.036
		c-1.387-1.021-2.64-0.837-3.985,0.586c-1.517,1.606-2.003,1.66-3.785,0.42c-3.493-2.432-3.019-8.633,0.924-11.199
		c2.842-1.849,5.829-1.794,8.748-0.157c6.283,3.523,8.28,11.57,4.709,18.362c-3.897,7.41-14.616,11.907-23.63,4.255
		c-7.562-6.419-9.482-15.506-5.325-25.278c1.739-4.088,4.681-7.251,7.482-10.551c8.447-9.951,10.132-26.08,1.374-36.632
		C160.627,97.803,158.314,96.005,156.261,94.055z"/>
	<linearGradient id="SVGID_3_" gradientUnits="userSpaceOnUse" x1="128.2888" y1="287.3597" x2="128.2888" y2="22.3597">
		<stop  offset="0" style="stop-color:#DF3729"/>
		<stop  offset="0.1652" style="stop-color:#E1492B"/>
		<stop  offset="0.4966" style="stop-color:#E67531"/>
		<stop  offset="0.96" style="stop-color:#EFB037"/>
		<stop  offset="1" style="stop-color:#EFB538"/>
	</linearGradient>
	<path fill="url(#SVGID_3_)" d="M134.782,94.397c-0.455,0.373-0.906,0.751-1.365,1.119c-8.323,6.684-10.039,19.565-3.711,27.859
		c5.595,7.333,16.555,6.96,21.122-0.783c1.93-3.273,2.361-6.811,1.034-10.45c-1.001-2.746-2.933-4.543-5.778-5.246
		c-1.815-0.448-3.135,0.342-3.692,2.045c-0.531,1.621,0.285,3.318,1.917,3.985c2.277,0.931,2.871,2.25,2.083,4.625
		c-1.381,4.162-6.469,5.425-10.153,2.444c-3.51-2.839-3.902-6.755-2.985-10.732c2.198-9.541,12.325-12.851,20.372-6.802
		c6.223,4.678,8.343,13.141,5.459,21.46c-2.022,5.833-5.397,10.265-11.783,11.583c-4.395,0.907-8.785,0.43-13.115-0.516
		c-5.603-1.224-11.161-1.912-16.776,0.005c-10.978,3.75-17.687,12.787-18.029,24.423c-0.019,0.659-0.064,1.318-0.1,2.055
		c-4.31-4.642-4.045-26.168,0.655-37.114c6.699-15.599,17.878-26.203,34.563-30.395C134.595,94.106,134.689,94.251,134.782,94.397z"
		/>
	<linearGradient id="SVGID_4_" gradientUnits="userSpaceOnUse" x1="142.6132" y1="287.3597" x2="142.6132" y2="22.3597">
		<stop  offset="0" style="stop-color:#DF3729"/>
		<stop  offset="0.1652" style="stop-color:#E1492B"/>
		<stop  offset="0.4966" style="stop-color:#E67531"/>
		<stop  offset="0.96" style="stop-color:#EFB037"/>
		<stop  offset="1" style="stop-color:#EFB538"/>
	</linearGradient>
	<path fill="url(#SVGID_4_)" d="M178.275,182.721c-18.274,18.322-48.303,17.78-66.248-0.423c2.032,0.423,3.785,0.852,5.561,1.146
		c8.603,1.424,17.985-5.485,19.45-14.14c1.03-6.09-0.458-11.255-5.086-15.411c-3.386-3.041-8.478-3.574-12.513-1.379
		c-3.777,2.054-5.812,6.076-5.16,10.319c0.127,0.824,0.389,1.649,0.722,2.416c0.717,1.651,2.021,2.313,3.425,1.845
		c1.682-0.56,2.751-2.227,2.107-3.838c-0.702-1.755-1.016-3.202,0.808-4.432c1.814-1.223,4.032-1.248,5.945,0.025
		c3.869,2.574,4.54,8.242,1.47,12.411c-4.602,6.25-14.029,5.952-18.578-0.587c-7.533-10.83-1.179-25.844,11.86-27.995
		c5.582-0.921,10.824-0.053,15.031,3.902c1.642,1.543,2.903,3.746,3.696,5.886c1.903,5.133,3.095,10.544,5.178,15.593
		c3.294,7.984,9.025,13.669,17.544,16.064c4.243,1.193,8.488,0.927,12.635-0.612C176.839,183.245,177.557,182.984,178.275,182.721z"
		/>
	<linearGradient id="SVGID_5_" gradientUnits="userSpaceOnUse" x1="184.6527" y1="287.3597" x2="184.6527" y2="22.3597">
		<stop  offset="0" style="stop-color:#DF3729"/>
		<stop  offset="0.1652" style="stop-color:#E1492B"/>
		<stop  offset="0.4966" style="stop-color:#E67531"/>
		<stop  offset="0.96" style="stop-color:#EFB037"/>
		<stop  offset="1" style="stop-color:#EFB538"/>
	</linearGradient>
	<path fill="url(#SVGID_5_)" d="M174.311,193.995c6.974-4.513,12.691-10.155,17.175-16.984c2.79,1.194,3.861,5.277,3.407,9.036
		c-0.615,5.09-5.07,10.021-10.364,11.395C180.429,198.506,176.555,197.261,174.311,193.995z"/>
	<linearGradient id="SVGID_6_" gradientUnits="userSpaceOnUse" x1="106.5595" y1="287.3597" x2="106.5595" y2="22.3597">
		<stop  offset="0" style="stop-color:#DF3729"/>
		<stop  offset="0.1652" style="stop-color:#E1492B"/>
		<stop  offset="0.4966" style="stop-color:#E67531"/>
		<stop  offset="0.96" style="stop-color:#EFB037"/>
		<stop  offset="1" style="stop-color:#EFB538"/>
	</linearGradient>
	<path fill="url(#SVGID_6_)" d="M99.59,177.005c4.634,6.929,10.335,12.604,17.25,17.005c-1.263,2.441-4.782,4.13-7.877,3.845
		c-5.59-0.516-10.553-4.62-12.117-10.022C95.543,183.335,96.501,179.356,99.59,177.005z"/>
	<linearGradient id="SVGID_7_" gradientUnits="userSpaceOnUse" x1="145.4628" y1="287.3597" x2="145.4628" y2="22.3597">
		<stop  offset="0" style="stop-color:#DF3729"/>
		<stop  offset="0.1652" style="stop-color:#E1492B"/>
		<stop  offset="0.4966" style="stop-color:#E67531"/>
		<stop  offset="0.96" style="stop-color:#EFB037"/>
		<stop  offset="1" style="stop-color:#EFB538"/>
	</linearGradient>
	<path fill="url(#SVGID_7_)" d="M133.398,200.977c8.156,1.658,16.045,1.726,24.095,0.014c0.307,3.751-1.383,6.354-4.015,8.328
		c-4.354,3.265-9.148,3.555-13.972,1.191C135.804,208.697,133.611,205.687,133.398,200.977z"/>
	<linearGradient id="SVGID_8_" gradientUnits="userSpaceOnUse" x1="187.6849" y1="287.3597" x2="187.6849" y2="22.3597">
		<stop  offset="0" style="stop-color:#DF3729"/>
		<stop  offset="0.1652" style="stop-color:#E1492B"/>
		<stop  offset="0.4966" style="stop-color:#E67531"/>
		<stop  offset="0.96" style="stop-color:#EFB037"/>
		<stop  offset="1" style="stop-color:#EFB538"/>
	</linearGradient>
	<path fill="url(#SVGID_8_)" d="M193.965,116.127c-4.036-7.439-9.337-13.614-15.931-18.636c3.428-3.996,10.494-3.303,15.101,1.309
		C198.317,103.989,198.834,111.883,193.965,116.127z"/>
	<linearGradient id="SVGID_9_" gradientUnits="userSpaceOnUse" x1="204.5439" y1="287.3597" x2="204.5439" y2="22.3597">
		<stop  offset="0" style="stop-color:#DF3729"/>
		<stop  offset="0.1652" style="stop-color:#E1492B"/>
		<stop  offset="0.4966" style="stop-color:#E67531"/>
		<stop  offset="0.96" style="stop-color:#EFB037"/>
		<stop  offset="1" style="stop-color:#EFB538"/>
	</linearGradient>
	<path fill="url(#SVGID_9_)" d="M200.492,133.743c5.272,0.794,9.373,7.007,8.789,13.336c-0.625,6.781-4.776,11.83-9.53,11.657
		c0.424-4.153,1.08-8.301,1.206-12.465C201.082,142.145,200.672,138.001,200.492,133.743z"/>
	<linearGradient id="SVGID_10_" gradientUnits="userSpaceOnUse" x1="86.7231" y1="287.3597" x2="86.7231" y2="22.3597">
		<stop  offset="0" style="stop-color:#DF3729"/>
		<stop  offset="0.1652" style="stop-color:#E1492B"/>
		<stop  offset="0.4966" style="stop-color:#E67531"/>
		<stop  offset="0.96" style="stop-color:#EFB037"/>
		<stop  offset="1" style="stop-color:#EFB538"/>
	</linearGradient>
	<path fill="url(#SVGID_10_)" d="M90.95,133.55c-1.45,8.556-1.232,16.808,0.75,25.232c-3.283-0.143-5.43-1.805-7.023-4.114
		c-3.523-5.108-3.883-10.546-1.004-16.057C85.122,135.836,87.421,134.046,90.95,133.55z"/>
	<linearGradient id="SVGID_11_" gradientUnits="userSpaceOnUse" x1="104.7124" y1="287.3597" x2="104.7124" y2="22.3597">
		<stop  offset="0" style="stop-color:#DF3729"/>
		<stop  offset="0.1652" style="stop-color:#E1492B"/>
		<stop  offset="0.4966" style="stop-color:#E67531"/>
		<stop  offset="0.96" style="stop-color:#EFB037"/>
		<stop  offset="1" style="stop-color:#EFB538"/>
	</linearGradient>
	<path fill="url(#SVGID_11_)" d="M97.772,114.868c-3.227-2.819-3.3-10.61,1.678-16.028c4.295-4.675,11.441-5.459,14.47-1.994
		C107.318,101.741,101.926,107.754,97.772,114.868z"/>
	<linearGradient id="SVGID_12_" gradientUnits="userSpaceOnUse" x1="145.6692" y1="287.3597" x2="145.6692" y2="22.3597">
		<stop  offset="0" style="stop-color:#DF3729"/>
		<stop  offset="0.1652" style="stop-color:#E1492B"/>
		<stop  offset="0.4966" style="stop-color:#E67531"/>
		<stop  offset="0.96" style="stop-color:#EFB037"/>
		<stop  offset="1" style="stop-color:#EFB538"/>
	</linearGradient>
	<path fill="url(#SVGID_12_)" d="M157.409,87.889c-7.918-1.647-15.684-1.723-23.418-0.025c-0.684-4.092,4.467-8.731,10.201-9.403
		C150.502,77.722,156.911,82.139,157.409,87.889z"/>
	<linearGradient id="SVGID_13_" gradientUnits="userSpaceOnUse" x1="84.6173" y1="287.3597" x2="84.6173" y2="22.3597">
		<stop  offset="0" style="stop-color:#DF3729"/>
		<stop  offset="0.1652" style="stop-color:#E1492B"/>
		<stop  offset="0.4966" style="stop-color:#E67531"/>
		<stop  offset="0.96" style="stop-color:#EFB037"/>
		<stop  offset="1" style="stop-color:#EFB538"/>
	</linearGradient>
	<path fill="url(#SVGID_13_)" d="M89.604,205.767c-0.016,2.691-2.281,4.945-4.978,4.955c-2.783,0.01-5.059-2.314-4.994-5.1
		c0.062-2.696,2.364-4.917,5.049-4.874C87.358,200.791,89.62,203.097,89.604,205.767z"/>
	<linearGradient id="SVGID_14_" gradientUnits="userSpaceOnUse" x1="146.6804" y1="287.3597" x2="146.6804" y2="22.3597">
		<stop  offset="0" style="stop-color:#DF3729"/>
		<stop  offset="0.1652" style="stop-color:#E1492B"/>
		<stop  offset="0.4966" style="stop-color:#E67531"/>
		<stop  offset="0.96" style="stop-color:#EFB037"/>
		<stop  offset="1" style="stop-color:#EFB538"/>
	</linearGradient>
	<path fill="url(#SVGID_14_)" d="M146.543,236.191c-2.712-0.016-4.814-2.104-4.84-4.807c-0.027-2.833,2.165-4.946,5.096-4.911
		c2.701,0.032,4.83,2.137,4.86,4.805C151.689,234.073,149.466,236.208,146.543,236.191z"/>
	<linearGradient id="SVGID_15_" gradientUnits="userSpaceOnUse" x1="205.5057" y1="287.3597" x2="205.5057" y2="22.3597">
		<stop  offset="0" style="stop-color:#DF3729"/>
		<stop  offset="0.1652" style="stop-color:#E1492B"/>
		<stop  offset="0.4966" style="stop-color:#E67531"/>
		<stop  offset="0.96" style="stop-color:#EFB037"/>
		<stop  offset="1" style="stop-color:#EFB538"/>
	</linearGradient>
	<path fill="url(#SVGID_15_)" d="M205.492,209.679c-2.831-0.003-4.958-2.053-4.972-4.793c-0.015-2.794,2.203-4.935,5.083-4.908
		c2.754,0.026,4.914,2.204,4.888,4.928C210.466,207.601,208.286,209.682,205.492,209.679z"/>
	<linearGradient id="SVGID_16_" gradientUnits="userSpaceOnUse" x1="61.3472" y1="287.3597" x2="61.3472" y2="22.3597">
		<stop  offset="0" style="stop-color:#DF3729"/>
		<stop  offset="0.1652" style="stop-color:#E1492B"/>
		<stop  offset="0.4966" style="stop-color:#E67531"/>
		<stop  offset="0.96" style="stop-color:#EFB037"/>
		<stop  offset="1" style="stop-color:#EFB538"/>
	</linearGradient>
	<path fill="url(#SVGID_16_)" d="M56.378,144.268c-0.012-2.809,2.069-4.908,4.868-4.911c2.873-0.004,5.12,2.194,5.068,4.958
		c-0.049,2.653-2.384,4.943-5.024,4.927C58.619,149.226,56.39,146.969,56.378,144.268z"/>
	<linearGradient id="SVGID_17_" gradientUnits="userSpaceOnUse" x1="232.011" y1="287.3597" x2="232.011" y2="22.3597">
		<stop  offset="0" style="stop-color:#DF3729"/>
		<stop  offset="0.1652" style="stop-color:#E1492B"/>
		<stop  offset="0.4966" style="stop-color:#E67531"/>
		<stop  offset="0.96" style="stop-color:#EFB037"/>
		<stop  offset="1" style="stop-color:#EFB538"/>
	</linearGradient>
	<path fill="url(#SVGID_17_)" d="M236.998,143.632c-0.008,2.713-2.239,4.961-4.94,4.978c-2.66,0.017-4.99-2.26-5.035-4.921
		c-0.047-2.756,2.271-5.056,5.066-5.03C234.823,138.685,237.007,140.899,236.998,143.632z"/>
	<linearGradient id="SVGID_18_" gradientUnits="userSpaceOnUse" x1="85.0445" y1="287.3597" x2="85.0445" y2="22.3597">
		<stop  offset="0" style="stop-color:#DF3729"/>
		<stop  offset="0.1652" style="stop-color:#E1492B"/>
		<stop  offset="0.4966" style="stop-color:#E67531"/>
		<stop  offset="0.96" style="stop-color:#EFB037"/>
		<stop  offset="1" style="stop-color:#EFB538"/>
	</linearGradient>
	<path fill="url(#SVGID_18_)" d="M84.911,88.061c-2.751-0.065-4.929-2.321-4.83-5.002c0.099-2.682,2.429-4.904,5.087-4.852
		c2.801,0.055,4.924,2.335,4.84,5.201C89.928,86.185,87.797,88.13,84.911,88.061z"/>
	<linearGradient id="SVGID_19_" gradientUnits="userSpaceOnUse" x1="208.0365" y1="287.3597" x2="208.0365" y2="22.3597">
		<stop  offset="0" style="stop-color:#DF3729"/>
		<stop  offset="0.1652" style="stop-color:#E1492B"/>
		<stop  offset="0.4966" style="stop-color:#E67531"/>
		<stop  offset="0.96" style="stop-color:#EFB037"/>
		<stop  offset="1" style="stop-color:#EFB538"/>
	</linearGradient>
	<path fill="url(#SVGID_19_)" d="M208.005,77.288c2.801-0.004,4.973,2.082,5.012,4.812c0.04,2.833-2.095,4.912-5.041,4.906
		c-2.822-0.005-4.923-2.074-4.921-4.847C203.056,79.437,205.236,77.292,208.005,77.288z"/>
	<linearGradient id="SVGID_20_" gradientUnits="userSpaceOnUse" x1="146.6804" y1="287.3597" x2="146.6804" y2="22.3597">
		<stop  offset="0" style="stop-color:#DF3729"/>
		<stop  offset="0.1652" style="stop-color:#E1492B"/>
		<stop  offset="0.4966" style="stop-color:#E67531"/>
		<stop  offset="0.96" style="stop-color:#EFB037"/>
		<stop  offset="1" style="stop-color:#EFB538"/>
	</linearGradient>
	<path fill="url(#SVGID_20_)" d="M146.659,61.924c-2.831,0.011-4.962-2.075-4.957-4.853c0.005-2.757,2.153-4.845,4.979-4.839
		c2.814,0.006,4.984,2.124,4.976,4.859C151.65,59.824,149.49,61.913,146.659,61.924z"/>
</g>
</svg>
